<ttFont>
<head>
    <!-- Most of this table will be recalculated by the compiler -->
    <tableVersion value="1.0"/>
    <fontRevision value="1.301"/>
    <checkSumAdjustment value="0x963729"/>
    <magicNumber value="0x5f0f3cf5"/>
    <flags value="00000000 00001011"/>
    <unitsPerEm value="1000"/>
    <created value="Tue Oct  2 22:59:00 2007"/>
    <modified value="Thu Mar  6 18:36:21 2014"/>
    <xMin value="-83"/>
    <yMin value="-229"/>
    <xMax value="644"/>
    <yMax value="968"/>
    <macStyle value="00000000 00000010"/>
    <lowestRecPPEM value="9"/>
    <fontDirectionHint value="2"/>
    <indexToLocFormat value="0"/>
    <glyphDataFormat value="0"/>
  </head>
    <TTGlyph name="A" xMin="-15" yMin="0" xMax="304" yMax="740">
      <contour>
        <pt x="274" y="0" on="1"/>
        <pt x="268" y="225" on="1"/>
        <pt x="101" y="225" on="1"/>
        <pt x="17" y="0" on="1"/>
        <pt x="-15" y="0" on="1"/>
        <pt x="267" y="740" on="1"/>
        <pt x="280" y="740" on="1"/>
        <pt x="304" y="0" on="1"/>
      </contour>
      <contour>
        <pt x="256" y="641" on="1"/>
        <pt x="111" y="253" on="1"/>
        <pt x="267" y="253" on="1"/>
      </contour>
    </TTGlyph>
    <TTGlyph name="AE" xMin="-14" yMin="0" xMax="610" yMax="733">
      <contour>
        <pt x="605" y="704" on="1"/>
        <pt x="419" y="704" on="1"/>
        <pt x="363" y="389" on="1"/>
        <pt x="536" y="389" on="1"/>
        <pt x="531" y="360" on="1"/>
        <pt x="358" y="360" on="1"/>
        <pt x="300" y="29" on="1"/>
        <pt x="486" y="29" on="1"/>
        <pt x="481" y="0" on="1"/>
        <pt x="264" y="0" on="1"/>
        <pt x="303" y="225" on="1"/>
        <pt x="143" y="225" on="1"/>
        <pt x="19" y="0" on="1"/>
        <pt x="-14" y="0" on="1"/>
        <pt x="393" y="733" on="1"/>
        <pt x="610" y="733" on="1"/>
      </contour>
      <contour>
        <pt x="378" y="649" on="1"/>
        <pt x="159" y="253" on="1"/>
        <pt x="308" y="253" on="1"/>
      </contour>
    </TTGlyph>
    <TTGlyph name="AEacute" xMin="-14" yMin="0" xMax="610" yMax="877">
      <component glyphName="AE" x="0" y="0" flags="0x204"/>
      <component glyphName="acute" x="250" y="287" flags="0x4"/>
    </TTGlyph>
    <TTGlyph name="Aacute" xMin="-15" yMin="0" xMax="386" yMax="883">
      <component glyphName="A" x="0" y="0" flags="0x204"/>
      <component glyphName="acute" x="73" y="293" flags="0x4"/>
    </TTGlyph>
    <TTGlyph name="Abreve" xMin="-15" yMin="0" xMax="376" yMax="871">
      <component glyphName="A" x="0" y="0" flags="0x204"/>
      <component glyphName="breve" x="31" y="293" flags="0x4"/>
    </TTGlyph>
    <TTGlyph name="Acircumflex" xMin="-15" yMin="0" xMax="361" yMax="867">
      <component glyphName="A" x="0" y="0" flags="0x204"/>
      <component glyphName="circumflex" x="29" y="293" flags="0x4"/>
    </TTGlyph>
    <TTGlyph name="Adieresis" xMin="-15" yMin="0" xMax="356" yMax="833">
      <component glyphName="A" x="0" y="0" flags="0x204"/>
      <component glyphName="dieresis" x="29" y="293" flags="0x4"/>
    </TTGlyph>
    <TTGlyph name="Agrave" xMin="-15" yMin="0" xMax="314" yMax="888">
      <component glyphName="A" x="0" y="0" flags="0x204"/>
      <component glyphName="grave" x="0" y="293" flags="0x4"/>
    </TTGlyph>
    <TTGlyph name="Amacron" xMin="-15" yMin="0" xMax="384" yMax="813">
      <component glyphName="A" x="0" y="0" flags="0x204"/>
      <component glyphName="macron" x="30" y="293" flags="0x4"/>
    </TTGlyph>
    <TTGlyph name="Aogonek" xMin="-15" yMin="-187" xMax="304" yMax="740">
      <contour>
        <pt x="280" y="-171" on="1"/>
        <pt x="260" y="-187" on="0"/>
        <pt x="235" y="-187" on="1"/>
        <pt x="212" y="-187" on="0"/>
        <pt x="189" y="-156" on="0"/>
        <pt x="189" y="-134" on="1"/>
        <pt x="189" y="-92" on="0"/>
        <pt x="239" y="-25" on="0"/>
        <pt x="274" y="3" on="1"/>
        <pt x="268" y="225" on="1"/>
        <pt x="101" y="225" on="1"/>
        <pt x="17" y="0" on="1"/>
        <pt x="-15" y="0" on="1"/>
        <pt x="267" y="740" on="1"/>
        <pt x="280" y="740" on="1"/>
        <pt x="304" y="0" on="1"/>
        <pt x="290" y="-11" on="0"/>
        <pt x="259" y="-39" on="0"/>
        <pt x="233" y="-71" on="0"/>
        <pt x="217" y="-108" on="0"/>
        <pt x="217" y="-129" on="1"/>
        <pt x="217" y="-143" on="0"/>
        <pt x="229" y="-161" on="0"/>
        <pt x="242" y="-161" on="1"/>
        <pt x="257" y="-161" on="0"/>
        <pt x="271" y="-149" on="1"/>
      </contour>
      <contour>
        <pt x="256" y="641" on="1"/>
        <pt x="111" y="253" on="1"/>
        <pt x="267" y="253" on="1"/>
      </contour>
    </TTGlyph>
    <TTGlyph name="Aring" xMin="-15" yMin="0" xMax="341" yMax="829">
      <contour>
        <pt x="341" y="768" on="1"/>
        <pt x="341" y="739" on="0"/>
        <pt x="305" y="701" on="0"/>
        <pt x="281" y="696" on="1"/>
        <pt x="304" y="0" on="1"/>
        <pt x="274" y="0" on="1"/>
        <pt x="268" y="225" on="1"/>
        <pt x="101" y="225" on="1"/>
        <pt x="17" y="0" on="1"/>
        <pt x="-15" y="0" on="1"/>
        <pt x="251" y="698" on="1"/>
        <pt x="232" y="703" on="0"/>
        <pt x="208" y="733" on="0"/>
        <pt x="208" y="756" on="1"/>
        <pt x="208" y="788" on="0"/>
        <pt x="253" y="829" on="0"/>
        <pt x="280" y="829" on="1"/>
        <pt x="306" y="829" on="0"/>
        <pt x="341" y="795" on="0"/>
      </contour>
      <contour>
        <pt x="256" y="641" on="1"/>
        <pt x="111" y="253" on="1"/>
        <pt x="267" y="253" on="1"/>
      </contour>
      <contour>
        <pt x="318" y="767" on="1"/>
        <pt x="318" y="784" on="0"/>
        <pt x="299" y="809" on="0"/>
        <pt x="279" y="809" on="1"/>
        <pt x="261" y="809" on="0"/>
        <pt x="231" y="781" on="0"/>
        <pt x="231" y="757" on="1"/>
        <pt x="231" y="740" on="0"/>
        <pt x="250" y="715" on="0"/>
        <pt x="270" y="715" on="1"/>
        <pt x="288" y="715" on="0"/>
        <pt x="318" y="744" on="0"/>
      </contour>
    </TTGlyph>
    <TTGlyph name="Aringacute" xMin="-15" yMin="0" xMax="399" yMax="968">
      <component glyphName="acute" x="86" y="378" flags="0x4"/>
      <component glyphName="Aring" x="0" y="0" flags="0x4"/>
    </TTGlyph>
    <TTGlyph name="Atilde" xMin="-15" yMin="0" xMax="375" yMax="837">
      <component glyphName="A" x="0" y="0" flags="0x204"/>
      <component glyphName="tilde" x="31" y="293" flags="0x4"/>
    </TTGlyph>
    <TTGlyph name="B" xMin="19" yMin="-6" xMax="371" yMax="739">
      <contour>
        <pt x="371" y="586" on="1"/>
        <pt x="371" y="542" on="0"/>
        <pt x="343" y="472" on="0"/>
        <pt x="297" y="420" on="0"/>
        <pt x="240" y="386" on="0"/>
        <pt x="211" y="379" on="1"/>
        <pt x="259" y="364" on="0"/>
        <pt x="323" y="281" on="0"/>
        <pt x="323" y="217" on="1"/>
        <pt x="323" y="166" on="0"/>
        <pt x="289" y="84" on="0"/>
        <pt x="229" y="26" on="0"/>
        <pt x="149" y="-6" on="0"/>
        <pt x="104" y="-6" on="1"/>
        <pt x="79" y="-6" on="0"/>
        <pt x="33" y="1" on="0"/>
        <pt x="19" y="7" on="1"/>
        <pt x="147" y="731" on="1"/>
        <pt x="182" y="739" on="0"/>
        <pt x="213" y="739" on="1"/>
        <pt x="253" y="739" on="0"/>
        <pt x="313" y="714" on="0"/>
        <pt x="352" y="671" on="0"/>
        <pt x="371" y="616" on="0"/>
      </contour>
      <contour>
        <pt x="340" y="583" on="1"/>
        <pt x="340" y="646" on="0"/>
        <pt x="269" y="711" on="0"/>
        <pt x="213" y="711" on="1"/>
        <pt x="190" y="711" on="0"/>
        <pt x="173" y="707" on="1"/>
        <pt x="118" y="394" on="1"/>
        <pt x="124" y="393" on="0"/>
        <pt x="147" y="393" on="0"/>
        <pt x="155" y="393" on="1"/>
        <pt x="191" y="393" on="0"/>
        <pt x="258" y="421" on="0"/>
        <pt x="309" y="471" on="0"/>
        <pt x="340" y="541" on="0"/>
      </contour>
      <contour>
        <pt x="292" y="216" on="1"/>
        <pt x="292" y="290" on="0"/>
        <pt x="209" y="366" on="0"/>
        <pt x="143" y="366" on="1"/>
        <pt x="137" y="366" on="0"/>
        <pt x="118" y="366" on="0"/>
        <pt x="113" y="365" on="1"/>
        <pt x="53" y="30" on="1"/>
        <pt x="64" y="26" on="0"/>
        <pt x="96" y="22" on="0"/>
        <pt x="108" y="22" on="1"/>
        <pt x="146" y="22" on="0"/>
        <pt x="213" y="50" on="0"/>
        <pt x="263" y="101" on="0"/>
        <pt x="292" y="172" on="0"/>
      </contour>
    </TTGlyph>
    <TTGlyph name="C" xMin="43" yMin="-8" xMax="394" yMax="741">
      <contour>
        <pt x="375" y="672" on="1"/>
        <pt x="358" y="692" on="0"/>
        <pt x="319" y="713" on="0"/>
        <pt x="296" y="713" on="1"/>
        <pt x="263" y="713" on="0"/>
        <pt x="204" y="669" on="0"/>
        <pt x="155" y="594" on="0"/>
        <pt x="116" y="494" on="0"/>
        <pt x="88" y="384" on="0"/>
        <pt x="74" y="270" on="0"/>
        <pt x="74" y="217" on="1"/>
        <pt x="74" y="118" on="0"/>
        <pt x="134" y="20" on="0"/>
        <pt x="185" y="20" on="1"/>
        <pt x="206" y="20" on="0"/>
        <pt x="247" y="37" on="0"/>
        <pt x="270" y="54" on="1"/>
        <pt x="283" y="30" on="1"/>
        <pt x="262" y="13" on="0"/>
        <pt x="212" y="-8" on="0"/>
        <pt x="183" y="-8" on="1"/>
        <pt x="121" y="-8" on="0"/>
        <pt x="43" y="99" on="0"/>
        <pt x="43" y="217" on="1"/>
        <pt x="43" y="275" on="0"/>
        <pt x="59" y="397" on="0"/>
        <pt x="89" y="514" on="0"/>
        <pt x="133" y="618" on="0"/>
        <pt x="190" y="695" on="0"/>
        <pt x="258" y="741" on="0"/>
        <pt x="298" y="741" on="1"/>
        <pt x="333" y="741" on="0"/>
        <pt x="381" y="710" on="0"/>
        <pt x="394" y="694" on="1"/>
      </contour>
    </TTGlyph>
    <TTGlyph name="Cacute" xMin="43" yMin="-8" xMax="412" yMax="883">
      <component glyphName="C" x="0" y="0" flags="0x204"/>
      <component glyphName="acute" x="99" y="293" flags="0x4"/>
    </TTGlyph>
    <TTGlyph name="Ccaron" xMin="43" yMin="-8" xMax="401" yMax="867">
      <component glyphName="C" x="0" y="0" flags="0x204"/>
      <component glyphName="caron" x="54" y="293" flags="0x4"/>
    </TTGlyph>
    <TTGlyph name="Ccedilla" xMin="43" yMin="-169" xMax="394" yMax="741">
      <contour>
        <pt x="213" y="-107" on="1"/>
        <pt x="213" y="-132" on="0"/>
        <pt x="172" y="-169" on="0"/>
        <pt x="140" y="-169" on="1"/>
        <pt x="120" y="-169" on="0"/>
        <pt x="84" y="-155" on="0"/>
        <pt x="70" y="-145" on="1"/>
        <pt x="84" y="-122" on="1"/>
        <pt x="95" y="-130" on="0"/>
        <pt x="125" y="-143" on="0"/>
        <pt x="142" y="-143" on="1"/>
        <pt x="161" y="-143" on="0"/>
        <pt x="184" y="-122" on="0"/>
        <pt x="184" y="-107" on="1"/>
        <pt x="184" y="-73" on="0"/>
        <pt x="118" y="-64" on="1"/>
        <pt x="117" y="-60" on="1"/>
        <pt x="142" y="-1" on="1"/>
        <pt x="97" y="13" on="0"/>
        <pt x="43" y="119" on="0"/>
        <pt x="43" y="217" on="1"/>
        <pt x="43" y="275" on="0"/>
        <pt x="59" y="397" on="0"/>
        <pt x="89" y="514" on="0"/>
        <pt x="133" y="618" on="0"/>
        <pt x="190" y="695" on="0"/>
        <pt x="258" y="741" on="0"/>
        <pt x="298" y="741" on="1"/>
        <pt x="333" y="741" on="0"/>
        <pt x="381" y="710" on="0"/>
        <pt x="394" y="694" on="1"/>
        <pt x="375" y="672" on="1"/>
        <pt x="358" y="692" on="0"/>
        <pt x="319" y="713" on="0"/>
        <pt x="296" y="713" on="1"/>
        <pt x="263" y="713" on="0"/>
        <pt x="204" y="669" on="0"/>
        <pt x="155" y="594" on="0"/>
        <pt x="116" y="494" on="0"/>
        <pt x="88" y="384" on="0"/>
        <pt x="74" y="270" on="0"/>
        <pt x="74" y="217" on="1"/>
        <pt x="74" y="118" on="0"/>
        <pt x="134" y="20" on="0"/>
        <pt x="185" y="20" on="1"/>
        <pt x="206" y="20" on="0"/>
        <pt x="247" y="37" on="0"/>
        <pt x="270" y="54" on="1"/>
        <pt x="283" y="30" on="1"/>
        <pt x="262" y="13" on="0"/>
        <pt x="212" y="-8" on="0"/>
        <pt x="183" y="-8" on="1"/>
        <pt x="173" y="-8" on="0"/>
        <pt x="168" y="-7" on="1"/>
        <pt x="152" y="-45" on="1"/>
        <pt x="184" y="-54" on="0"/>
        <pt x="213" y="-86" on="0"/>
      </contour>
    </TTGlyph>
    <TTGlyph name="Cdotaccent" xMin="43" yMin="-8" xMax="394" yMax="833">
      <component glyphName="C" x="0" y="0" flags="0x204"/>
      <component glyphName="dotaccent" x="57" y="293" flags="0x4"/>
    </TTGlyph>
    <TTGlyph name="D" xMin="19" yMin="-6" xMax="387" yMax="739">
      <contour>
        <pt x="75" y="-6" on="1"/>
        <pt x="58" y="-6" on="0"/>
        <pt x="27" y="1" on="0"/>
        <pt x="19" y="6" on="1"/>
        <pt x="147" y="731" on="1"/>
        <pt x="156" y="734" on="0"/>
        <pt x="186" y="739" on="0"/>
        <pt x="200" y="739" on="1"/>
        <pt x="239" y="739" on="0"/>
        <pt x="299" y="714" on="0"/>
        <pt x="322" y="691" on="1"/>
        <pt x="341" y="672" on="0"/>
        <pt x="366" y="624" on="0"/>
        <pt x="381" y="572" on="0"/>
        <pt x="387" y="517" on="0"/>
        <pt x="387" y="491" on="1"/>
        <pt x="387" y="434" on="0"/>
        <pt x="366" y="315" on="0"/>
        <pt x="327" y="205" on="0"/>
        <pt x="271" y="108" on="0"/>
        <pt x="202" y="36" on="0"/>
        <pt x="120" y="-6" on="0"/>
      </contour>
      <contour>
        <pt x="203" y="711" on="1"/>
        <pt x="198" y="711" on="0"/>
        <pt x="182" y="709" on="0"/>
        <pt x="173" y="707" on="1"/>
        <pt x="53" y="27" on="1"/>
        <pt x="61" y="23" on="0"/>
        <pt x="76" y="22" on="0"/>
        <pt x="78" y="22" on="1"/>
        <pt x="133" y="22" on="0"/>
        <pt x="235" y="104" on="0"/>
        <pt x="311" y="237" on="0"/>
        <pt x="357" y="406" on="0"/>
        <pt x="357" y="492" on="1"/>
        <pt x="357" y="546" on="0"/>
        <pt x="329" y="642" on="0"/>
        <pt x="300" y="671" on="1"/>
        <pt x="281" y="690" on="0"/>
        <pt x="235" y="711" on="0"/>
      </contour>
    </TTGlyph>
    <TTGlyph name="Dcaron" xMin="19" yMin="-6" xMax="387" yMax="861">
      <component glyphName="D" x="0" y="0" flags="0x204"/>
      <component glyphName="caron" x="6" y="287" flags="0x4"/>
    </TTGlyph>
    <TTGlyph name="Dcroat" xMin="19" yMin="-6" xMax="387" yMax="739">
      <component glyphName="Eth" x="0" y="0" flags="0x204"/>
    </TTGlyph>
    <TTGlyph name="E" xMin="19" yMin="0" xMax="364" yMax="733">
      <contour>
        <pt x="359" y="704" on="1"/>
        <pt x="172" y="704" on="1"/>
        <pt x="117" y="389" on="1"/>
        <pt x="290" y="389" on="1"/>
        <pt x="285" y="360" on="1"/>
        <pt x="112" y="360" on="1"/>
        <pt x="54" y="29" on="1"/>
        <pt x="240" y="29" on="1"/>
        <pt x="235" y="0" on="1"/>
        <pt x="19" y="0" on="1"/>
        <pt x="147" y="733" on="1"/>
        <pt x="364" y="733" on="1"/>
      </contour>
    </TTGlyph>
    <TTGlyph name="Eacute" xMin="19" yMin="0" xMax="370" yMax="877">
      <component glyphName="E" x="0" y="0" flags="0x204"/>
      <component glyphName="acute" x="57" y="287" flags="0x4"/>
    </TTGlyph>
    <TTGlyph name="Ebreve" xMin="19" yMin="0" xMax="364" yMax="865">
      <component glyphName="E" x="0" y="0" flags="0x204"/>
      <component glyphName="breve" x="16" y="287" flags="0x4"/>
    </TTGlyph>
    <TTGlyph name="Ecaron" xMin="19" yMin="0" xMax="364" yMax="861">
      <component glyphName="E" x="0" y="0" flags="0x204"/>
      <component glyphName="caron" x="12" y="287" flags="0x4"/>
    </TTGlyph>
    <TTGlyph name="Ecircumflex" xMin="19" yMin="0" xMax="364" yMax="861">
      <component glyphName="E" x="0" y="0" flags="0x204"/>
      <component glyphName="circumflex" x="14" y="287" flags="0x4"/>
    </TTGlyph>
    <TTGlyph name="Edieresis" xMin="19" yMin="0" xMax="364" yMax="827">
      <component glyphName="E" x="0" y="0" flags="0x204"/>
      <component glyphName="dieresis" x="14" y="287" flags="0x4"/>
    </TTGlyph>
    <TTGlyph name="Edotaccent" xMin="19" yMin="0" xMax="364" yMax="827">
      <component glyphName="E" x="0" y="0" flags="0x204"/>
      <component glyphName="dotaccent" x="15" y="287" flags="0x4"/>
    </TTGlyph>
    <TTGlyph name="Egrave" xMin="19" yMin="0" xMax="364" yMax="882">
      <component glyphName="E" x="0" y="0" flags="0x204"/>
      <component glyphName="grave" x="-14" y="287" flags="0x4"/>
    </TTGlyph>
    <TTGlyph name="Emacron" xMin="19" yMin="0" xMax="368" yMax="807">
      <component glyphName="E" x="0" y="0" flags="0x204"/>
      <component glyphName="macron" x="14" y="287" flags="0x4"/>
    </TTGlyph>
    <TTGlyph name="Eogonek" xMin="19" yMin="-187" xMax="364" yMax="733">
      <contour>
        <pt x="191" y="-171" on="1"/>
        <pt x="171" y="-187" on="0"/>
        <pt x="146" y="-187" on="1"/>
        <pt x="123" y="-187" on="0"/>
        <pt x="100" y="-156" on="0"/>
        <pt x="100" y="-134" on="1"/>
        <pt x="100" y="-92" on="0"/>
        <pt x="148" y="-28" on="0"/>
        <pt x="181" y="0" on="1"/>
        <pt x="19" y="0" on="1"/>
        <pt x="147" y="733" on="1"/>
        <pt x="364" y="733" on="1"/>
        <pt x="359" y="704" on="1"/>
        <pt x="172" y="704" on="1"/>
        <pt x="117" y="389" on="1"/>
        <pt x="290" y="389" on="1"/>
        <pt x="285" y="360" on="1"/>
        <pt x="112" y="360" on="1"/>
        <pt x="54" y="29" on="1"/>
        <pt x="240" y="29" on="1"/>
        <pt x="235" y="0" on="1"/>
        <pt x="215" y="0" on="1"/>
        <pt x="201" y="-11" on="0"/>
        <pt x="170" y="-39" on="0"/>
        <pt x="144" y="-71" on="0"/>
        <pt x="128" y="-108" on="0"/>
        <pt x="128" y="-129" on="1"/>
        <pt x="128" y="-143" on="0"/>
        <pt x="140" y="-161" on="0"/>
        <pt x="153" y="-161" on="1"/>
        <pt x="168" y="-161" on="0"/>
        <pt x="182" y="-149" on="1"/>
        <pt x="191" y="-171" on="1"/>
      </contour>
    </TTGlyph>
    <TTGlyph name="Eth" xMin="19" yMin="-6" xMax="387" yMax="739">
      <contour>
        <pt x="387" y="491" on="1"/>
        <pt x="387" y="434" on="0"/>
        <pt x="366" y="315" on="0"/>
        <pt x="327" y="205" on="0"/>
        <pt x="271" y="108" on="0"/>
        <pt x="202" y="36" on="0"/>
        <pt x="120" y="-6" on="0"/>
        <pt x="75" y="-6" on="1"/>
        <pt x="58" y="-6" on="0"/>
        <pt x="27" y="1" on="0"/>
        <pt x="19" y="6" on="1"/>
        <pt x="81" y="357" on="1"/>
        <pt x="45" y="357" on="1"/>
        <pt x="50" y="387" on="1"/>
        <pt x="86" y="387" on="1"/>
        <pt x="147" y="731" on="1"/>
        <pt x="156" y="734" on="0"/>
        <pt x="186" y="739" on="0"/>
        <pt x="200" y="739" on="1"/>
        <pt x="239" y="739" on="0"/>
        <pt x="299" y="714" on="0"/>
        <pt x="322" y="691" on="1"/>
        <pt x="341" y="672" on="0"/>
        <pt x="366" y="624" on="0"/>
        <pt x="381" y="572" on="0"/>
        <pt x="387" y="517" on="0"/>
      </contour>
      <contour>
        <pt x="357" y="492" on="1"/>
        <pt x="357" y="546" on="0"/>
        <pt x="329" y="642" on="0"/>
        <pt x="300" y="671" on="1"/>
        <pt x="281" y="690" on="0"/>
        <pt x="235" y="711" on="0"/>
        <pt x="203" y="711" on="1"/>
        <pt x="198" y="711" on="0"/>
        <pt x="182" y="709" on="0"/>
        <pt x="173" y="707" on="1"/>
        <pt x="116" y="387" on="1"/>
        <pt x="221" y="387" on="1"/>
        <pt x="216" y="357" on="1"/>
        <pt x="111" y="357" on="1"/>
        <pt x="53" y="27" on="1"/>
        <pt x="61" y="23" on="0"/>
        <pt x="76" y="22" on="0"/>
        <pt x="78" y="22" on="1"/>
        <pt x="133" y="22" on="0"/>
        <pt x="235" y="104" on="0"/>
        <pt x="311" y="237" on="0"/>
        <pt x="357" y="406" on="0"/>
      </contour>
    </TTGlyph>
    <TTGlyph name="Euro" xMin="26" yMin="-8" xMax="418" yMax="729">
      <contour>
        <pt x="74" y="286" on="1"/>
        <pt x="76" y="318" on="0"/>
        <pt x="86" y="385" on="0"/>
        <pt x="93" y="418" on="1"/>
        <pt x="54" y="418" on="1"/>
        <pt x="58" y="443" on="1"/>
        <pt x="98" y="443" on="1"/>
        <pt x="112" y="500" on="0"/>
        <pt x="154" y="604" on="0"/>
        <pt x="209" y="683" on="0"/>
        <pt x="279" y="729" on="0"/>
        <pt x="321" y="729" on="1"/>
        <pt x="355" y="729" on="0"/>
        <pt x="405" y="698" on="0"/>
        <pt x="418" y="682" on="1"/>
        <pt x="399" y="660" on="1"/>
        <pt x="363" y="701" on="0"/>
        <pt x="318" y="701" on="1"/>
        <pt x="284" y="701" on="0"/>
        <pt x="226" y="660" on="0"/>
        <pt x="179" y="589" on="0"/>
        <pt x="142" y="495" on="0"/>
        <pt x="130" y="443" on="1"/>
        <pt x="332" y="443" on="1"/>
        <pt x="328" y="418" on="1"/>
        <pt x="124" y="418" on="1"/>
        <pt x="117" y="385" on="0"/>
        <pt x="107" y="318" on="0"/>
        <pt x="105" y="286" on="1"/>
        <pt x="306" y="286" on="1"/>
        <pt x="301" y="261" on="1"/>
        <pt x="104" y="261" on="1"/>
        <pt x="103" y="250" on="0"/>
        <pt x="103" y="229" on="0"/>
        <pt x="103" y="219" on="1"/>
        <pt x="103" y="118" on="0"/>
        <pt x="165" y="20" on="0"/>
        <pt x="216" y="20" on="1"/>
        <pt x="234" y="20" on="0"/>
        <pt x="271" y="33" on="0"/>
        <pt x="293" y="50" on="1"/>
        <pt x="304" y="24" on="1"/>
        <pt x="287" y="11" on="0"/>
        <pt x="240" y="-8" on="0"/>
        <pt x="214" y="-8" on="1"/>
        <pt x="184" y="-8" on="0"/>
        <pt x="132" y="18" on="0"/>
        <pt x="94" y="73" on="0"/>
        <pt x="72" y="159" on="0"/>
        <pt x="72" y="219" on="1"/>
        <pt x="72" y="230" on="0"/>
        <pt x="72" y="250" on="0"/>
        <pt x="73" y="261" on="1"/>
        <pt x="26" y="261" on="1"/>
        <pt x="31" y="286" on="1"/>
      </contour>
    </TTGlyph>
    <TTGlyph name="Euro.lin" xMin="26" yMin="-8" xMax="418" yMax="729">
      <contour>
        <pt x="98" y="443" on="1"/>
        <pt x="112" y="500" on="0"/>
        <pt x="154" y="604" on="0"/>
        <pt x="209" y="683" on="0"/>
        <pt x="279" y="729" on="0"/>
        <pt x="321" y="729" on="1"/>
        <pt x="355" y="729" on="0"/>
        <pt x="405" y="698" on="0"/>
        <pt x="418" y="682" on="1"/>
        <pt x="399" y="660" on="1"/>
        <pt x="363" y="701" on="0"/>
        <pt x="318" y="701" on="1"/>
        <pt x="284" y="701" on="0"/>
        <pt x="226" y="660" on="0"/>
        <pt x="179" y="589" on="0"/>
        <pt x="142" y="495" on="0"/>
        <pt x="130" y="443" on="1"/>
        <pt x="332" y="443" on="1"/>
        <pt x="328" y="418" on="1"/>
        <pt x="124" y="418" on="1"/>
        <pt x="117" y="385" on="0"/>
        <pt x="107" y="318" on="0"/>
        <pt x="105" y="286" on="1"/>
        <pt x="306" y="286" on="1"/>
        <pt x="301" y="261" on="1"/>
        <pt x="104" y="261" on="1"/>
        <pt x="103" y="250" on="0"/>
        <pt x="103" y="229" on="0"/>
        <pt x="103" y="219" on="1"/>
        <pt x="103" y="118" on="0"/>
        <pt x="165" y="20" on="0"/>
        <pt x="216" y="20" on="1"/>
        <pt x="234" y="20" on="0"/>
        <pt x="271" y="33" on="0"/>
        <pt x="293" y="50" on="1"/>
        <pt x="304" y="24" on="1"/>
        <pt x="287" y="11" on="0"/>
        <pt x="240" y="-8" on="0"/>
        <pt x="214" y="-8" on="1"/>
        <pt x="184" y="-8" on="0"/>
        <pt x="132" y="18" on="0"/>
        <pt x="94" y="73" on="0"/>
        <pt x="72" y="159" on="0"/>
        <pt x="72" y="219" on="1"/>
        <pt x="72" y="230" on="0"/>
        <pt x="72" y="250" on="0"/>
        <pt x="73" y="261" on="1"/>
        <pt x="26" y="261" on="1"/>
        <pt x="31" y="286" on="1"/>
        <pt x="74" y="286" on="1"/>
        <pt x="76" y="318" on="0"/>
        <pt x="86" y="385" on="0"/>
        <pt x="93" y="418" on="1"/>
        <pt x="54" y="418" on="1"/>
        <pt x="58" y="443" on="1"/>
      </contour>
    </TTGlyph>
    <TTGlyph name="F" xMin="19" yMin="0" xMax="368" yMax="733">
      <contour>
        <pt x="363" y="704" on="1"/>
        <pt x="173" y="704" on="1"/>
        <pt x="118" y="393" on="1"/>
        <pt x="290" y="393" on="1"/>
        <pt x="285" y="364" on="1"/>
        <pt x="113" y="364" on="1"/>
        <pt x="49" y="0" on="1"/>
        <pt x="19" y="0" on="1"/>
        <pt x="147" y="733" on="1"/>
        <pt x="368" y="733" on="1"/>
      </contour>
    </TTGlyph>
    <TTGlyph name="G" xMin="43" yMin="-8" xMax="406" yMax="741">
      <contour>
        <pt x="286" y="31" on="1"/>
        <pt x="269" y="17" on="0"/>
        <pt x="226" y="-8" on="0"/>
        <pt x="191" y="-8" on="1"/>
        <pt x="125" y="-8" on="0"/>
        <pt x="43" y="112" on="0"/>
        <pt x="43" y="227" on="1"/>
        <pt x="43" y="283" on="0"/>
        <pt x="60" y="403" on="0"/>
        <pt x="92" y="517" on="0"/>
        <pt x="138" y="619" on="0"/>
        <pt x="198" y="696" on="0"/>
        <pt x="269" y="741" on="0"/>
        <pt x="310" y="741" on="1"/>
        <pt x="344" y="741" on="0"/>
        <pt x="390" y="713" on="0"/>
        <pt x="406" y="694" on="1"/>
        <pt x="387" y="672" on="1"/>
        <pt x="376" y="684" on="0"/>
        <pt x="338" y="713" on="0"/>
        <pt x="309" y="713" on="1"/>
        <pt x="273" y="713" on="0"/>
        <pt x="209" y="669" on="0"/>
        <pt x="157" y="594" on="0"/>
        <pt x="116" y="496" on="0"/>
        <pt x="89" y="387" on="0"/>
        <pt x="74" y="275" on="0"/>
        <pt x="74" y="225" on="1"/>
        <pt x="74" y="127" on="0"/>
        <pt x="140" y="19" on="0"/>
        <pt x="192" y="19" on="1"/>
        <pt x="215" y="19" on="0"/>
        <pt x="251" y="36" on="0"/>
        <pt x="258" y="43" on="1"/>
        <pt x="314" y="343" on="1"/>
        <pt x="209" y="343" on="1"/>
        <pt x="214" y="372" on="1"/>
        <pt x="349" y="372" on="1"/>
      </contour>
    </TTGlyph>
    <TTGlyph name="G.alt" xMin="43" yMin="-7" xMax="406" yMax="741">
      <contour>
        <pt x="360" y="372" on="1"/>
        <pt x="352" y="293" on="0"/>
        <pt x="324" y="155" on="0"/>
        <pt x="279" y="52" on="0"/>
        <pt x="215" y="-7" on="0"/>
        <pt x="171" y="-7" on="1"/>
        <pt x="137" y="-7" on="0"/>
        <pt x="88" y="32" on="0"/>
        <pt x="57" y="96" on="0"/>
        <pt x="43" y="181" on="0"/>
        <pt x="43" y="227" on="1"/>
        <pt x="43" y="283" on="0"/>
        <pt x="60" y="403" on="0"/>
        <pt x="92" y="517" on="0"/>
        <pt x="138" y="619" on="0"/>
        <pt x="198" y="696" on="0"/>
        <pt x="269" y="741" on="0"/>
        <pt x="310" y="741" on="1"/>
        <pt x="344" y="741" on="0"/>
        <pt x="390" y="711" on="0"/>
        <pt x="406" y="694" on="1"/>
        <pt x="387" y="672" on="1"/>
        <pt x="376" y="684" on="0"/>
        <pt x="338" y="713" on="0"/>
        <pt x="309" y="713" on="1"/>
        <pt x="273" y="713" on="0"/>
        <pt x="209" y="669" on="0"/>
        <pt x="157" y="594" on="0"/>
        <pt x="116" y="496" on="0"/>
        <pt x="89" y="387" on="0"/>
        <pt x="74" y="275" on="0"/>
        <pt x="74" y="225" on="1"/>
        <pt x="74" y="182" on="0"/>
        <pt x="86" y="107" on="0"/>
        <pt x="110" y="52" on="0"/>
        <pt x="148" y="20" on="0"/>
        <pt x="175" y="20" on="1"/>
        <pt x="205" y="20" on="0"/>
        <pt x="256" y="70" on="0"/>
        <pt x="294" y="158" on="0"/>
        <pt x="320" y="275" on="0"/>
        <pt x="326" y="343" on="1"/>
        <pt x="202" y="343" on="1"/>
        <pt x="207" y="372" on="1"/>
        <pt x="360" y="372" on="1"/>
      </contour>
    </TTGlyph>
    <TTGlyph name="Gbreve" xMin="43" yMin="-8" xMax="406" yMax="871">
      <component glyphName="G" x="0" y="0" flags="0x204"/>
      <component glyphName="breve" x="56" y="293" flags="0x4"/>
    </TTGlyph>
    <TTGlyph name="Gbreve.alt" xMin="43" yMin="-7" xMax="406" yMax="871">
      <component glyphName="G.alt" x="0" y="0" flags="0x204"/>
      <component glyphName="breve" x="56" y="293" flags="0x4"/>
    </TTGlyph>
    <TTGlyph name="Gcommaaccent" xMin="43" yMin="-194" xMax="406" yMax="741">
      <component glyphName="G" x="0" y="0" flags="0x204"/>
      <component glyphName="commaaccent" x="76" y="0" flags="0x4"/>
    </TTGlyph>
    <TTGlyph name="Gcommaaccent.alt" xMin="43" yMin="-194" xMax="406" yMax="741">
      <component glyphName="G.alt" x="0" y="0" flags="0x204"/>
      <component glyphName="commaaccent" x="71" y="0" flags="0x4"/>
    </TTGlyph>
    <TTGlyph name="Gdotaccent" xMin="43" yMin="-8" xMax="406" yMax="833">
      <component glyphName="G" x="0" y="0" flags="0x204"/>
      <component glyphName="dotaccent" x="55" y="293" flags="0x4"/>
    </TTGlyph>
    <TTGlyph name="Gdotaccent.alt" xMin="43" yMin="-7" xMax="406" yMax="833">
      <component glyphName="G.alt" x="0" y="0" flags="0x204"/>
      <component glyphName="dotaccent" x="55" y="293" flags="0x4"/>
    </TTGlyph>
    <TTGlyph name="H" xMin="18" yMin="0" xMax="422" yMax="733">
      <contour>
        <pt x="293" y="0" on="1"/>
        <pt x="262" y="0" on="1"/>
        <pt x="325" y="360" on="1"/>
        <pt x="112" y="360" on="1"/>
        <pt x="49" y="0" on="1"/>
        <pt x="18" y="0" on="1"/>
        <pt x="147" y="733" on="1"/>
        <pt x="178" y="733" on="1"/>
        <pt x="117" y="389" on="1"/>
        <pt x="330" y="389" on="1"/>
        <pt x="391" y="733" on="1"/>
        <pt x="422" y="733" on="1"/>
      </contour>
    </TTGlyph>
    <TTGlyph name="Hbar" xMin="18" yMin="0" xMax="447" yMax="733">
      <contour>
        <pt x="397" y="592" on="1"/>
        <pt x="447" y="592" on="1"/>
        <pt x="442" y="564" on="1"/>
        <pt x="392" y="564" on="1"/>
        <pt x="293" y="0" on="1"/>
        <pt x="262" y="0" on="1"/>
        <pt x="325" y="360" on="1"/>
        <pt x="112" y="360" on="1"/>
        <pt x="49" y="0" on="1"/>
        <pt x="18" y="0" on="1"/>
        <pt x="117" y="564" on="1"/>
        <pt x="67" y="564" on="1"/>
        <pt x="72" y="592" on="1"/>
        <pt x="122" y="592" on="1"/>
        <pt x="147" y="733" on="1"/>
        <pt x="178" y="733" on="1"/>
        <pt x="153" y="592" on="1"/>
        <pt x="366" y="592" on="1"/>
        <pt x="391" y="733" on="1"/>
        <pt x="422" y="733" on="1"/>
      </contour>
      <contour>
        <pt x="330" y="389" on="1"/>
        <pt x="361" y="564" on="1"/>
        <pt x="148" y="564" on="1"/>
        <pt x="117" y="389" on="1"/>
      </contour>
    </TTGlyph>
    <TTGlyph name="I" xMin="22" yMin="0" xMax="181" yMax="733">
      <contour>
        <pt x="52" y="0" on="1"/>
        <pt x="22" y="0" on="1"/>
        <pt x="150" y="733" on="1"/>
        <pt x="181" y="733" on="1"/>
      </contour>
    </TTGlyph>
    <TTGlyph name="Iacute" xMin="22" yMin="0" xMax="282" yMax="877">
      <component glyphName="I" x="0" y="0" flags="0x204"/>
      <component glyphName="acute" x="-31" y="287" flags="0x4"/>
    </TTGlyph>
    <TTGlyph name="Ibreve" xMin="22" yMin="0" xMax="273" yMax="865">
      <component glyphName="I" x="0" y="0" flags="0x204"/>
      <component glyphName="breve" x="-72" y="287" flags="0x4"/>
    </TTGlyph>
    <TTGlyph name="Icircumflex" xMin="22" yMin="0" xMax="258" yMax="861">
      <component glyphName="I" x="0" y="0" flags="0x204"/>
      <component glyphName="circumflex" x="-74" y="287" flags="0x4"/>
    </TTGlyph>
    <TTGlyph name="Idieresis" xMin="22" yMin="0" xMax="253" yMax="827">
      <component glyphName="I" x="0" y="0" flags="0x204"/>
      <component glyphName="dieresis" x="-74" y="287" flags="0x4"/>
    </TTGlyph>
    <TTGlyph name="Idotaccent" xMin="22" yMin="0" xMax="204" yMax="827">
      <component glyphName="I" x="0" y="0" flags="0x204"/>
      <component glyphName="dotaccent" x="-73" y="287" flags="0x4"/>
    </TTGlyph>
    <TTGlyph name="Igrave" xMin="22" yMin="0" xMax="211" yMax="882">
      <component glyphName="I" x="0" y="0" flags="0x204"/>
      <component glyphName="grave" x="-103" y="287" flags="0x4"/>
    </TTGlyph>
    <TTGlyph name="Imacron" xMin="22" yMin="0" xMax="280" yMax="807">
      <component glyphName="I" x="0" y="0" flags="0x204"/>
      <component glyphName="macron" x="-74" y="287" flags="0x4"/>
    </TTGlyph>
    <TTGlyph name="Iogonek" xMin="-53" yMin="-187" xMax="181" yMax="733">
      <contour>
        <pt x="52" y="0" on="1"/>
        <pt x="23" y="-30" on="0"/>
        <pt x="-25" y="-94" on="0"/>
        <pt x="-25" y="-129" on="1"/>
        <pt x="-25" y="-143" on="0"/>
        <pt x="-13" y="-161" on="0"/>
        <pt x="0" y="-161" on="1"/>
        <pt x="15" y="-161" on="0"/>
        <pt x="29" y="-149" on="1"/>
        <pt x="38" y="-171" on="1"/>
        <pt x="18" y="-187" on="0"/>
        <pt x="-7" y="-187" on="1"/>
        <pt x="-30" y="-187" on="0"/>
        <pt x="-53" y="-156" on="0"/>
        <pt x="-53" y="-134" on="1"/>
        <pt x="-53" y="-99" on="0"/>
        <pt x="-10" y="-33" on="0"/>
        <pt x="22" y="1" on="1"/>
        <pt x="150" y="733" on="1"/>
        <pt x="181" y="733" on="1"/>
      </contour>
    </TTGlyph>
    <TTGlyph name="J" xMin="-28" yMin="-11" xMax="302" yMax="733">
      <contour>
        <pt x="193" y="119" on="1"/>
        <pt x="182" y="59" on="0"/>
        <pt x="125" y="-11" on="0"/>
        <pt x="69" y="-11" on="1"/>
        <pt x="40" y="-11" on="0"/>
        <pt x="-10" y="13" on="0"/>
        <pt x="-28" y="32" on="1"/>
        <pt x="-12" y="54" on="1"/>
        <pt x="6" y="36" on="0"/>
        <pt x="47" y="16" on="0"/>
        <pt x="70" y="16" on="1"/>
        <pt x="95" y="16" on="0"/>
        <pt x="128" y="36" on="0"/>
        <pt x="149" y="68" on="0"/>
        <pt x="161" y="109" on="0"/>
        <pt x="165" y="130" on="1"/>
        <pt x="271" y="733" on="1"/>
        <pt x="302" y="733" on="1"/>
      </contour>
    </TTGlyph>
    <TTGlyph name="K" xMin="19" yMin="0" xMax="394" yMax="733">
      <contour>
        <pt x="141" y="372" on="1"/>
        <pt x="268" y="0" on="1"/>
        <pt x="234" y="0" on="1"/>
        <pt x="113" y="361" on="1"/>
        <pt x="49" y="0" on="1"/>
        <pt x="19" y="0" on="1"/>
        <pt x="147" y="733" on="1"/>
        <pt x="178" y="733" on="1"/>
        <pt x="117" y="386" on="1"/>
        <pt x="358" y="733" on="1"/>
        <pt x="394" y="733" on="1"/>
      </contour>
    </TTGlyph>
    <TTGlyph name="Kcommaaccent" xMin="19" yMin="-194" xMax="394" yMax="733">
      <component glyphName="K" x="0" y="0" flags="0x204"/>
      <component glyphName="commaaccent" x="46" y="0" flags="0x4"/>
    </TTGlyph>
    <TTGlyph name="L" xMin="19" yMin="0" xMax="243" yMax="733">
      <contour>
        <pt x="238" y="0" on="1"/>
        <pt x="19" y="0" on="1"/>
        <pt x="147" y="733" on="1"/>
        <pt x="178" y="733" on="1"/>
        <pt x="54" y="28" on="1"/>
        <pt x="243" y="28" on="1"/>
      </contour>
    </TTGlyph>
    <TTGlyph name="Lacute" xMin="19" yMin="0" xMax="289" yMax="873">
      <component glyphName="L" x="0" y="0" flags="0x204"/>
      <component glyphName="acute" x="-24" y="283" flags="0x4"/>
    </TTGlyph>
    <TTGlyph name="Lcaron" xMin="19" yMin="0" xMax="268" yMax="734">
      <component glyphName="L" x="0" y="0" flags="0x204"/>
      <component glyphName="caron.alt" x="118" y="-3" flags="0x4"/>
    </TTGlyph>
    <TTGlyph name="Lcommaaccent" xMin="19" yMin="-194" xMax="243" yMax="733">
      <component glyphName="L" x="0" y="0" flags="0x204"/>
      <component glyphName="commaaccent" x="32" y="0" flags="0x4"/>
    </TTGlyph>
    <TTGlyph name="Ldot" xMin="19" yMin="0" xMax="294" yMax="733">
      <component glyphName="L" x="0" y="0" flags="0x204"/>
      <component glyphName="dotaccent" x="17" y="-147" flags="0x4"/>
    </TTGlyph>
    <TTGlyph name="Lslash" xMin="26" yMin="0" xMax="260" yMax="733">
      <contour>
        <pt x="255" y="0" on="1"/>
        <pt x="29" y="0" on="1"/>
        <pt x="89" y="344" on="1"/>
        <pt x="26" y="318" on="1"/>
        <pt x="31" y="349" on="1"/>
        <pt x="95" y="376" on="1"/>
        <pt x="158" y="733" on="1"/>
        <pt x="189" y="733" on="1"/>
        <pt x="128" y="390" on="1"/>
        <pt x="234" y="434" on="1"/>
        <pt x="229" y="403" on="1"/>
        <pt x="123" y="358" on="1"/>
        <pt x="65" y="28" on="1"/>
        <pt x="260" y="28" on="1"/>
      </contour>
    </TTGlyph>
    <TTGlyph name="M" xMin="16" yMin="0" xMax="487" yMax="736">
      <contour>
        <pt x="381" y="0" on="1"/>
        <pt x="351" y="0" on="1"/>
        <pt x="443" y="614" on="1"/>
        <pt x="233" y="178" on="1"/>
        <pt x="225" y="178" on="1"/>
        <pt x="167" y="613" on="1"/>
        <pt x="45" y="0" on="1"/>
        <pt x="16" y="0" on="1"/>
        <pt x="164" y="734" on="1"/>
        <pt x="177" y="736" on="1"/>
        <pt x="241" y="251" on="1"/>
        <pt x="474" y="736" on="1"/>
        <pt x="487" y="734" on="1"/>
      </contour>
    </TTGlyph>
    <TTGlyph name="M.alt" xMin="16" yMin="0" xMax="487" yMax="736">
      <contour>
        <pt x="381" y="0" on="1"/>
        <pt x="351" y="0" on="1"/>
        <pt x="443" y="614" on="1"/>
        <pt x="233" y="178" on="1"/>
        <pt x="225" y="178" on="1"/>
        <pt x="167" y="613" on="1"/>
        <pt x="45" y="0" on="1"/>
        <pt x="16" y="0" on="1"/>
        <pt x="164" y="734" on="1"/>
        <pt x="177" y="736" on="1"/>
        <pt x="241" y="251" on="1"/>
        <pt x="474" y="736" on="1"/>
        <pt x="487" y="734" on="1"/>
      </contour>
    </TTGlyph>
    <TTGlyph name="N" xMin="19" yMin="-2" xMax="425" yMax="735">
      <contour>
        <pt x="296" y="0" on="1"/>
        <pt x="283" y="-2" on="1"/>
        <pt x="156" y="626" on="1"/>
        <pt x="48" y="0" on="1"/>
        <pt x="19" y="0" on="1"/>
        <pt x="148" y="733" on="1"/>
        <pt x="161" y="735" on="1"/>
        <pt x="288" y="107" on="1"/>
        <pt x="396" y="733" on="1"/>
        <pt x="425" y="733" on="1"/>
      </contour>
    </TTGlyph>
    <TTGlyph name="Nacute" xMin="19" yMin="-2" xMax="425" yMax="877">
      <component glyphName="N" x="0" y="0" flags="0x204"/>
      <component glyphName="acute" x="87" y="287" flags="0x4"/>
    </TTGlyph>
    <TTGlyph name="Ncaron" xMin="19" yMin="-2" xMax="425" yMax="861">
      <component glyphName="N" x="0" y="0" flags="0x204"/>
      <component glyphName="caron" x="42" y="287" flags="0x4"/>
    </TTGlyph>
    <TTGlyph name="Ncommaaccent" xMin="19" yMin="-194" xMax="425" yMax="735">
      <component glyphName="N" x="0" y="0" flags="0x204"/>
      <component glyphName="commaaccent" x="59" y="0" flags="0x4"/>
    </TTGlyph>
    <TTGlyph name="Ntilde" xMin="19" yMin="-2" xMax="425" yMax="831">
      <component glyphName="N" x="0" y="0" flags="0x204"/>
      <component glyphName="tilde" x="45" y="287" flags="0x4"/>
    </TTGlyph>
    <TTGlyph name="O" xMin="46" yMin="-8" xMax="396" yMax="741">
      <contour>
        <pt x="396" y="523" on="1"/>
        <pt x="396" y="465" on="0"/>
        <pt x="379" y="341" on="0"/>
        <pt x="349" y="223" on="0"/>
        <pt x="306" y="117" on="0"/>
        <pt x="253" y="38" on="0"/>
        <pt x="192" y="-8" on="0"/>
        <pt x="159" y="-8" on="1"/>
        <pt x="130" y="-8" on="0"/>
        <pt x="88" y="24" on="0"/>
        <pt x="60" y="81" on="0"/>
        <pt x="46" y="162" on="0"/>
        <pt x="46" y="210" on="1"/>
        <pt x="46" y="268" on="0"/>
        <pt x="63" y="392" on="0"/>
        <pt x="93" y="510" on="0"/>
        <pt x="136" y="616" on="0"/>
        <pt x="189" y="695" on="0"/>
        <pt x="250" y="741" on="0"/>
        <pt x="283" y="741" on="1"/>
        <pt x="312" y="741" on="0"/>
        <pt x="354" y="709" on="0"/>
        <pt x="382" y="652" on="0"/>
        <pt x="396" y="571" on="0"/>
      </contour>
      <contour>
        <pt x="366" y="523" on="1"/>
        <pt x="366" y="611" on="0"/>
        <pt x="323" y="713" on="0"/>
        <pt x="281" y="713" on="1"/>
        <pt x="244" y="713" on="0"/>
        <pt x="171" y="624" on="0"/>
        <pt x="112" y="481" on="0"/>
        <pt x="76" y="301" on="0"/>
        <pt x="76" y="210" on="1"/>
        <pt x="76" y="122" on="0"/>
        <pt x="119" y="20" on="0"/>
        <pt x="161" y="20" on="1"/>
        <pt x="198" y="20" on="0"/>
        <pt x="271" y="109" on="0"/>
        <pt x="329" y="252" on="0"/>
        <pt x="366" y="432" on="0"/>
      </contour>
    </TTGlyph>
    <TTGlyph name="OE" xMin="45" yMin="-6" xMax="600" yMax="739">
      <contour>
        <pt x="595" y="704" on="1"/>
        <pt x="408" y="704" on="1"/>
        <pt x="353" y="389" on="1"/>
        <pt x="526" y="389" on="1"/>
        <pt x="521" y="360" on="1"/>
        <pt x="348" y="360" on="1"/>
        <pt x="290" y="29" on="1"/>
        <pt x="476" y="29" on="1"/>
        <pt x="471" y="0" on="1"/>
        <pt x="279" y="0" on="1"/>
        <pt x="269" y="-2" on="0"/>
        <pt x="243" y="-6" on="0"/>
        <pt x="232" y="-6" on="1"/>
        <pt x="187" y="-6" on="0"/>
        <pt x="117" y="29" on="0"/>
        <pt x="69" y="94" on="0"/>
        <pt x="45" y="185" on="0"/>
        <pt x="45" y="242" on="1"/>
        <pt x="45" y="299" on="0"/>
        <pt x="66" y="418" on="0"/>
        <pt x="105" y="528" on="0"/>
        <pt x="161" y="625" on="0"/>
        <pt x="230" y="697" on="0"/>
        <pt x="311" y="739" on="0"/>
        <pt x="357" y="739" on="1"/>
        <pt x="368" y="739" on="0"/>
        <pt x="390" y="735" on="0"/>
        <pt x="398" y="733" on="1"/>
        <pt x="600" y="733" on="1"/>
      </contour>
      <contour>
        <pt x="229" y="22" on="1"/>
        <pt x="233" y="22" on="0"/>
        <pt x="251" y="23" on="0"/>
        <pt x="260" y="25" on="1"/>
        <pt x="378" y="707" on="1"/>
        <pt x="370" y="709" on="0"/>
        <pt x="356" y="711" on="0"/>
        <pt x="354" y="711" on="1"/>
        <pt x="298" y="711" on="0"/>
        <pt x="197" y="629" on="0"/>
        <pt x="121" y="496" on="0"/>
        <pt x="75" y="327" on="0"/>
        <pt x="75" y="241" on="1"/>
        <pt x="75" y="187" on="0"/>
        <pt x="103" y="91" on="0"/>
        <pt x="132" y="62" on="1"/>
        <pt x="151" y="43" on="0"/>
        <pt x="197" y="22" on="0"/>
      </contour>
    </TTGlyph>
    <TTGlyph name="Oacute" xMin="46" yMin="-8" xMax="403" yMax="883">
      <component glyphName="O" x="0" y="0" flags="0x204"/>
      <component glyphName="acute" x="90" y="293" flags="0x4"/>
    </TTGlyph>
    <TTGlyph name="Obreve" xMin="46" yMin="-8" xMax="396" yMax="871">
      <component glyphName="O" x="0" y="0" flags="0x204"/>
      <component glyphName="breve" x="49" y="293" flags="0x4"/>
    </TTGlyph>
    <TTGlyph name="Ocircumflex" xMin="46" yMin="-8" xMax="396" yMax="867">
      <component glyphName="O" x="0" y="0" flags="0x204"/>
      <component glyphName="circumflex" x="47" y="293" flags="0x4"/>
    </TTGlyph>
    <TTGlyph name="Odieresis" xMin="46" yMin="-8" xMax="396" yMax="833">
      <component glyphName="O" x="0" y="0" flags="0x204"/>
      <component glyphName="dieresis" x="47" y="293" flags="0x4"/>
    </TTGlyph>
    <TTGlyph name="Ograve" xMin="46" yMin="-8" xMax="396" yMax="888">
      <component glyphName="O" x="0" y="0" flags="0x204"/>
      <component glyphName="grave" x="18" y="293" flags="0x4"/>
    </TTGlyph>
    <TTGlyph name="Ohungarumlaut" xMin="46" yMin="-8" xMax="445" yMax="926">
      <component glyphName="O" x="0" y="0" flags="0x204"/>
      <component glyphName="hungarumlaut" x="73" y="293" flags="0x4"/>
    </TTGlyph>
    <TTGlyph name="Omacron" xMin="46" yMin="-8" xMax="401" yMax="813">
      <component glyphName="O" x="0" y="0" flags="0x204"/>
      <component glyphName="macron" x="47" y="293" flags="0x4"/>
    </TTGlyph>
    <TTGlyph name="Oslash" xMin="-37" yMin="-8" xMax="477" yMax="745">
      <contour>
        <pt x="396" y="523" on="1"/>
        <pt x="396" y="465" on="0"/>
        <pt x="379" y="341" on="0"/>
        <pt x="349" y="223" on="0"/>
        <pt x="306" y="117" on="0"/>
        <pt x="253" y="38" on="0"/>
        <pt x="192" y="-8" on="0"/>
        <pt x="159" y="-8" on="1"/>
        <pt x="119" y="-8" on="0"/>
        <pt x="69" y="49" on="0"/>
        <pt x="57" y="100" on="1"/>
        <pt x="-15" y="-8" on="1"/>
        <pt x="-37" y="5" on="1"/>
        <pt x="50" y="136" on="1"/>
        <pt x="48" y="153" on="0"/>
        <pt x="46" y="190" on="0"/>
        <pt x="46" y="210" on="1"/>
        <pt x="46" y="268" on="0"/>
        <pt x="63" y="392" on="0"/>
        <pt x="93" y="510" on="0"/>
        <pt x="136" y="616" on="0"/>
        <pt x="189" y="695" on="0"/>
        <pt x="250" y="741" on="0"/>
        <pt x="283" y="741" on="1"/>
        <pt x="321" y="741" on="0"/>
        <pt x="371" y="685" on="0"/>
        <pt x="384" y="637" on="1"/>
        <pt x="456" y="745" on="1"/>
        <pt x="477" y="731" on="1"/>
        <pt x="390" y="601" on="1"/>
        <pt x="396" y="565" on="0"/>
      </contour>
      <contour>
        <pt x="366" y="523" on="1"/>
        <pt x="366" y="534" on="0"/>
        <pt x="365" y="553" on="0"/>
        <pt x="364" y="562" on="1"/>
        <pt x="81" y="136" on="1"/>
        <pt x="89" y="81" on="0"/>
        <pt x="129" y="20" on="0"/>
        <pt x="161" y="20" on="1"/>
        <pt x="198" y="20" on="0"/>
        <pt x="271" y="109" on="0"/>
        <pt x="329" y="252" on="0"/>
        <pt x="366" y="432" on="0"/>
      </contour>
      <contour>
        <pt x="76" y="210" on="1"/>
        <pt x="76" y="201" on="0"/>
        <pt x="76" y="184" on="0"/>
        <pt x="77" y="176" on="1"/>
        <pt x="360" y="601" on="1"/>
        <pt x="352" y="654" on="0"/>
        <pt x="313" y="713" on="0"/>
        <pt x="281" y="713" on="1"/>
        <pt x="244" y="713" on="0"/>
        <pt x="171" y="624" on="0"/>
        <pt x="112" y="481" on="0"/>
        <pt x="76" y="301" on="0"/>
      </contour>
    </TTGlyph>
    <TTGlyph name="Oslashacute" xMin="-37" yMin="-8" xMax="477" yMax="883">
      <component glyphName="Oslash" x="0" y="0" flags="0x204"/>
      <component glyphName="acute" x="89" y="293" flags="0x4"/>
    </TTGlyph>
    <TTGlyph name="Otilde" xMin="46" yMin="-8" xMax="396" yMax="837">
      <component glyphName="O" x="0" y="0" flags="0x204"/>
      <component glyphName="tilde" x="48" y="293" flags="0x4"/>
    </TTGlyph>
    <TTGlyph name="P" xMin="18" yMin="0" xMax="363" yMax="739">
      <contour>
        <pt x="363" y="557" on="1"/>
        <pt x="363" y="495" on="0"/>
        <pt x="326" y="389" on="0"/>
        <pt x="264" y="311" on="0"/>
        <pt x="182" y="266" on="0"/>
        <pt x="137" y="266" on="1"/>
        <pt x="123" y="266" on="0"/>
        <pt x="106" y="268" on="0"/>
        <pt x="97" y="270" on="1"/>
        <pt x="49" y="0" on="1"/>
        <pt x="18" y="0" on="1"/>
        <pt x="147" y="732" on="1"/>
        <pt x="161" y="735" on="0"/>
        <pt x="190" y="739" on="0"/>
        <pt x="202" y="739" on="1"/>
        <pt x="280" y="739" on="0"/>
        <pt x="363" y="638" on="0"/>
      </contour>
      <contour>
        <pt x="332" y="555" on="1"/>
        <pt x="332" y="589" on="0"/>
        <pt x="317" y="646" on="0"/>
        <pt x="285" y="688" on="0"/>
        <pt x="236" y="711" on="0"/>
        <pt x="203" y="711" on="1"/>
        <pt x="189" y="711" on="0"/>
        <pt x="174" y="708" on="1"/>
        <pt x="102" y="298" on="1"/>
        <pt x="113" y="296" on="0"/>
        <pt x="126" y="294" on="0"/>
        <pt x="137" y="294" on="1"/>
        <pt x="177" y="294" on="0"/>
        <pt x="249" y="335" on="0"/>
        <pt x="301" y="406" on="0"/>
        <pt x="332" y="501" on="0"/>
      </contour>
    </TTGlyph>
    <TTGlyph name="Q" xMin="46" yMin="-13" xMax="396" yMax="741">
      <contour>
        <pt x="396" y="523" on="1"/>
        <pt x="396" y="470" on="0"/>
        <pt x="382" y="356" on="0"/>
        <pt x="355" y="245" on="0"/>
        <pt x="317" y="143" on="0"/>
        <pt x="294" y="102" on="1"/>
        <pt x="344" y="4" on="1"/>
        <pt x="322" y="-13" on="1"/>
        <pt x="277" y="75" on="1"/>
        <pt x="251" y="37" on="0"/>
        <pt x="191" y="-8" on="0"/>
        <pt x="159" y="-8" on="1"/>
        <pt x="130" y="-8" on="0"/>
        <pt x="88" y="24" on="0"/>
        <pt x="60" y="81" on="0"/>
        <pt x="46" y="162" on="0"/>
        <pt x="46" y="210" on="1"/>
        <pt x="46" y="268" on="0"/>
        <pt x="63" y="392" on="0"/>
        <pt x="93" y="510" on="0"/>
        <pt x="136" y="616" on="0"/>
        <pt x="189" y="695" on="0"/>
        <pt x="250" y="741" on="0"/>
        <pt x="283" y="741" on="1"/>
        <pt x="312" y="741" on="0"/>
        <pt x="354" y="709" on="0"/>
        <pt x="382" y="652" on="0"/>
        <pt x="396" y="571" on="0"/>
      </contour>
      <contour>
        <pt x="366" y="523" on="1"/>
        <pt x="366" y="611" on="0"/>
        <pt x="323" y="713" on="0"/>
        <pt x="281" y="713" on="1"/>
        <pt x="244" y="713" on="0"/>
        <pt x="171" y="624" on="0"/>
        <pt x="112" y="481" on="0"/>
        <pt x="76" y="301" on="0"/>
        <pt x="76" y="210" on="1"/>
        <pt x="76" y="122" on="0"/>
        <pt x="119" y="20" on="0"/>
        <pt x="161" y="20" on="1"/>
        <pt x="187" y="20" on="0"/>
        <pt x="239" y="65" on="0"/>
        <pt x="263" y="104" on="1"/>
        <pt x="190" y="250" on="1"/>
        <pt x="212" y="267" on="1"/>
        <pt x="279" y="132" on="1"/>
        <pt x="298" y="168" on="0"/>
        <pt x="330" y="259" on="0"/>
        <pt x="353" y="360" on="0"/>
        <pt x="366" y="468" on="0"/>
      </contour>
    </TTGlyph>
    <TTGlyph name="R" xMin="18" yMin="0" xMax="375" yMax="739">
      <contour>
        <pt x="375" y="562" on="1"/>
        <pt x="375" y="520" on="0"/>
        <pt x="351" y="445" on="0"/>
        <pt x="309" y="383" on="0"/>
        <pt x="252" y="338" on="0"/>
        <pt x="218" y="325" on="1"/>
        <pt x="291" y="0" on="1"/>
        <pt x="258" y="0" on="1"/>
        <pt x="187" y="316" on="1"/>
        <pt x="168" y="312" on="0"/>
        <pt x="143" y="312" on="1"/>
        <pt x="123" y="312" on="0"/>
        <pt x="105" y="315" on="1"/>
        <pt x="49" y="0" on="1"/>
        <pt x="18" y="0" on="1"/>
        <pt x="147" y="732" on="1"/>
        <pt x="160" y="735" on="0"/>
        <pt x="191" y="739" on="0"/>
        <pt x="205" y="739" on="1"/>
        <pt x="286" y="739" on="0"/>
        <pt x="375" y="643" on="0"/>
      </contour>
      <contour>
        <pt x="343" y="559" on="1"/>
        <pt x="343" y="631" on="0"/>
        <pt x="271" y="711" on="0"/>
        <pt x="202" y="711" on="1"/>
        <pt x="190" y="711" on="0"/>
        <pt x="182" y="710" on="0"/>
        <pt x="174" y="709" on="1"/>
        <pt x="110" y="343" on="1"/>
        <pt x="118" y="341" on="0"/>
        <pt x="134" y="340" on="0"/>
        <pt x="147" y="340" on="1"/>
        <pt x="192" y="340" on="0"/>
        <pt x="264" y="377" on="0"/>
        <pt x="315" y="439" on="0"/>
        <pt x="343" y="518" on="0"/>
      </contour>
    </TTGlyph>
    <TTGlyph name="Racute" xMin="18" yMin="0" xMax="377" yMax="877">
      <component glyphName="R" x="0" y="0" flags="0x204"/>
      <component glyphName="acute" x="64" y="287" flags="0x4"/>
    </TTGlyph>
    <TTGlyph name="Rcaron" xMin="18" yMin="0" xMax="375" yMax="861">
      <component glyphName="R" x="0" y="0" flags="0x204"/>
      <component glyphName="caron" x="18" y="287" flags="0x4"/>
    </TTGlyph>
    <TTGlyph name="Rcommaaccent" xMin="18" yMin="-194" xMax="375" yMax="739">
      <component glyphName="R" x="0" y="0" flags="0x204"/>
      <component glyphName="commaaccent" x="36" y="0" flags="0x4"/>
    </TTGlyph>
    <TTGlyph name="S" xMin="-18" yMin="-8" xMax="361" yMax="741">
      <contour>
        <pt x="340" y="646" on="1"/>
        <pt x="325" y="672" on="0"/>
        <pt x="273" y="713" on="0"/>
        <pt x="236" y="713" on="1"/>
        <pt x="216" y="713" on="0"/>
        <pt x="177" y="697" on="0"/>
        <pt x="147" y="664" on="0"/>
        <pt x="129" y="616" on="0"/>
        <pt x="129" y="585" on="1"/>
        <pt x="129" y="537" on="0"/>
        <pt x="169" y="450" on="0"/>
        <pt x="197" y="404" on="1"/>
        <pt x="213" y="378" on="0"/>
        <pt x="244" y="323" on="0"/>
        <pt x="268" y="266" on="0"/>
        <pt x="282" y="208" on="0"/>
        <pt x="282" y="179" on="1"/>
        <pt x="282" y="137" on="0"/>
        <pt x="259" y="69" on="0"/>
        <pt x="218" y="19" on="0"/>
        <pt x="161" y="-8" on="0"/>
        <pt x="127" y="-8" on="1"/>
        <pt x="99" y="-8" on="0"/>
        <pt x="53" y="11" on="0"/>
        <pt x="17" y="42" on="0"/>
        <pt x="-10" y="80" on="0"/>
        <pt x="-18" y="98" on="1"/>
        <pt x="4" y="118" on="1"/>
        <pt x="24" y="73" on="0"/>
        <pt x="88" y="20" on="0"/>
        <pt x="128" y="20" on="1"/>
        <pt x="156" y="20" on="0"/>
        <pt x="202" y="44" on="0"/>
        <pt x="233" y="86" on="0"/>
        <pt x="250" y="143" on="0"/>
        <pt x="250" y="176" on="1"/>
        <pt x="250" y="204" on="0"/>
        <pt x="235" y="261" on="0"/>
        <pt x="212" y="315" on="0"/>
        <pt x="182" y="367" on="0"/>
        <pt x="167" y="392" on="1"/>
        <pt x="138" y="441" on="0"/>
        <pt x="97" y="530" on="0"/>
        <pt x="97" y="584" on="1"/>
        <pt x="97" y="619" on="0"/>
        <pt x="119" y="677" on="0"/>
        <pt x="157" y="718" on="0"/>
        <pt x="209" y="741" on="0"/>
        <pt x="239" y="741" on="1"/>
        <pt x="282" y="741" on="0"/>
        <pt x="346" y="694" on="0"/>
        <pt x="361" y="667" on="1"/>
      </contour>
    </TTGlyph>
    <TTGlyph name="Sacute" xMin="-18" yMin="-8" xMax="371" yMax="883">
      <component glyphName="S" x="0" y="0" flags="0x204"/>
      <component glyphName="acute" x="58" y="293" flags="0x4"/>
    </TTGlyph>
    <TTGlyph name="Scaron" xMin="-18" yMin="-8" xMax="361" yMax="867">
      <component glyphName="S" x="0" y="0" flags="0x204"/>
      <component glyphName="caron" x="13" y="293" flags="0x4"/>
    </TTGlyph>
    <TTGlyph name="Scedilla" xMin="-18" yMin="-169" xMax="361" yMax="741">
      <contour>
        <pt x="184" y="-107" on="1"/>
        <pt x="184" y="-132" on="0"/>
        <pt x="143" y="-169" on="0"/>
        <pt x="111" y="-169" on="1"/>
        <pt x="91" y="-169" on="0"/>
        <pt x="55" y="-155" on="0"/>
        <pt x="41" y="-145" on="1"/>
        <pt x="55" y="-122" on="1"/>
        <pt x="66" y="-130" on="0"/>
        <pt x="96" y="-143" on="0"/>
        <pt x="113" y="-143" on="1"/>
        <pt x="132" y="-143" on="0"/>
        <pt x="155" y="-122" on="0"/>
        <pt x="155" y="-107" on="1"/>
        <pt x="155" y="-73" on="0"/>
        <pt x="89" y="-64" on="1"/>
        <pt x="88" y="-60" on="1"/>
        <pt x="111" y="-7" on="1"/>
        <pt x="86" y="-4" on="0"/>
        <pt x="45" y="16" on="0"/>
        <pt x="13" y="46" on="0"/>
        <pt x="-11" y="81" on="0"/>
        <pt x="-18" y="98" on="1"/>
        <pt x="4" y="118" on="1"/>
        <pt x="24" y="73" on="0"/>
        <pt x="88" y="20" on="0"/>
        <pt x="128" y="20" on="1"/>
        <pt x="156" y="20" on="0"/>
        <pt x="202" y="44" on="0"/>
        <pt x="233" y="86" on="0"/>
        <pt x="250" y="143" on="0"/>
        <pt x="250" y="176" on="1"/>
        <pt x="250" y="204" on="0"/>
        <pt x="235" y="261" on="0"/>
        <pt x="212" y="315" on="0"/>
        <pt x="182" y="367" on="0"/>
        <pt x="167" y="392" on="1"/>
        <pt x="138" y="441" on="0"/>
        <pt x="97" y="530" on="0"/>
        <pt x="97" y="584" on="1"/>
        <pt x="97" y="619" on="0"/>
        <pt x="119" y="677" on="0"/>
        <pt x="157" y="718" on="0"/>
        <pt x="209" y="741" on="0"/>
        <pt x="239" y="741" on="1"/>
        <pt x="282" y="741" on="0"/>
        <pt x="346" y="694" on="0"/>
        <pt x="361" y="667" on="1"/>
        <pt x="340" y="646" on="1"/>
        <pt x="325" y="672" on="0"/>
        <pt x="273" y="713" on="0"/>
        <pt x="236" y="713" on="1"/>
        <pt x="216" y="713" on="0"/>
        <pt x="177" y="697" on="0"/>
        <pt x="147" y="664" on="0"/>
        <pt x="129" y="616" on="0"/>
        <pt x="129" y="585" on="1"/>
        <pt x="129" y="537" on="0"/>
        <pt x="169" y="450" on="0"/>
        <pt x="197" y="404" on="1"/>
        <pt x="213" y="378" on="0"/>
        <pt x="244" y="323" on="0"/>
        <pt x="268" y="266" on="0"/>
        <pt x="282" y="208" on="0"/>
        <pt x="282" y="179" on="1"/>
        <pt x="282" y="99" on="0"/>
        <pt x="202" y="-2" on="0"/>
        <pt x="139" y="-7" on="1"/>
        <pt x="123" y="-45" on="1"/>
        <pt x="155" y="-54" on="0"/>
        <pt x="184" y="-86" on="0"/>
      </contour>
    </TTGlyph>
    <TTGlyph name="Scommaaccent" xMin="-18" yMin="-194" xMax="361" yMax="741">
      <component glyphName="S" x="0" y="0" flags="0x204"/>
      <component glyphName="commaaccent" x="29" y="0" flags="0x4"/>
    </TTGlyph>
    <TTGlyph name="T" xMin="87" yMin="0" xMax="362" yMax="733">
      <contour>
        <pt x="357" y="704" on="1"/>
        <pt x="242" y="704" on="1"/>
        <pt x="118" y="0" on="1"/>
        <pt x="87" y="0" on="1"/>
        <pt x="211" y="704" on="1"/>
        <pt x="96" y="704" on="1"/>
        <pt x="101" y="733" on="1"/>
        <pt x="362" y="733" on="1"/>
      </contour>
    </TTGlyph>
    <TTGlyph name="Tcaron" xMin="87" yMin="0" xMax="362" yMax="861">
      <component glyphName="T" x="0" y="0" flags="0x204"/>
      <component glyphName="caron" x="-8" y="287" flags="0x4"/>
    </TTGlyph>
    <TTGlyph name="Tcommaaccent" xMin="34" yMin="-194" xMax="362" yMax="733">
      <component glyphName="T" x="0" y="0" flags="0x204"/>
      <component glyphName="commaaccent" x="8" y="0" flags="0x4"/>
    </TTGlyph>
    <TTGlyph name="Thorn" xMin="18" yMin="0" xMax="342" yMax="733">
      <contour>
        <pt x="146" y="733" on="1"/>
        <pt x="177" y="733" on="1"/>
        <pt x="158" y="626" on="1"/>
        <pt x="166" y="627" on="0"/>
        <pt x="177" y="628" on="0"/>
        <pt x="181" y="628" on="1"/>
        <pt x="259" y="628" on="0"/>
        <pt x="342" y="527" on="0"/>
        <pt x="342" y="446" on="1"/>
        <pt x="342" y="384" on="0"/>
        <pt x="305" y="278" on="0"/>
        <pt x="243" y="200" on="0"/>
        <pt x="161" y="155" on="0"/>
        <pt x="116" y="155" on="1"/>
        <pt x="102" y="155" on="0"/>
        <pt x="85" y="157" on="0"/>
        <pt x="76" y="159" on="1"/>
        <pt x="48" y="0" on="1"/>
        <pt x="18" y="0" on="1"/>
      </contour>
      <contour>
        <pt x="311" y="444" on="1"/>
        <pt x="311" y="478" on="0"/>
        <pt x="296" y="535" on="0"/>
        <pt x="264" y="577" on="0"/>
        <pt x="215" y="600" on="0"/>
        <pt x="182" y="600" on="1"/>
        <pt x="168" y="600" on="0"/>
        <pt x="153" y="597" on="1"/>
        <pt x="81" y="187" on="1"/>
        <pt x="92" y="185" on="0"/>
        <pt x="105" y="183" on="0"/>
        <pt x="116" y="183" on="1"/>
        <pt x="156" y="183" on="0"/>
        <pt x="228" y="224" on="0"/>
        <pt x="280" y="295" on="0"/>
        <pt x="311" y="390" on="0"/>
      </contour>
    </TTGlyph>
    <TTGlyph name="U" xMin="42" yMin="-7" xMax="418" yMax="733">
      <contour>
        <pt x="318" y="165" on="1"/>
        <pt x="313" y="134" on="0"/>
        <pt x="292" y="73" on="0"/>
        <pt x="256" y="24" on="0"/>
        <pt x="200" y="-7" on="0"/>
        <pt x="159" y="-7" on="1"/>
        <pt x="107" y="-7" on="0"/>
        <pt x="42" y="54" on="0"/>
        <pt x="42" y="108" on="1"/>
        <pt x="42" y="123" on="0"/>
        <pt x="46" y="167" on="0"/>
        <pt x="51" y="193" on="1"/>
        <pt x="146" y="733" on="1"/>
        <pt x="177" y="733" on="1"/>
        <pt x="79" y="177" on="1"/>
        <pt x="77" y="162" on="0"/>
        <pt x="72" y="131" on="0"/>
        <pt x="72" y="109" on="1"/>
        <pt x="72" y="66" on="0"/>
        <pt x="121" y="20" on="0"/>
        <pt x="162" y="20" on="1"/>
        <pt x="216" y="20" on="0"/>
        <pt x="275" y="97" on="0"/>
        <pt x="288" y="172" on="1"/>
        <pt x="387" y="733" on="1"/>
        <pt x="418" y="733" on="1"/>
      </contour>
    </TTGlyph>
    <TTGlyph name="Uacute" xMin="42" yMin="-7" xMax="418" yMax="877">
      <component glyphName="U" x="0" y="0" flags="0x204"/>
      <component glyphName="acute" x="79" y="287" flags="0x4"/>
    </TTGlyph>
    <TTGlyph name="Ubreve" xMin="42" yMin="-7" xMax="418" yMax="865">
      <component glyphName="U" x="0" y="0" flags="0x204"/>
      <component glyphName="breve" x="38" y="287" flags="0x4"/>
    </TTGlyph>
    <TTGlyph name="Ucircumflex" xMin="42" yMin="-7" xMax="418" yMax="861">
      <component glyphName="U" x="0" y="0" flags="0x204"/>
      <component glyphName="circumflex" x="35" y="287" flags="0x4"/>
    </TTGlyph>
    <TTGlyph name="Udieresis" xMin="42" yMin="-7" xMax="418" yMax="827">
      <component glyphName="U" x="0" y="0" flags="0x204"/>
      <component glyphName="dieresis" x="35" y="287" flags="0x4"/>
    </TTGlyph>
    <TTGlyph name="Ugrave" xMin="42" yMin="-7" xMax="418" yMax="882">
      <component glyphName="U" x="0" y="0" flags="0x204"/>
      <component glyphName="grave" x="6" y="287" flags="0x4"/>
    </TTGlyph>
    <TTGlyph name="Uhungarumlaut" xMin="42" yMin="-7" xMax="434" yMax="920">
      <component glyphName="U" x="0" y="0" flags="0x204"/>
      <component glyphName="hungarumlaut" x="62" y="287" flags="0x4"/>
    </TTGlyph>
    <TTGlyph name="Umacron" xMin="42" yMin="-7" xMax="418" yMax="807">
      <component glyphName="U" x="0" y="0" flags="0x204"/>
      <component glyphName="macron" x="36" y="287" flags="0x4"/>
    </TTGlyph>
    <TTGlyph name="Uogonek" xMin="42" yMin="-187" xMax="418" yMax="733">
      <contour>
        <pt x="318" y="165" on="1"/>
        <pt x="313" y="136" on="0"/>
        <pt x="295" y="78" on="0"/>
        <pt x="262" y="30" on="0"/>
        <pt x="213" y="-2" on="0"/>
        <pt x="178" y="-6" on="1"/>
        <pt x="164" y="-17" on="0"/>
        <pt x="136" y="-43" on="0"/>
        <pt x="113" y="-74" on="0"/>
        <pt x="99" y="-110" on="0"/>
        <pt x="99" y="-129" on="1"/>
        <pt x="99" y="-143" on="0"/>
        <pt x="111" y="-161" on="0"/>
        <pt x="124" y="-161" on="1"/>
        <pt x="139" y="-161" on="0"/>
        <pt x="153" y="-149" on="1"/>
        <pt x="162" y="-171" on="1"/>
        <pt x="142" y="-187" on="0"/>
        <pt x="117" y="-187" on="1"/>
        <pt x="94" y="-187" on="0"/>
        <pt x="71" y="-156" on="0"/>
        <pt x="71" y="-134" on="1"/>
        <pt x="71" y="-95" on="0"/>
        <pt x="113" y="-33" on="0"/>
        <pt x="144" y="-6" on="1"/>
        <pt x="98" y="-1" on="0"/>
        <pt x="42" y="58" on="0"/>
        <pt x="42" y="108" on="1"/>
        <pt x="42" y="123" on="0"/>
        <pt x="46" y="167" on="0"/>
        <pt x="51" y="193" on="1"/>
        <pt x="146" y="733" on="1"/>
        <pt x="177" y="733" on="1"/>
        <pt x="79" y="177" on="1"/>
        <pt x="77" y="162" on="0"/>
        <pt x="72" y="131" on="0"/>
        <pt x="72" y="109" on="1"/>
        <pt x="72" y="66" on="0"/>
        <pt x="121" y="20" on="0"/>
        <pt x="162" y="20" on="1"/>
        <pt x="216" y="20" on="0"/>
        <pt x="275" y="97" on="0"/>
        <pt x="288" y="172" on="1"/>
        <pt x="387" y="733" on="1"/>
        <pt x="418" y="733" on="1"/>
      </contour>
    </TTGlyph>
    <TTGlyph name="Uring" xMin="42" yMin="-7" xMax="418" yMax="905">
      <component glyphName="U" x="0" y="0" flags="0x204"/>
      <component glyphName="ring" x="37" y="287" flags="0x4"/>
    </TTGlyph>
    <TTGlyph name="V" xMin="113" yMin="-10" xMax="429" yMax="733">
      <contour>
        <pt x="148" y="-10" on="1"/>
        <pt x="134" y="-10" on="1"/>
        <pt x="113" y="733" on="1"/>
        <pt x="144" y="733" on="1"/>
        <pt x="157" y="84" on="1"/>
        <pt x="396" y="733" on="1"/>
        <pt x="429" y="733" on="1"/>
      </contour>
    </TTGlyph>
    <TTGlyph name="W" xMin="104" yMin="-6" xMax="602" yMax="733">
      <contour>
        <pt x="365" y="-6" on="1"/>
        <pt x="350" y="-6" on="1"/>
        <pt x="344" y="626" on="1"/>
        <pt x="119" y="-6" on="1"/>
        <pt x="104" y="-6" on="1"/>
        <pt x="123" y="733" on="1"/>
        <pt x="154" y="733" on="1"/>
        <pt x="132" y="103" on="1"/>
        <pt x="356" y="733" on="1"/>
        <pt x="370" y="733" on="1"/>
        <pt x="373" y="102" on="1"/>
        <pt x="569" y="733" on="1"/>
        <pt x="602" y="733" on="1"/>
      </contour>
    </TTGlyph>
    <TTGlyph name="Wacute" xMin="104" yMin="-6" xMax="602" yMax="877">
      <component glyphName="W" x="0" y="0" flags="0x204"/>
      <component glyphName="acute" x="166" y="287" flags="0x4"/>
    </TTGlyph>
    <TTGlyph name="Wcircumflex" xMin="104" yMin="-6" xMax="602" yMax="861">
      <component glyphName="W" x="0" y="0" flags="0x204"/>
      <component glyphName="circumflex" x="122" y="287" flags="0x4"/>
    </TTGlyph>
    <TTGlyph name="Wdieresis" xMin="104" yMin="-6" xMax="602" yMax="827">
      <component glyphName="W" x="0" y="0" flags="0x204"/>
      <component glyphName="dieresis" x="122" y="287" flags="0x4"/>
    </TTGlyph>
    <TTGlyph name="Wgrave" xMin="104" yMin="-6" xMax="602" yMax="882">
      <component glyphName="W" x="0" y="0" flags="0x204"/>
      <component glyphName="grave" x="93" y="287" flags="0x4"/>
    </TTGlyph>
    <TTGlyph name="X" xMin="-17" yMin="0" xMax="398" yMax="733">
      <contour>
        <pt x="215" y="375" on="1"/>
        <pt x="282" y="0" on="1"/>
        <pt x="252" y="0" on="1"/>
        <pt x="190" y="344" on="1"/>
        <pt x="16" y="0" on="1"/>
        <pt x="-17" y="0" on="1"/>
        <pt x="180" y="379" on="1"/>
        <pt x="116" y="733" on="1"/>
        <pt x="146" y="733" on="1"/>
        <pt x="204" y="410" on="1"/>
        <pt x="364" y="733" on="1"/>
        <pt x="398" y="733" on="1"/>
      </contour>
    </TTGlyph>
    <TTGlyph name="Y" xMin="102" yMin="0" xMax="401" yMax="733">
      <contour>
        <pt x="193" y="310" on="1"/>
        <pt x="138" y="0" on="1"/>
        <pt x="107" y="0" on="1"/>
        <pt x="162" y="308" on="1"/>
        <pt x="102" y="733" on="1"/>
        <pt x="133" y="733" on="1"/>
        <pt x="184" y="351" on="1"/>
        <pt x="366" y="733" on="1"/>
        <pt x="401" y="733" on="1"/>
      </contour>
    </TTGlyph>
    <TTGlyph name="Yacute" xMin="102" yMin="0" xMax="401" yMax="877">
      <component glyphName="Y" x="0" y="0" flags="0x204"/>
      <component glyphName="acute" x="56" y="287" flags="0x4"/>
    </TTGlyph>
    <TTGlyph name="Ycircumflex" xMin="102" yMin="0" xMax="401" yMax="861">
      <component glyphName="Y" x="0" y="0" flags="0x204"/>
      <component glyphName="circumflex" x="13" y="287" flags="0x4"/>
    </TTGlyph>
    <TTGlyph name="Ydieresis" xMin="102" yMin="0" xMax="401" yMax="827">
      <component glyphName="Y" x="0" y="0" flags="0x204"/>
      <component glyphName="dieresis" x="13" y="287" flags="0x4"/>
    </TTGlyph>
    <TTGlyph name="Ygrave" xMin="102" yMin="0" xMax="401" yMax="882">
      <component glyphName="Y" x="0" y="0" flags="0x204"/>
      <component glyphName="grave" x="-15" y="287" flags="0x4"/>
    </TTGlyph>
    <TTGlyph name="Z" xMin="-15" yMin="0" xMax="385" yMax="733">
      <contour>
        <pt x="29" y="29" on="1"/>
        <pt x="261" y="29" on="1"/>
        <pt x="256" y="0" on="1"/>
        <pt x="-14" y="0" on="1"/>
        <pt x="-15" y="5" on="1"/>
        <pt x="339" y="704" on="1"/>
        <pt x="119" y="704" on="1"/>
        <pt x="124" y="733" on="1"/>
        <pt x="383" y="733" on="1"/>
        <pt x="385" y="728" on="1"/>
      </contour>
    </TTGlyph>
    <TTGlyph name="Zacute" xMin="-15" yMin="0" xMax="385" yMax="877">
      <component glyphName="Z" x="0" y="0" flags="0x204"/>
      <component glyphName="acute" x="54" y="287" flags="0x4"/>
    </TTGlyph>
    <TTGlyph name="Zcaron" xMin="-15" yMin="0" xMax="385" yMax="861">
      <component glyphName="Z" x="0" y="0" flags="0x204"/>
      <component glyphName="caron" x="9" y="287" flags="0x4"/>
    </TTGlyph>
    <TTGlyph name="Zdotaccent" xMin="-15" yMin="0" xMax="385" yMax="827">
      <component glyphName="Z" x="0" y="0" flags="0x204"/>
      <component glyphName="dotaccent" x="12" y="287" flags="0x4"/>
    </TTGlyph>
    <TTGlyph name="a" xMin="4" yMin="-10" xMax="256" yMax="451">
      <contour>
        <pt x="256" y="372" on="1"/>
        <pt x="256" y="362" on="0"/>
        <pt x="252" y="326" on="0"/>
        <pt x="250" y="318" on="1"/>
        <pt x="194" y="0" on="1"/>
        <pt x="165" y="0" on="1"/>
        <pt x="172" y="43" on="1"/>
        <pt x="155" y="19" on="0"/>
        <pt x="112" y="-10" on="0"/>
        <pt x="85" y="-10" on="1"/>
        <pt x="50" y="-10" on="0"/>
        <pt x="4" y="43" on="0"/>
        <pt x="4" y="94" on="1"/>
        <pt x="4" y="132" on="0"/>
        <pt x="23" y="198" on="0"/>
        <pt x="56" y="246" on="0"/>
        <pt x="101" y="274" on="0"/>
        <pt x="126" y="274" on="1"/>
        <pt x="156" y="274" on="0"/>
        <pt x="191" y="245" on="0"/>
        <pt x="203" y="229" on="1"/>
        <pt x="218" y="312" on="1"/>
        <pt x="223" y="342" on="0"/>
        <pt x="225" y="364" on="0"/>
        <pt x="225" y="369" on="1"/>
        <pt x="225" y="397" on="0"/>
        <pt x="191" y="423" on="0"/>
        <pt x="162" y="423" on="1"/>
        <pt x="142" y="423" on="0"/>
        <pt x="108" y="412" on="0"/>
        <pt x="94" y="405" on="1"/>
        <pt x="85" y="430" on="1"/>
        <pt x="103" y="439" on="0"/>
        <pt x="147" y="451" on="0"/>
        <pt x="168" y="451" on="1"/>
        <pt x="207" y="451" on="0"/>
        <pt x="256" y="410" on="0"/>
      </contour>
      <contour>
        <pt x="199" y="203" on="1"/>
        <pt x="189" y="219" on="0"/>
        <pt x="155" y="247" on="0"/>
        <pt x="129" y="247" on="1"/>
        <pt x="108" y="247" on="0"/>
        <pt x="73" y="222" on="0"/>
        <pt x="48" y="180" on="0"/>
        <pt x="35" y="126" on="0"/>
        <pt x="35" y="98" on="1"/>
        <pt x="35" y="63" on="0"/>
        <pt x="62" y="16" on="0"/>
        <pt x="93" y="16" on="1"/>
        <pt x="116" y="16" on="0"/>
        <pt x="156" y="46" on="0"/>
        <pt x="176" y="75" on="1"/>
      </contour>
    </TTGlyph>
    <TTGlyph name="aacute" xMin="4" yMin="-10" xMax="292" yMax="590">
      <component glyphName="a" x="0" y="0" flags="0x204"/>
      <component glyphName="acute" x="-21" y="0" flags="0x4"/>
    </TTGlyph>
    <TTGlyph name="abreve" xMin="4" yMin="-10" xMax="282" yMax="578">
      <component glyphName="a" x="0" y="0" flags="0x204"/>
      <component glyphName="breve" x="-63" y="0" flags="0x4"/>
    </TTGlyph>
    <TTGlyph name="acircumflex" xMin="4" yMin="-10" xMax="267" yMax="574">
      <component glyphName="a" x="0" y="0" flags="0x204"/>
      <component glyphName="circumflex" x="-65" y="0" flags="0x4"/>
    </TTGlyph>
    <TTGlyph name="acute" xMin="179" yMin="481" xMax="313" yMax="590">
      <contour>
        <pt x="191" y="481" on="1"/>
        <pt x="179" y="498" on="1"/>
        <pt x="293" y="590" on="1"/>
        <pt x="313" y="564" on="1"/>
      </contour>
    </TTGlyph>
    <TTGlyph name="adieresis" xMin="4" yMin="-10" xMax="262" yMax="540">
      <component glyphName="a" x="0" y="0" flags="0x204"/>
      <component glyphName="dieresis" x="-65" y="0" flags="0x4"/>
    </TTGlyph>
    <TTGlyph name="ae" xMin="9" yMin="-10" xMax="433" yMax="451">
      <contour>
        <pt x="95" y="-10" on="1"/>
        <pt x="57" y="-10" on="0"/>
        <pt x="9" y="44" on="0"/>
        <pt x="9" y="98" on="1"/>
        <pt x="9" y="134" on="0"/>
        <pt x="28" y="198" on="0"/>
        <pt x="61" y="246" on="0"/>
        <pt x="106" y="274" on="0"/>
        <pt x="131" y="274" on="1"/>
        <pt x="161" y="274" on="0"/>
        <pt x="196" y="245" on="0"/>
        <pt x="208" y="229" on="1"/>
        <pt x="222" y="307" on="1"/>
        <pt x="226" y="328" on="0"/>
        <pt x="229" y="357" on="0"/>
        <pt x="229" y="365" on="1"/>
        <pt x="229" y="391" on="0"/>
        <pt x="199" y="423" on="0"/>
        <pt x="167" y="423" on="1"/>
        <pt x="147" y="423" on="0"/>
        <pt x="113" y="412" on="0"/>
        <pt x="99" y="405" on="1"/>
        <pt x="90" y="430" on="1"/>
        <pt x="108" y="439" on="0"/>
        <pt x="152" y="451" on="0"/>
        <pt x="173" y="451" on="1"/>
        <pt x="213" y="451" on="0"/>
        <pt x="259" y="407" on="0"/>
        <pt x="256" y="367" on="1"/>
        <pt x="277" y="407" on="0"/>
        <pt x="329" y="451" on="0"/>
        <pt x="359" y="451" on="1"/>
        <pt x="396" y="451" on="0"/>
        <pt x="433" y="383" on="0"/>
        <pt x="433" y="324" on="1"/>
        <pt x="433" y="313" on="0"/>
        <pt x="431" y="285" on="0"/>
        <pt x="426" y="253" on="0"/>
        <pt x="420" y="222" on="0"/>
        <pt x="417" y="210" on="1"/>
        <pt x="235" y="210" on="1"/>
        <pt x="231" y="187" on="0"/>
        <pt x="229" y="147" on="0"/>
        <pt x="229" y="130" on="1"/>
        <pt x="229" y="76" on="0"/>
        <pt x="264" y="18" on="0"/>
        <pt x="299" y="18" on="1"/>
        <pt x="319" y="18" on="0"/>
        <pt x="353" y="35" on="0"/>
        <pt x="367" y="46" on="1"/>
        <pt x="380" y="23" on="1"/>
        <pt x="363" y="9" on="0"/>
        <pt x="323" y="-10" on="0"/>
        <pt x="297" y="-10" on="1"/>
        <pt x="262" y="-10" on="0"/>
        <pt x="211" y="37" on="0"/>
        <pt x="203" y="93" on="1"/>
        <pt x="195" y="73" on="0"/>
        <pt x="175" y="36" on="0"/>
        <pt x="149" y="8" on="0"/>
        <pt x="116" y="-10" on="0"/>
      </contour>
      <contour>
        <pt x="98" y="17" on="1"/>
        <pt x="133" y="17" on="0"/>
        <pt x="190" y="109" on="0"/>
        <pt x="204" y="203" on="1"/>
        <pt x="194" y="219" on="0"/>
        <pt x="160" y="247" on="0"/>
        <pt x="134" y="247" on="1"/>
        <pt x="113" y="247" on="0"/>
        <pt x="78" y="222" on="0"/>
        <pt x="53" y="181" on="0"/>
        <pt x="40" y="128" on="0"/>
        <pt x="40" y="101" on="1"/>
        <pt x="40" y="63" on="0"/>
        <pt x="69" y="17" on="0"/>
      </contour>
      <contour>
        <pt x="393" y="236" on="1"/>
        <pt x="397" y="254" on="0"/>
        <pt x="403" y="304" on="0"/>
        <pt x="403" y="325" on="1"/>
        <pt x="403" y="370" on="0"/>
        <pt x="381" y="424" on="0"/>
        <pt x="356" y="424" on="1"/>
        <pt x="337" y="424" on="0"/>
        <pt x="301" y="393" on="0"/>
        <pt x="271" y="341" on="0"/>
        <pt x="247" y="273" on="0"/>
        <pt x="240" y="236" on="1"/>
      </contour>
    </TTGlyph>
    <TTGlyph name="aeacute" xMin="9" yMin="-10" xMax="433" yMax="590">
      <component glyphName="ae" x="0" y="0" flags="0x204"/>
      <component glyphName="acute" x="78" y="0" flags="0x4"/>
    </TTGlyph>
    <TTGlyph name="agrave" xMin="4" yMin="-10" xMax="256" yMax="595">
      <component glyphName="a" x="0" y="0" flags="0x204"/>
      <component glyphName="grave" x="-94" y="0" flags="0x4"/>
    </TTGlyph>
    <TTGlyph name="amacron" xMin="4" yMin="-10" xMax="290" yMax="520">
      <component glyphName="a" x="0" y="0" flags="0x204"/>
      <component glyphName="macron" x="-64" y="0" flags="0x4"/>
    </TTGlyph>
    <TTGlyph name="ampersand" xMin="14" yMin="-13" xMax="394" yMax="738">
      <contour>
        <pt x="394" y="329" on="1"/>
        <pt x="364" y="263" on="0"/>
        <pt x="309" y="155" on="0"/>
        <pt x="282" y="112" on="1"/>
        <pt x="295" y="81" on="0"/>
        <pt x="321" y="25" on="0"/>
        <pt x="333" y="2" on="1"/>
        <pt x="306" y="-13" on="1"/>
        <pt x="295" y="7" on="0"/>
        <pt x="273" y="56" on="0"/>
        <pt x="262" y="83" on="1"/>
        <pt x="229" y="38" on="0"/>
        <pt x="161" y="-10" on="0"/>
        <pt x="123" y="-10" on="1"/>
        <pt x="75" y="-10" on="0"/>
        <pt x="14" y="64" on="0"/>
        <pt x="14" y="127" on="1"/>
        <pt x="14" y="168" on="0"/>
        <pt x="39" y="243" on="0"/>
        <pt x="80" y="309" on="0"/>
        <pt x="135" y="367" on="0"/>
        <pt x="165" y="392" on="1"/>
        <pt x="151" y="465" on="0"/>
        <pt x="151" y="524" on="1"/>
        <pt x="151" y="568" on="0"/>
        <pt x="169" y="646" on="0"/>
        <pt x="201" y="704" on="0"/>
        <pt x="247" y="738" on="0"/>
        <pt x="276" y="738" on="1"/>
        <pt x="311" y="738" on="0"/>
        <pt x="352" y="689" on="0"/>
        <pt x="352" y="645" on="1"/>
        <pt x="352" y="602" on="0"/>
        <pt x="324" y="526" on="0"/>
        <pt x="280" y="460" on="0"/>
        <pt x="225" y="403" on="0"/>
        <pt x="198" y="380" on="1"/>
        <pt x="210" y="320" on="0"/>
        <pt x="248" y="199" on="0"/>
        <pt x="270" y="142" on="1"/>
        <pt x="295" y="184" on="0"/>
        <pt x="344" y="286" on="0"/>
        <pt x="369" y="343" on="1"/>
      </contour>
      <contour>
        <pt x="250" y="112" on="1"/>
        <pt x="227" y="170" on="0"/>
        <pt x="186" y="299" on="0"/>
        <pt x="172" y="363" on="1"/>
        <pt x="117" y="315" on="0"/>
        <pt x="44" y="196" on="0"/>
        <pt x="44" y="130" on="1"/>
        <pt x="44" y="77" on="0"/>
        <pt x="89" y="18" on="0"/>
        <pt x="126" y="18" on="1"/>
        <pt x="158" y="18" on="0"/>
        <pt x="220" y="68" on="0"/>
      </contour>
      <contour>
        <pt x="321" y="642" on="1"/>
        <pt x="321" y="675" on="0"/>
        <pt x="296" y="710" on="0"/>
        <pt x="273" y="710" on="1"/>
        <pt x="251" y="710" on="0"/>
        <pt x="217" y="677" on="0"/>
        <pt x="193" y="625" on="0"/>
        <pt x="181" y="559" on="0"/>
        <pt x="181" y="525" on="1"/>
        <pt x="181" y="498" on="0"/>
        <pt x="187" y="440" on="0"/>
        <pt x="192" y="410" on="1"/>
        <pt x="217" y="432" on="0"/>
        <pt x="263" y="483" on="0"/>
        <pt x="299" y="540" on="0"/>
        <pt x="321" y="605" on="0"/>
      </contour>
    </TTGlyph>
    <TTGlyph name="ampersand.cap" xMin="14" yMin="-13" xMax="394" yMax="738">
      <contour>
        <pt x="394" y="329" on="1"/>
        <pt x="364" y="263" on="0"/>
        <pt x="309" y="155" on="0"/>
        <pt x="282" y="112" on="1"/>
        <pt x="295" y="81" on="0"/>
        <pt x="321" y="25" on="0"/>
        <pt x="333" y="2" on="1"/>
        <pt x="306" y="-13" on="1"/>
        <pt x="295" y="7" on="0"/>
        <pt x="273" y="56" on="0"/>
        <pt x="262" y="83" on="1"/>
        <pt x="229" y="38" on="0"/>
        <pt x="161" y="-10" on="0"/>
        <pt x="123" y="-10" on="1"/>
        <pt x="75" y="-10" on="0"/>
        <pt x="14" y="64" on="0"/>
        <pt x="14" y="127" on="1"/>
        <pt x="14" y="168" on="0"/>
        <pt x="39" y="243" on="0"/>
        <pt x="80" y="309" on="0"/>
        <pt x="135" y="367" on="0"/>
        <pt x="165" y="392" on="1"/>
        <pt x="151" y="465" on="0"/>
        <pt x="151" y="524" on="1"/>
        <pt x="151" y="568" on="0"/>
        <pt x="169" y="646" on="0"/>
        <pt x="201" y="704" on="0"/>
        <pt x="247" y="738" on="0"/>
        <pt x="276" y="738" on="1"/>
        <pt x="311" y="738" on="0"/>
        <pt x="352" y="689" on="0"/>
        <pt x="352" y="645" on="1"/>
        <pt x="352" y="602" on="0"/>
        <pt x="324" y="526" on="0"/>
        <pt x="280" y="460" on="0"/>
        <pt x="225" y="403" on="0"/>
        <pt x="198" y="380" on="1"/>
        <pt x="210" y="320" on="0"/>
        <pt x="248" y="199" on="0"/>
        <pt x="270" y="142" on="1"/>
        <pt x="295" y="184" on="0"/>
        <pt x="344" y="286" on="0"/>
        <pt x="369" y="343" on="1"/>
      </contour>
      <contour>
        <pt x="250" y="112" on="1"/>
        <pt x="227" y="170" on="0"/>
        <pt x="186" y="299" on="0"/>
        <pt x="172" y="363" on="1"/>
        <pt x="117" y="315" on="0"/>
        <pt x="44" y="196" on="0"/>
        <pt x="44" y="130" on="1"/>
        <pt x="44" y="77" on="0"/>
        <pt x="89" y="18" on="0"/>
        <pt x="126" y="18" on="1"/>
        <pt x="158" y="18" on="0"/>
        <pt x="220" y="68" on="0"/>
      </contour>
      <contour>
        <pt x="192" y="410" on="1"/>
        <pt x="217" y="432" on="0"/>
        <pt x="263" y="483" on="0"/>
        <pt x="299" y="540" on="0"/>
        <pt x="321" y="605" on="0"/>
        <pt x="321" y="642" on="1"/>
        <pt x="321" y="675" on="0"/>
        <pt x="296" y="710" on="0"/>
        <pt x="273" y="710" on="1"/>
        <pt x="251" y="710" on="0"/>
        <pt x="217" y="677" on="0"/>
        <pt x="193" y="625" on="0"/>
        <pt x="181" y="559" on="0"/>
        <pt x="181" y="525" on="1"/>
        <pt x="181" y="498" on="0"/>
        <pt x="187" y="440" on="0"/>
      </contour>
    </TTGlyph>
    <TTGlyph name="aogonek" xMin="4" yMin="-187" xMax="256" yMax="451">
      <contour>
        <pt x="170" y="-171" on="1"/>
        <pt x="150" y="-187" on="0"/>
        <pt x="125" y="-187" on="1"/>
        <pt x="102" y="-187" on="0"/>
        <pt x="79" y="-156" on="0"/>
        <pt x="79" y="-134" on="1"/>
        <pt x="79" y="-91" on="0"/>
        <pt x="131" y="-24" on="0"/>
        <pt x="166" y="5" on="1"/>
        <pt x="172" y="43" on="1"/>
        <pt x="155" y="19" on="0"/>
        <pt x="112" y="-10" on="0"/>
        <pt x="85" y="-10" on="1"/>
        <pt x="50" y="-10" on="0"/>
        <pt x="4" y="43" on="0"/>
        <pt x="4" y="94" on="1"/>
        <pt x="4" y="132" on="0"/>
        <pt x="23" y="198" on="0"/>
        <pt x="56" y="246" on="0"/>
        <pt x="101" y="274" on="0"/>
        <pt x="126" y="274" on="1"/>
        <pt x="156" y="274" on="0"/>
        <pt x="191" y="245" on="0"/>
        <pt x="203" y="229" on="1"/>
        <pt x="218" y="312" on="1"/>
        <pt x="223" y="342" on="0"/>
        <pt x="225" y="364" on="0"/>
        <pt x="225" y="369" on="1"/>
        <pt x="225" y="397" on="0"/>
        <pt x="191" y="423" on="0"/>
        <pt x="162" y="423" on="1"/>
        <pt x="142" y="423" on="0"/>
        <pt x="108" y="412" on="0"/>
        <pt x="94" y="405" on="1"/>
        <pt x="85" y="430" on="1"/>
        <pt x="103" y="439" on="0"/>
        <pt x="147" y="451" on="0"/>
        <pt x="168" y="451" on="1"/>
        <pt x="207" y="451" on="0"/>
        <pt x="256" y="410" on="0"/>
        <pt x="256" y="372" on="1"/>
        <pt x="256" y="362" on="0"/>
        <pt x="252" y="326" on="0"/>
        <pt x="250" y="318" on="1"/>
        <pt x="194" y="0" on="1"/>
        <pt x="180" y="-11" on="0"/>
        <pt x="149" y="-39" on="0"/>
        <pt x="123" y="-71" on="0"/>
        <pt x="107" y="-108" on="0"/>
        <pt x="107" y="-129" on="1"/>
        <pt x="107" y="-143" on="0"/>
        <pt x="119" y="-161" on="0"/>
        <pt x="132" y="-161" on="1"/>
        <pt x="147" y="-161" on="0"/>
        <pt x="161" y="-149" on="1"/>
      </contour>
      <contour>
        <pt x="199" y="203" on="1"/>
        <pt x="189" y="219" on="0"/>
        <pt x="155" y="247" on="0"/>
        <pt x="129" y="247" on="1"/>
        <pt x="108" y="247" on="0"/>
        <pt x="73" y="222" on="0"/>
        <pt x="48" y="180" on="0"/>
        <pt x="35" y="126" on="0"/>
        <pt x="35" y="98" on="1"/>
        <pt x="35" y="63" on="0"/>
        <pt x="62" y="16" on="0"/>
        <pt x="93" y="16" on="1"/>
        <pt x="116" y="16" on="0"/>
        <pt x="156" y="46" on="0"/>
        <pt x="176" y="75" on="1"/>
      </contour>
    </TTGlyph>
    <TTGlyph name="aring" xMin="4" yMin="-10" xMax="260" yMax="618">
      <component glyphName="a" x="0" y="0" flags="0x204"/>
      <component glyphName="ring" x="-64" y="0" flags="0x4"/>
    </TTGlyph>
    <TTGlyph name="aringacute" xMin="4" yMin="-10" xMax="317" yMax="757">
      <component glyphName="acute" x="4" y="167" flags="0x4"/>
      <component glyphName="a" x="0" y="0" flags="0x4"/>
      <component glyphName="ring" x="-64" y="0" flags="0x4"/>
    </TTGlyph>
    <TTGlyph name="arrowleft" xMin="18" yMin="82" xMax="402" yMax="454">
      <contour>
        <pt x="59" y="254" on="1"/>
        <pt x="150" y="99" on="1"/>
        <pt x="127" y="82" on="1"/>
        <pt x="18" y="266" on="1"/>
        <pt x="19" y="270" on="1"/>
        <pt x="192" y="454" on="1"/>
        <pt x="211" y="435" on="1"/>
        <pt x="68" y="282" on="1"/>
        <pt x="402" y="282" on="1"/>
        <pt x="397" y="254" on="1"/>
      </contour>
    </TTGlyph>
    <TTGlyph name="arrowleft.cap" xMin="36" yMin="185" xMax="420" yMax="557">
      <component glyphName="arrowleft" x="18" y="103" flags="0x204"/>
    </TTGlyph>
    <TTGlyph name="arrowright" xMin="30" yMin="82" xMax="414" yMax="454">
      <contour>
        <pt x="373" y="282" on="1"/>
        <pt x="282" y="437" on="1"/>
        <pt x="305" y="454" on="1"/>
        <pt x="414" y="270" on="1"/>
        <pt x="413" y="266" on="1"/>
        <pt x="240" y="82" on="1"/>
        <pt x="221" y="101" on="1"/>
        <pt x="364" y="254" on="1"/>
        <pt x="30" y="254" on="1"/>
        <pt x="35" y="282" on="1"/>
      </contour>
    </TTGlyph>
    <TTGlyph name="arrowright.cap" xMin="48" yMin="185" xMax="432" yMax="557">
      <component glyphName="arrowright" x="18" y="103" flags="0x204"/>
    </TTGlyph>
    <TTGlyph name="asciicircum" xMin="179" yMin="584" xMax="351" yMax="671">
      <contour>
        <pt x="319" y="584" on="1"/>
        <pt x="275" y="637" on="1"/>
        <pt x="213" y="584" on="1"/>
        <pt x="179" y="584" on="1"/>
        <pt x="278" y="671" on="1"/>
        <pt x="282" y="671" on="1"/>
        <pt x="351" y="584" on="1"/>
      </contour>
    </TTGlyph>
    <TTGlyph name="asciitilde" xMin="106" yMin="194" xMax="290" yMax="249">
      <contour>
        <pt x="290" y="225" on="1"/>
        <pt x="277" y="211" on="0"/>
        <pt x="249" y="194" on="0"/>
        <pt x="233" y="194" on="1"/>
        <pt x="222" y="194" on="0"/>
        <pt x="202" y="202" on="0"/>
        <pt x="193" y="208" on="1"/>
        <pt x="184" y="214" on="0"/>
        <pt x="170" y="222" on="0"/>
        <pt x="162" y="222" on="1"/>
        <pt x="145" y="222" on="0"/>
        <pt x="121" y="198" on="1"/>
        <pt x="106" y="218" on="1"/>
        <pt x="119" y="232" on="0"/>
        <pt x="147" y="249" on="0"/>
        <pt x="163" y="249" on="1"/>
        <pt x="174" y="249" on="0"/>
        <pt x="194" y="241" on="0"/>
        <pt x="203" y="235" on="1"/>
        <pt x="213" y="229" on="0"/>
        <pt x="226" y="221" on="0"/>
        <pt x="234" y="221" on="1"/>
        <pt x="251" y="221" on="0"/>
        <pt x="275" y="245" on="1"/>
        <pt x="290" y="225" on="1"/>
      </contour>
    </TTGlyph>
    <TTGlyph name="asterisk" xMin="87" yMin="556" xMax="269" yMax="732">
      <contour>
        <pt x="191" y="633" on="1"/>
        <pt x="229" y="569" on="1"/>
        <pt x="207" y="556" on="1"/>
        <pt x="172" y="619" on="1"/>
        <pt x="117" y="556" on="1"/>
        <pt x="98" y="570" on="1"/>
        <pt x="156" y="634" on="1"/>
        <pt x="87" y="655" on="1"/>
        <pt x="96" y="678" on="1"/>
        <pt x="167" y="654" on="1"/>
        <pt x="180" y="732" on="1"/>
        <pt x="204" y="732" on="1"/>
        <pt x="188" y="654" on="1"/>
        <pt x="263" y="678" on="1"/>
        <pt x="269" y="655" on="1"/>
      </contour>
    </TTGlyph>
    <TTGlyph name="at" xMin="42" yMin="-8" xMax="462" yMax="622">
      <contour>
        <pt x="462" y="406" on="1"/>
        <pt x="462" y="371" on="0"/>
        <pt x="450" y="280" on="0"/>
        <pt x="422" y="199" on="0"/>
        <pt x="378" y="143" on="0"/>
        <pt x="345" y="143" on="1"/>
        <pt x="320" y="143" on="0"/>
        <pt x="291" y="173" on="0"/>
        <pt x="289" y="199" on="1"/>
        <pt x="277" y="180" on="0"/>
        <pt x="246" y="149" on="0"/>
        <pt x="223" y="149" on="1"/>
        <pt x="197" y="149" on="0"/>
        <pt x="166" y="190" on="0"/>
        <pt x="166" y="223" on="1"/>
        <pt x="166" y="247" on="0"/>
        <pt x="179" y="288" on="0"/>
        <pt x="201" y="319" on="0"/>
        <pt x="231" y="336" on="0"/>
        <pt x="249" y="336" on="1"/>
        <pt x="268" y="336" on="0"/>
        <pt x="294" y="317" on="0"/>
        <pt x="302" y="305" on="1"/>
        <pt x="306" y="324" on="0"/>
        <pt x="310" y="348" on="0"/>
        <pt x="312" y="363" on="0"/>
        <pt x="313" y="372" on="0"/>
        <pt x="313" y="377" on="1"/>
        <pt x="313" y="399" on="0"/>
        <pt x="287" y="417" on="0"/>
        <pt x="270" y="417" on="1"/>
        <pt x="249" y="417" on="0"/>
        <pt x="223" y="406" on="1"/>
        <pt x="218" y="429" on="1"/>
        <pt x="231" y="435" on="0"/>
        <pt x="262" y="443" on="0"/>
        <pt x="276" y="443" on="1"/>
        <pt x="305" y="443" on="0"/>
        <pt x="340" y="411" on="0"/>
        <pt x="340" y="380" on="1"/>
        <pt x="340" y="370" on="0"/>
        <pt x="337" y="349" on="0"/>
        <pt x="336" y="343" on="1"/>
        <pt x="318" y="243" on="1"/>
        <pt x="315" y="230" on="0"/>
        <pt x="314" y="203" on="0"/>
        <pt x="319" y="181" on="0"/>
        <pt x="332" y="167" on="0"/>
        <pt x="345" y="167" on="1"/>
        <pt x="367" y="167" on="0"/>
        <pt x="402" y="215" on="0"/>
        <pt x="424" y="286" on="0"/>
        <pt x="436" y="368" on="0"/>
        <pt x="436" y="402" on="1"/>
        <pt x="436" y="497" on="0"/>
        <pt x="367" y="598" on="0"/>
        <pt x="304" y="598" on="1"/>
        <pt x="254" y="598" on="0"/>
        <pt x="167" y="531" on="0"/>
        <pt x="104" y="424" on="0"/>
        <pt x="68" y="290" on="0"/>
        <pt x="68" y="222" on="1"/>
        <pt x="68" y="178" on="0"/>
        <pt x="89" y="103" on="0"/>
        <pt x="129" y="47" on="0"/>
        <pt x="189" y="15" on="0"/>
        <pt x="227" y="15" on="1"/>
        <pt x="247" y="15" on="0"/>
        <pt x="290" y="26" on="0"/>
        <pt x="313" y="38" on="1"/>
        <pt x="321" y="16" on="1"/>
        <pt x="297" y="4" on="0"/>
        <pt x="247" y="-8" on="0"/>
        <pt x="227" y="-8" on="1"/>
        <pt x="182" y="-8" on="0"/>
        <pt x="112" y="26" on="0"/>
        <pt x="66" y="88" on="0"/>
        <pt x="42" y="172" on="0"/>
        <pt x="42" y="222" on="1"/>
        <pt x="42" y="295" on="0"/>
        <pt x="81" y="438" on="0"/>
        <pt x="152" y="552" on="0"/>
        <pt x="249" y="622" on="0"/>
        <pt x="307" y="622" on="1"/>
        <pt x="377" y="622" on="0"/>
        <pt x="462" y="511" on="0"/>
      </contour>
      <contour>
        <pt x="298" y="279" on="1"/>
        <pt x="292" y="290" on="0"/>
        <pt x="269" y="312" on="0"/>
        <pt x="252" y="312" on="1"/>
        <pt x="226" y="312" on="0"/>
        <pt x="194" y="261" on="0"/>
        <pt x="194" y="223" on="1"/>
        <pt x="194" y="206" on="0"/>
        <pt x="210" y="173" on="0"/>
        <pt x="230" y="173" on="1"/>
        <pt x="246" y="173" on="0"/>
        <pt x="277" y="204" on="0"/>
        <pt x="288" y="226" on="1"/>
      </contour>
    </TTGlyph>
    <TTGlyph name="at.cap" xMin="49" yMin="-11" xMax="481" yMax="745">
      <contour>
        <pt x="320" y="13" on="1"/>
        <pt x="296" y="1" on="0"/>
        <pt x="246" y="-11" on="0"/>
        <pt x="226" y="-11" on="1"/>
        <pt x="181" y="-11" on="0"/>
        <pt x="114" y="26" on="0"/>
        <pt x="70" y="92" on="0"/>
        <pt x="49" y="183" on="0"/>
        <pt x="49" y="237" on="1"/>
        <pt x="49" y="333" on="0"/>
        <pt x="93" y="516" on="0"/>
        <pt x="170" y="658" on="0"/>
        <pt x="275" y="745" on="0"/>
        <pt x="336" y="745" on="1"/>
        <pt x="372" y="745" on="0"/>
        <pt x="427" y="713" on="0"/>
        <pt x="463" y="655" on="0"/>
        <pt x="481" y="573" on="0"/>
        <pt x="481" y="524" on="1"/>
        <pt x="481" y="503" on="0"/>
        <pt x="476" y="436" on="0"/>
        <pt x="464" y="361" on="0"/>
        <pt x="444" y="285" on="0"/>
        <pt x="416" y="224" on="0"/>
        <pt x="377" y="185" on="0"/>
        <pt x="353" y="185" on="1"/>
        <pt x="328" y="185" on="0"/>
        <pt x="299" y="215" on="0"/>
        <pt x="297" y="241" on="1"/>
        <pt x="285" y="222" on="0"/>
        <pt x="254" y="191" on="0"/>
        <pt x="231" y="191" on="1"/>
        <pt x="208" y="191" on="0"/>
        <pt x="174" y="229" on="0"/>
        <pt x="174" y="270" on="1"/>
        <pt x="174" y="299" on="0"/>
        <pt x="188" y="348" on="0"/>
        <pt x="212" y="384" on="0"/>
        <pt x="244" y="404" on="0"/>
        <pt x="262" y="404" on="1"/>
        <pt x="280" y="404" on="0"/>
        <pt x="306" y="385" on="0"/>
        <pt x="314" y="373" on="1"/>
        <pt x="319" y="401" on="0"/>
        <pt x="325" y="437" on="0"/>
        <pt x="328" y="458" on="0"/>
        <pt x="329" y="468" on="0"/>
        <pt x="329" y="471" on="1"/>
        <pt x="329" y="493" on="0"/>
        <pt x="304" y="511" on="0"/>
        <pt x="287" y="511" on="1"/>
        <pt x="266" y="511" on="0"/>
        <pt x="240" y="500" on="1"/>
        <pt x="235" y="523" on="1"/>
        <pt x="248" y="529" on="0"/>
        <pt x="279" y="537" on="0"/>
        <pt x="293" y="537" on="1"/>
        <pt x="322" y="537" on="0"/>
        <pt x="357" y="505" on="0"/>
        <pt x="357" y="474" on="1"/>
        <pt x="357" y="464" on="0"/>
        <pt x="354" y="443" on="0"/>
        <pt x="353" y="437" on="1"/>
        <pt x="326" y="285" on="1"/>
        <pt x="323" y="272" on="0"/>
        <pt x="322" y="245" on="0"/>
        <pt x="328" y="223" on="0"/>
        <pt x="342" y="209" on="0"/>
        <pt x="355" y="209" on="1"/>
        <pt x="372" y="209" on="0"/>
        <pt x="400" y="245" on="0"/>
        <pt x="423" y="303" on="0"/>
        <pt x="439" y="374" on="0"/>
        <pt x="450" y="442" on="0"/>
        <pt x="455" y="500" on="0"/>
        <pt x="455" y="517" on="1"/>
        <pt x="455" y="562" on="0"/>
        <pt x="441" y="637" on="0"/>
        <pt x="411" y="691" on="0"/>
        <pt x="366" y="721" on="0"/>
        <pt x="335" y="721" on="1"/>
        <pt x="281" y="721" on="0"/>
        <pt x="187" y="638" on="0"/>
        <pt x="116" y="502" on="0"/>
        <pt x="75" y="329" on="0"/>
        <pt x="75" y="239" on="1"/>
        <pt x="75" y="191" on="0"/>
        <pt x="93" y="108" on="0"/>
        <pt x="131" y="47" on="0"/>
        <pt x="188" y="12" on="0"/>
        <pt x="226" y="12" on="1"/>
        <pt x="246" y="12" on="0"/>
        <pt x="289" y="23" on="0"/>
        <pt x="312" y="35" on="1"/>
      </contour>
      <contour>
        <pt x="309" y="347" on="1"/>
        <pt x="303" y="358" on="0"/>
        <pt x="280" y="380" on="0"/>
        <pt x="263" y="380" on="1"/>
        <pt x="237" y="380" on="0"/>
        <pt x="202" y="317" on="0"/>
        <pt x="202" y="273" on="1"/>
        <pt x="202" y="246" on="0"/>
        <pt x="220" y="215" on="0"/>
        <pt x="238" y="215" on="1"/>
        <pt x="254" y="215" on="0"/>
        <pt x="284" y="246" on="0"/>
        <pt x="295" y="268" on="1"/>
      </contour>
    </TTGlyph>
    <TTGlyph name="atilde" xMin="4" yMin="-10" xMax="281" yMax="544">
      <component glyphName="a" x="0" y="0" flags="0x204"/>
      <component glyphName="tilde" x="-63" y="0" flags="0x4"/>
    </TTGlyph>
    <TTGlyph name="b" xMin="9" yMin="-7" xMax="279" yMax="733">
      <contour>
        <pt x="279" y="315" on="1"/>
        <pt x="279" y="266" on="0"/>
        <pt x="259" y="153" on="0"/>
        <pt x="219" y="57" on="0"/>
        <pt x="161" y="-7" on="0"/>
        <pt x="124" y="-7" on="1"/>
        <pt x="94" y="-7" on="0"/>
        <pt x="59" y="26" on="0"/>
        <pt x="46" y="46" on="1"/>
        <pt x="38" y="0" on="1"/>
        <pt x="9" y="0" on="1"/>
        <pt x="138" y="733" on="1"/>
        <pt x="168" y="733" on="1"/>
        <pt x="109" y="399" on="1"/>
        <pt x="130" y="422" on="0"/>
        <pt x="172" y="448" on="0"/>
        <pt x="196" y="448" on="1"/>
        <pt x="211" y="448" on="0"/>
        <pt x="240" y="435" on="0"/>
        <pt x="264" y="404" on="0"/>
        <pt x="279" y="353" on="0"/>
      </contour>
      <contour>
        <pt x="250" y="310" on="1"/>
        <pt x="250" y="370" on="0"/>
        <pt x="215" y="420" on="0"/>
        <pt x="191" y="420" on="1"/>
        <pt x="165" y="420" on="0"/>
        <pt x="123" y="386" on="0"/>
        <pt x="103" y="366" on="1"/>
        <pt x="53" y="77" on="1"/>
        <pt x="65" y="54" on="0"/>
        <pt x="98" y="21" on="0"/>
        <pt x="121" y="21" on="1"/>
        <pt x="151" y="21" on="0"/>
        <pt x="199" y="81" on="0"/>
        <pt x="232" y="169" on="0"/>
        <pt x="250" y="269" on="0"/>
      </contour>
    </TTGlyph>
    <TTGlyph name="backslash" xMin="76" yMin="-216" xMax="160" yMax="733">
      <contour>
        <pt x="133" y="-216" on="1"/>
        <pt x="76" y="733" on="1"/>
        <pt x="103" y="733" on="1"/>
        <pt x="160" y="-216" on="1"/>
      </contour>
    </TTGlyph>
    <TTGlyph name="backslash.cap" xMin="72" yMin="-112" xMax="156" yMax="837">
      <component glyphName="backslash" x="-4" y="104" flags="0x204"/>
    </TTGlyph>
    <TTGlyph name="bar" xMin="-12" yMin="-215" xMax="181" yMax="734">
      <contour>
        <pt x="-12" y="-215" on="1"/>
        <pt x="155" y="734" on="1"/>
        <pt x="181" y="734" on="1"/>
        <pt x="14" y="-215" on="1"/>
      </contour>
    </TTGlyph>
    <TTGlyph name="bar.cap" xMin="7" yMin="-112" xMax="200" yMax="837">
      <component glyphName="bar" x="19" y="103" flags="0x204"/>
    </TTGlyph>
    <TTGlyph name="braceleft" xMin="22" yMin="-223" xMax="280" yMax="740">
      <contour>
        <pt x="275" y="714" on="1"/>
        <pt x="268" y="714" on="1"/>
        <pt x="239" y="714" on="0"/>
        <pt x="204" y="690" on="0"/>
        <pt x="198" y="655" on="1"/>
        <pt x="142" y="337" on="1"/>
        <pt x="135" y="300" on="0"/>
        <pt x="103" y="265" on="0"/>
        <pt x="77" y="257" on="1"/>
        <pt x="94" y="251" on="0"/>
        <pt x="115" y="222" on="0"/>
        <pt x="115" y="200" on="1"/>
        <pt x="115" y="192" on="0"/>
        <pt x="114" y="180" on="0"/>
        <pt x="113" y="173" on="1"/>
        <pt x="62" y="-119" on="1"/>
        <pt x="61" y="-124" on="0"/>
        <pt x="59" y="-143" on="0"/>
        <pt x="59" y="-149" on="1"/>
        <pt x="59" y="-175" on="0"/>
        <pt x="94" y="-196" on="0"/>
        <pt x="120" y="-197" on="1"/>
        <pt x="115" y="-223" on="1"/>
        <pt x="79" y="-222" on="0"/>
        <pt x="27" y="-190" on="0"/>
        <pt x="27" y="-153" on="1"/>
        <pt x="27" y="-144" on="0"/>
        <pt x="29" y="-124" on="0"/>
        <pt x="31" y="-114" on="1"/>
        <pt x="82" y="176" on="1"/>
        <pt x="83" y="181" on="0"/>
        <pt x="84" y="193" on="0"/>
        <pt x="84" y="200" on="1"/>
        <pt x="84" y="222" on="0"/>
        <pt x="56" y="244" on="0"/>
        <pt x="36" y="244" on="1"/>
        <pt x="22" y="244" on="1"/>
        <pt x="27" y="273" on="1"/>
        <pt x="41" y="273" on="1"/>
        <pt x="64" y="273" on="0"/>
        <pt x="103" y="300" on="0"/>
        <pt x="110" y="336" on="1"/>
        <pt x="165" y="651" on="1"/>
        <pt x="170" y="680" on="0"/>
        <pt x="189" y="715" on="0"/>
        <pt x="215" y="734" on="0"/>
        <pt x="248" y="740" on="0"/>
        <pt x="268" y="740" on="1"/>
        <pt x="280" y="740" on="1"/>
      </contour>
    </TTGlyph>
    <TTGlyph name="braceleft.cap" xMin="40" yMin="-119" xMax="298" yMax="844">
      <component glyphName="braceleft" x="18" y="104" flags="0x204"/>
    </TTGlyph>
    <TTGlyph name="braceright" xMin="-71" yMin="-223" xMax="187" yMax="740">
      <contour>
        <pt x="-66" y="-197" on="1"/>
        <pt x="-59" y="-197" on="1"/>
        <pt x="-30" y="-197" on="0"/>
        <pt x="5" y="-173" on="0"/>
        <pt x="11" y="-138" on="1"/>
        <pt x="67" y="180" on="1"/>
        <pt x="74" y="217" on="0"/>
        <pt x="106" y="252" on="0"/>
        <pt x="132" y="260" on="1"/>
        <pt x="115" y="266" on="0"/>
        <pt x="94" y="295" on="0"/>
        <pt x="94" y="317" on="1"/>
        <pt x="94" y="325" on="0"/>
        <pt x="95" y="337" on="0"/>
        <pt x="96" y="344" on="1"/>
        <pt x="147" y="636" on="1"/>
        <pt x="148" y="641" on="0"/>
        <pt x="150" y="660" on="0"/>
        <pt x="150" y="666" on="1"/>
        <pt x="150" y="692" on="0"/>
        <pt x="115" y="713" on="0"/>
        <pt x="89" y="714" on="1"/>
        <pt x="94" y="740" on="1"/>
        <pt x="130" y="739" on="0"/>
        <pt x="182" y="707" on="0"/>
        <pt x="182" y="670" on="1"/>
        <pt x="182" y="661" on="0"/>
        <pt x="180" y="641" on="0"/>
        <pt x="178" y="631" on="1"/>
        <pt x="127" y="341" on="1"/>
        <pt x="126" y="336" on="0"/>
        <pt x="125" y="324" on="0"/>
        <pt x="125" y="317" on="1"/>
        <pt x="125" y="295" on="0"/>
        <pt x="153" y="273" on="0"/>
        <pt x="173" y="273" on="1"/>
        <pt x="187" y="273" on="1"/>
        <pt x="182" y="244" on="1"/>
        <pt x="168" y="244" on="1"/>
        <pt x="145" y="244" on="0"/>
        <pt x="106" y="217" on="0"/>
        <pt x="99" y="181" on="1"/>
        <pt x="44" y="-134" on="1"/>
        <pt x="39" y="-163" on="0"/>
        <pt x="20" y="-198" on="0"/>
        <pt x="-6" y="-217" on="0"/>
        <pt x="-40" y="-223" on="0"/>
        <pt x="-59" y="-223" on="1"/>
        <pt x="-71" y="-223" on="1"/>
      </contour>
    </TTGlyph>
    <TTGlyph name="braceright.cap" xMin="-52" yMin="-119" xMax="206" yMax="844">
      <component glyphName="braceright" x="19" y="104" flags="0x204"/>
    </TTGlyph>
    <TTGlyph name="bracketleft" xMin="-18" yMin="-217" xMax="271" yMax="732">
      <contour>
        <pt x="266" y="706" on="1"/>
        <pt x="173" y="706" on="1"/>
        <pt x="16" y="-189" on="1"/>
        <pt x="109" y="-189" on="1"/>
        <pt x="104" y="-217" on="1"/>
        <pt x="-18" y="-217" on="1"/>
        <pt x="148" y="732" on="1"/>
        <pt x="271" y="732" on="1"/>
      </contour>
    </TTGlyph>
    <TTGlyph name="bracketleft.cap" xMin="0" yMin="-112" xMax="289" yMax="837">
      <component glyphName="bracketleft" x="18" y="105" flags="0x204"/>
    </TTGlyph>
    <TTGlyph name="bracketright" xMin="-71" yMin="-216" xMax="218" yMax="733">
      <contour>
        <pt x="51" y="-216" on="1"/>
        <pt x="-71" y="-216" on="1"/>
        <pt x="-67" y="-190" on="1"/>
        <pt x="25" y="-190" on="1"/>
        <pt x="183" y="707" on="1"/>
        <pt x="90" y="707" on="1"/>
        <pt x="95" y="733" on="1"/>
        <pt x="218" y="733" on="1"/>
      </contour>
    </TTGlyph>
    <TTGlyph name="bracketright.cap" xMin="-52" yMin="-112" xMax="237" yMax="837">
      <component glyphName="bracketright" x="19" y="104" flags="0x204"/>
    </TTGlyph>
    <TTGlyph name="breve" xMin="177" yMin="489" xMax="345" yMax="578">
      <contour>
        <pt x="345" y="576" on="1"/>
        <pt x="339" y="541" on="0"/>
        <pt x="290" y="489" on="0"/>
        <pt x="248" y="489" on="1"/>
        <pt x="213" y="489" on="0"/>
        <pt x="177" y="528" on="0"/>
        <pt x="177" y="556" on="1"/>
        <pt x="177" y="566" on="0"/>
        <pt x="179" y="576" on="1"/>
        <pt x="203" y="578" on="1"/>
        <pt x="201" y="568" on="0"/>
        <pt x="201" y="561" on="0"/>
        <pt x="201" y="557" on="1"/>
        <pt x="201" y="539" on="0"/>
        <pt x="224" y="511" on="0"/>
        <pt x="249" y="511" on="1"/>
        <pt x="279" y="511" on="0"/>
        <pt x="314" y="551" on="0"/>
        <pt x="319" y="578" on="1"/>
        <pt x="345" y="576" on="1"/>
      </contour>
    </TTGlyph>
    <TTGlyph name="bullet" xMin="81" yMin="296" xMax="217" yMax="436">
      <contour>
        <pt x="217" y="372" on="1"/>
        <pt x="217" y="338" on="0"/>
        <pt x="173" y="296" on="0"/>
        <pt x="144" y="296" on="1"/>
        <pt x="118" y="296" on="0"/>
        <pt x="81" y="331" on="0"/>
        <pt x="81" y="360" on="1"/>
        <pt x="81" y="393" on="0"/>
        <pt x="125" y="436" on="0"/>
        <pt x="154" y="436" on="1"/>
        <pt x="181" y="436" on="0"/>
        <pt x="217" y="401" on="0"/>
      </contour>
    </TTGlyph>
    <TTGlyph name="c" xMin="16" yMin="-8" xMax="257" yMax="449">
      <contour>
        <pt x="237" y="390" on="1"/>
        <pt x="227" y="402" on="0"/>
        <pt x="199" y="421" on="0"/>
        <pt x="179" y="421" on="1"/>
        <pt x="149" y="421" on="0"/>
        <pt x="100" y="372" on="0"/>
        <pt x="65" y="294" on="0"/>
        <pt x="46" y="196" on="0"/>
        <pt x="46" y="147" on="1"/>
        <pt x="46" y="88" on="0"/>
        <pt x="82" y="20" on="0"/>
        <pt x="118" y="20" on="1"/>
        <pt x="136" y="20" on="0"/>
        <pt x="166" y="33" on="0"/>
        <pt x="182" y="46" on="1"/>
        <pt x="196" y="23" on="1"/>
        <pt x="158" y="-8" on="0"/>
        <pt x="118" y="-8" on="1"/>
        <pt x="70" y="-8" on="0"/>
        <pt x="16" y="66" on="0"/>
        <pt x="16" y="140" on="1"/>
        <pt x="16" y="200" on="0"/>
        <pt x="40" y="311" on="0"/>
        <pt x="83" y="397" on="0"/>
        <pt x="144" y="449" on="0"/>
        <pt x="180" y="449" on="1"/>
        <pt x="206" y="449" on="0"/>
        <pt x="245" y="426" on="0"/>
        <pt x="257" y="410" on="1"/>
      </contour>
    </TTGlyph>
    <TTGlyph name="cacute" xMin="16" yMin="-8" xMax="296" yMax="590">
      <component glyphName="c" x="0" y="0" flags="0x204"/>
      <component glyphName="acute" x="-17" y="0" flags="0x4"/>
    </TTGlyph>
    <TTGlyph name="caron" xMin="178" yMin="487" xMax="347" yMax="574">
      <contour>
        <pt x="250" y="487" on="1"/>
        <pt x="246" y="487" on="1"/>
        <pt x="178" y="574" on="1"/>
        <pt x="210" y="574" on="1"/>
        <pt x="252" y="520" on="1"/>
        <pt x="312" y="574" on="1"/>
        <pt x="347" y="574" on="1"/>
      </contour>
    </TTGlyph>
    <TTGlyph name="caron.alt" xMin="56" yMin="538" xMax="150" yMax="737">
      <contour>
        <pt x="150" y="732" on="1"/>
        <pt x="145" y="682" on="0"/>
        <pt x="108" y="579" on="0"/>
        <pt x="67" y="538" on="1"/>
        <pt x="56" y="548" on="1"/>
        <pt x="91" y="592" on="0"/>
        <pt x="119" y="689" on="0"/>
        <pt x="124" y="737" on="1"/>
      </contour>
    </TTGlyph>
    <TTGlyph name="ccaron" xMin="16" yMin="-8" xMax="284" yMax="574">
      <component glyphName="c" x="0" y="0" flags="0x204"/>
      <component glyphName="caron" x="-63" y="0" flags="0x4"/>
    </TTGlyph>
    <TTGlyph name="ccedilla" xMin="14" yMin="-169" xMax="257" yMax="449">
      <contour>
        <pt x="157" y="-107" on="1"/>
        <pt x="157" y="-132" on="0"/>
        <pt x="116" y="-169" on="0"/>
        <pt x="84" y="-169" on="1"/>
        <pt x="64" y="-169" on="0"/>
        <pt x="28" y="-155" on="0"/>
        <pt x="14" y="-145" on="1"/>
        <pt x="28" y="-122" on="1"/>
        <pt x="39" y="-130" on="0"/>
        <pt x="69" y="-143" on="0"/>
        <pt x="86" y="-143" on="1"/>
        <pt x="105" y="-143" on="0"/>
        <pt x="128" y="-122" on="0"/>
        <pt x="128" y="-107" on="1"/>
        <pt x="128" y="-73" on="0"/>
        <pt x="62" y="-64" on="1"/>
        <pt x="61" y="-60" on="1"/>
        <pt x="85" y="-3" on="1"/>
        <pt x="52" y="8" on="0"/>
        <pt x="16" y="80" on="0"/>
        <pt x="16" y="140" on="1"/>
        <pt x="16" y="200" on="0"/>
        <pt x="40" y="311" on="0"/>
        <pt x="83" y="397" on="0"/>
        <pt x="144" y="449" on="0"/>
        <pt x="180" y="449" on="1"/>
        <pt x="206" y="449" on="0"/>
        <pt x="245" y="426" on="0"/>
        <pt x="257" y="410" on="1"/>
        <pt x="237" y="390" on="1"/>
        <pt x="227" y="402" on="0"/>
        <pt x="199" y="421" on="0"/>
        <pt x="179" y="421" on="1"/>
        <pt x="149" y="421" on="0"/>
        <pt x="100" y="372" on="0"/>
        <pt x="65" y="294" on="0"/>
        <pt x="46" y="196" on="0"/>
        <pt x="46" y="147" on="1"/>
        <pt x="46" y="88" on="0"/>
        <pt x="82" y="20" on="0"/>
        <pt x="118" y="20" on="1"/>
        <pt x="136" y="20" on="0"/>
        <pt x="166" y="33" on="0"/>
        <pt x="182" y="46" on="1"/>
        <pt x="196" y="23" on="1"/>
        <pt x="158" y="-8" on="0"/>
        <pt x="118" y="-8" on="1"/>
        <pt x="112" y="-8" on="1"/>
        <pt x="96" y="-45" on="1"/>
        <pt x="128" y="-54" on="0"/>
        <pt x="157" y="-86" on="0"/>
      </contour>
    </TTGlyph>
    <TTGlyph name="cdotaccent" xMin="16" yMin="-8" xMax="257" yMax="540">
      <component glyphName="c" x="0" y="0" flags="0x204"/>
      <component glyphName="dotaccent" x="-60" y="0" flags="0x4"/>
    </TTGlyph>
    <TTGlyph name="cedilla" xMin="80" yMin="-169" xMax="223" yMax="14">
      <contour>
        <pt x="223" y="-107" on="1"/>
        <pt x="223" y="-132" on="0"/>
        <pt x="182" y="-169" on="0"/>
        <pt x="150" y="-169" on="1"/>
        <pt x="130" y="-169" on="0"/>
        <pt x="94" y="-155" on="0"/>
        <pt x="80" y="-145" on="1"/>
        <pt x="94" y="-122" on="1"/>
        <pt x="105" y="-130" on="0"/>
        <pt x="135" y="-143" on="0"/>
        <pt x="152" y="-143" on="1"/>
        <pt x="171" y="-143" on="0"/>
        <pt x="194" y="-122" on="0"/>
        <pt x="194" y="-107" on="1"/>
        <pt x="194" y="-73" on="0"/>
        <pt x="128" y="-64" on="1"/>
        <pt x="127" y="-60" on="1"/>
        <pt x="159" y="14" on="1"/>
        <pt x="184" y="6" on="1"/>
        <pt x="162" y="-45" on="1"/>
        <pt x="194" y="-54" on="0"/>
        <pt x="223" y="-86" on="0"/>
      </contour>
    </TTGlyph>
    <TTGlyph name="cent" xMin="17" yMin="-78" xMax="266" yMax="535">
      <contour>
        <pt x="216" y="445" on="1"/>
        <pt x="232" y="440" on="0"/>
        <pt x="257" y="421" on="0"/>
        <pt x="266" y="410" on="1"/>
        <pt x="247" y="390" on="1"/>
        <pt x="241" y="398" on="0"/>
        <pt x="221" y="413" on="0"/>
        <pt x="209" y="418" on="1"/>
        <pt x="114" y="19" on="1"/>
        <pt x="126" y="19" on="1"/>
        <pt x="146" y="19" on="0"/>
        <pt x="177" y="34" on="0"/>
        <pt x="191" y="45" on="1"/>
        <pt x="205" y="23" on="1"/>
        <pt x="185" y="7" on="0"/>
        <pt x="144" y="-8" on="0"/>
        <pt x="125" y="-8" on="1"/>
        <pt x="118" y="-8" on="0"/>
        <pt x="108" y="-6" on="1"/>
        <pt x="91" y="-78" on="1"/>
        <pt x="66" y="-77" on="1"/>
        <pt x="84" y="0" on="1"/>
        <pt x="53" y="14" on="0"/>
        <pt x="17" y="85" on="0"/>
        <pt x="17" y="144" on="1"/>
        <pt x="17" y="203" on="0"/>
        <pt x="41" y="313" on="0"/>
        <pt x="86" y="398" on="0"/>
        <pt x="149" y="449" on="0"/>
        <pt x="189" y="449" on="1"/>
        <pt x="191" y="449" on="1"/>
        <pt x="212" y="535" on="1"/>
        <pt x="237" y="534" on="1"/>
      </contour>
      <contour>
        <pt x="46" y="147" on="1"/>
        <pt x="46" y="54" on="0"/>
        <pt x="91" y="28" on="1"/>
        <pt x="185" y="422" on="1"/>
        <pt x="184" y="422" on="1"/>
        <pt x="152" y="422" on="0"/>
        <pt x="101" y="373" on="0"/>
        <pt x="65" y="294" on="0"/>
        <pt x="46" y="196" on="0"/>
      </contour>
    </TTGlyph>
    <TTGlyph name="cent.lin" xMin="42" yMin="64" xMax="291" yMax="677">
      <component glyphName="cent" x="25" y="142" flags="0x204"/>
    </TTGlyph>
    <TTGlyph name="circumflex" xMin="163" yMin="487" xMax="332" yMax="574">
      <contour>
        <pt x="300" y="487" on="1"/>
        <pt x="258" y="541" on="1"/>
        <pt x="198" y="487" on="1"/>
        <pt x="163" y="487" on="1"/>
        <pt x="260" y="574" on="1"/>
        <pt x="264" y="574" on="1"/>
        <pt x="332" y="487" on="1"/>
      </contour>
    </TTGlyph>
    <TTGlyph name="colon" xMin="-17" yMin="-8" xMax="101" yMax="395">
      <contour>
        <pt x="101" y="368" on="1"/>
        <pt x="101" y="354" on="0"/>
        <pt x="82" y="337" on="0"/>
        <pt x="71" y="337" on="1"/>
        <pt x="60" y="337" on="0"/>
        <pt x="44" y="352" on="0"/>
        <pt x="44" y="364" on="1"/>
        <pt x="44" y="378" on="0"/>
        <pt x="63" y="395" on="0"/>
        <pt x="74" y="395" on="1"/>
        <pt x="85" y="395" on="0"/>
        <pt x="101" y="380" on="0"/>
      </contour>
      <contour>
        <pt x="40" y="23" on="1"/>
        <pt x="40" y="9" on="0"/>
        <pt x="21" y="-8" on="0"/>
        <pt x="10" y="-8" on="1"/>
        <pt x="-1" y="-8" on="0"/>
        <pt x="-17" y="7" on="0"/>
        <pt x="-17" y="19" on="1"/>
        <pt x="-17" y="33" on="0"/>
        <pt x="2" y="50" on="0"/>
        <pt x="13" y="50" on="1"/>
        <pt x="24" y="50" on="0"/>
        <pt x="40" y="35" on="0"/>
      </contour>
    </TTGlyph>
    <TTGlyph name="comma" xMin="-47" yMin="-86" xMax="39" yMax="50">
      <contour>
        <pt x="39" y="14" on="1"/>
        <pt x="39" y="-2" on="0"/>
        <pt x="24" y="-33" on="0"/>
        <pt x="0" y="-59" on="0"/>
        <pt x="-28" y="-80" on="0"/>
        <pt x="-40" y="-86" on="1"/>
        <pt x="-47" y="-75" on="1"/>
        <pt x="-27" y="-62" on="0"/>
        <pt x="5" y="-29" on="0"/>
        <pt x="10" y="-9" on="1"/>
        <pt x="-6" y="-5" on="0"/>
        <pt x="-18" y="12" on="0"/>
        <pt x="-18" y="21" on="1"/>
        <pt x="-18" y="33" on="0"/>
        <pt x="-2" y="50" on="0"/>
        <pt x="9" y="50" on="1"/>
        <pt x="22" y="50" on="0"/>
        <pt x="39" y="31" on="0"/>
      </contour>
    </TTGlyph>
    <TTGlyph name="commaaccent" xMin="26" yMin="-194" xMax="112" yMax="-58">
      <contour>
        <pt x="112" y="-94" on="1"/>
        <pt x="112" y="-110" on="0"/>
        <pt x="97" y="-141" on="0"/>
        <pt x="73" y="-167" on="0"/>
        <pt x="45" y="-188" on="0"/>
        <pt x="33" y="-194" on="1"/>
        <pt x="26" y="-183" on="1"/>
        <pt x="46" y="-170" on="0"/>
        <pt x="78" y="-137" on="0"/>
        <pt x="83" y="-117" on="1"/>
        <pt x="67" y="-113" on="0"/>
        <pt x="55" y="-96" on="0"/>
        <pt x="55" y="-87" on="1"/>
        <pt x="55" y="-75" on="0"/>
        <pt x="71" y="-58" on="0"/>
        <pt x="82" y="-58" on="1"/>
        <pt x="95" y="-58" on="0"/>
        <pt x="112" y="-77" on="0"/>
      </contour>
    </TTGlyph>
    <TTGlyph name="copyright" xMin="52" yMin="-12" xMax="517" yMax="744">
      <contour>
        <pt x="319" y="195" on="1"/>
        <pt x="311" y="188" on="0"/>
        <pt x="285" y="180" on="0"/>
        <pt x="273" y="180" on="1"/>
        <pt x="230" y="180" on="0"/>
        <pt x="188" y="245" on="0"/>
        <pt x="188" y="306" on="1"/>
        <pt x="188" y="347" on="0"/>
        <pt x="207" y="434" on="0"/>
        <pt x="241" y="506" on="0"/>
        <pt x="291" y="553" on="0"/>
        <pt x="323" y="553" on="1"/>
        <pt x="352" y="553" on="0"/>
        <pt x="377" y="530" on="1"/>
        <pt x="359" y="507" on="1"/>
        <pt x="351" y="515" on="0"/>
        <pt x="334" y="525" on="0"/>
        <pt x="320" y="525" on="1"/>
        <pt x="299" y="525" on="0"/>
        <pt x="262" y="487" on="0"/>
        <pt x="234" y="424" on="0"/>
        <pt x="218" y="345" on="0"/>
        <pt x="218" y="304" on="1"/>
        <pt x="218" y="254" on="0"/>
        <pt x="249" y="209" on="0"/>
        <pt x="272" y="209" on="1"/>
        <pt x="286" y="209" on="0"/>
        <pt x="307" y="217" on="0"/>
        <pt x="311" y="220" on="1"/>
      </contour>
      <contour>
        <pt x="492" y="462" on="1"/>
        <pt x="492" y="518" on="0"/>
        <pt x="471" y="613" on="0"/>
        <pt x="431" y="682" on="0"/>
        <pt x="372" y="721" on="0"/>
        <pt x="335" y="721" on="1"/>
        <pt x="283" y="721" on="0"/>
        <pt x="189" y="643" on="0"/>
        <pt x="119" y="516" on="0"/>
        <pt x="77" y="354" on="0"/>
        <pt x="77" y="270" on="1"/>
        <pt x="77" y="214" on="0"/>
        <pt x="98" y="120" on="0"/>
        <pt x="139" y="50" on="0"/>
        <pt x="197" y="11" on="0"/>
        <pt x="234" y="11" on="1"/>
        <pt x="285" y="11" on="0"/>
        <pt x="379" y="87" on="0"/>
        <pt x="450" y="213" on="0"/>
        <pt x="492" y="375" on="0"/>
      </contour>
      <contour>
        <pt x="517" y="463" on="1"/>
        <pt x="517" y="404" on="0"/>
        <pt x="497" y="287" on="0"/>
        <pt x="460" y="182" on="0"/>
        <pt x="408" y="92" on="0"/>
        <pt x="344" y="25" on="0"/>
        <pt x="271" y="-12" on="0"/>
        <pt x="231" y="-12" on="1"/>
        <pt x="189" y="-12" on="0"/>
        <pt x="123" y="30" on="0"/>
        <pt x="76" y="105" on="0"/>
        <pt x="52" y="208" on="0"/>
        <pt x="52" y="269" on="1"/>
        <pt x="52" y="328" on="0"/>
        <pt x="72" y="445" on="0"/>
        <pt x="109" y="550" on="0"/>
        <pt x="161" y="640" on="0"/>
        <pt x="225" y="707" on="0"/>
        <pt x="298" y="744" on="0"/>
        <pt x="338" y="744" on="1"/>
        <pt x="380" y="744" on="0"/>
        <pt x="447" y="702" on="0"/>
        <pt x="493" y="627" on="0"/>
        <pt x="517" y="524" on="0"/>
      </contour>
    </TTGlyph>
    <TTGlyph name="d" xMin="16" yMin="-7" xMax="339" yMax="733">
      <contour>
        <pt x="209" y="0" on="1"/>
        <pt x="180" y="0" on="1"/>
        <pt x="188" y="45" on="1"/>
        <pt x="166" y="21" on="0"/>
        <pt x="124" y="-7" on="0"/>
        <pt x="99" y="-7" on="1"/>
        <pt x="84" y="-7" on="0"/>
        <pt x="55" y="6" on="0"/>
        <pt x="31" y="37" on="0"/>
        <pt x="16" y="88" on="0"/>
        <pt x="16" y="126" on="1"/>
        <pt x="16" y="175" on="0"/>
        <pt x="36" y="288" on="0"/>
        <pt x="76" y="384" on="0"/>
        <pt x="133" y="448" on="0"/>
        <pt x="171" y="448" on="1"/>
        <pt x="201" y="448" on="0"/>
        <pt x="236" y="414" on="0"/>
        <pt x="249" y="394" on="1"/>
        <pt x="309" y="733" on="1"/>
        <pt x="339" y="733" on="1"/>
      </contour>
      <contour>
        <pt x="243" y="362" on="1"/>
        <pt x="231" y="385" on="0"/>
        <pt x="197" y="420" on="0"/>
        <pt x="174" y="420" on="1"/>
        <pt x="144" y="420" on="0"/>
        <pt x="96" y="360" on="0"/>
        <pt x="63" y="272" on="0"/>
        <pt x="45" y="172" on="0"/>
        <pt x="45" y="131" on="1"/>
        <pt x="45" y="71" on="0"/>
        <pt x="80" y="21" on="0"/>
        <pt x="104" y="21" on="1"/>
        <pt x="131" y="21" on="0"/>
        <pt x="173" y="56" on="0"/>
        <pt x="193" y="77" on="1"/>
      </contour>
    </TTGlyph>
    <TTGlyph name="dagger" xMin="86" yMin="213" xMax="287" yMax="733">
      <contour>
        <pt x="282" y="603" on="1"/>
        <pt x="198" y="603" on="1"/>
        <pt x="130" y="213" on="1"/>
        <pt x="102" y="213" on="1"/>
        <pt x="170" y="603" on="1"/>
        <pt x="86" y="603" on="1"/>
        <pt x="91" y="631" on="1"/>
        <pt x="175" y="631" on="1"/>
        <pt x="193" y="733" on="1"/>
        <pt x="221" y="733" on="1"/>
        <pt x="203" y="631" on="1"/>
        <pt x="287" y="631" on="1"/>
      </contour>
    </TTGlyph>
    <TTGlyph name="daggerdbl" xMin="64" yMin="213" xMax="305" yMax="733">
      <contour>
        <pt x="300" y="573" on="1"/>
        <pt x="216" y="573" on="1"/>
        <pt x="181" y="373" on="1"/>
        <pt x="265" y="373" on="1"/>
        <pt x="260" y="345" on="1"/>
        <pt x="176" y="345" on="1"/>
        <pt x="153" y="213" on="1"/>
        <pt x="125" y="213" on="1"/>
        <pt x="148" y="345" on="1"/>
        <pt x="64" y="345" on="1"/>
        <pt x="69" y="373" on="1"/>
        <pt x="153" y="373" on="1"/>
        <pt x="188" y="573" on="1"/>
        <pt x="104" y="573" on="1"/>
        <pt x="109" y="601" on="1"/>
        <pt x="193" y="601" on="1"/>
        <pt x="216" y="733" on="1"/>
        <pt x="244" y="733" on="1"/>
        <pt x="221" y="601" on="1"/>
        <pt x="305" y="601" on="1"/>
      </contour>
    </TTGlyph>
    <TTGlyph name="dcaron" xMin="16" yMin="-7" xMax="425" yMax="734">
      <component glyphName="d" x="0" y="0" flags="0x204"/>
      <component glyphName="caron.alt" x="275" y="-3" flags="0x4"/>
    </TTGlyph>
    <TTGlyph name="dcroat" xMin="16" yMin="-7" xMax="361" yMax="733">
      <contour>
        <pt x="317" y="608" on="1"/>
        <pt x="361" y="608" on="1"/>
        <pt x="356" y="580" on="1"/>
        <pt x="312" y="580" on="1"/>
        <pt x="209" y="0" on="1"/>
        <pt x="180" y="0" on="1"/>
        <pt x="188" y="45" on="1"/>
        <pt x="166" y="21" on="0"/>
        <pt x="124" y="-7" on="0"/>
        <pt x="99" y="-7" on="1"/>
        <pt x="84" y="-7" on="0"/>
        <pt x="55" y="6" on="0"/>
        <pt x="31" y="37" on="0"/>
        <pt x="16" y="88" on="0"/>
        <pt x="16" y="126" on="1"/>
        <pt x="16" y="175" on="0"/>
        <pt x="36" y="288" on="0"/>
        <pt x="76" y="384" on="0"/>
        <pt x="133" y="448" on="0"/>
        <pt x="171" y="448" on="1"/>
        <pt x="201" y="448" on="0"/>
        <pt x="236" y="414" on="0"/>
        <pt x="249" y="394" on="1"/>
        <pt x="282" y="580" on="1"/>
        <pt x="187" y="580" on="1"/>
        <pt x="192" y="608" on="1"/>
        <pt x="287" y="608" on="1"/>
        <pt x="309" y="733" on="1"/>
        <pt x="339" y="733" on="1"/>
      </contour>
      <contour>
        <pt x="243" y="362" on="1"/>
        <pt x="231" y="385" on="0"/>
        <pt x="197" y="420" on="0"/>
        <pt x="174" y="420" on="1"/>
        <pt x="144" y="420" on="0"/>
        <pt x="96" y="360" on="0"/>
        <pt x="63" y="272" on="0"/>
        <pt x="45" y="172" on="0"/>
        <pt x="45" y="131" on="1"/>
        <pt x="45" y="71" on="0"/>
        <pt x="80" y="21" on="0"/>
        <pt x="104" y="21" on="1"/>
        <pt x="131" y="21" on="0"/>
        <pt x="173" y="56" on="0"/>
        <pt x="193" y="77" on="1"/>
      </contour>
    </TTGlyph>
    <TTGlyph name="degree" xMin="103" yMin="487" xMax="338" yMax="729">
      <contour>
        <pt x="338" y="619" on="1"/>
        <pt x="338" y="590" on="0"/>
        <pt x="317" y="542" on="0"/>
        <pt x="283" y="507" on="0"/>
        <pt x="237" y="487" on="0"/>
        <pt x="212" y="487" on="1"/>
        <pt x="165" y="487" on="0"/>
        <pt x="103" y="548" on="0"/>
        <pt x="103" y="597" on="1"/>
        <pt x="103" y="625" on="0"/>
        <pt x="124" y="674" on="0"/>
        <pt x="158" y="709" on="0"/>
        <pt x="204" y="729" on="0"/>
        <pt x="229" y="729" on="1"/>
        <pt x="276" y="729" on="0"/>
        <pt x="338" y="668" on="0"/>
      </contour>
      <contour>
        <pt x="310" y="617" on="1"/>
        <pt x="310" y="656" on="0"/>
        <pt x="264" y="705" on="0"/>
        <pt x="228" y="705" on="1"/>
        <pt x="208" y="705" on="0"/>
        <pt x="172" y="689" on="0"/>
        <pt x="146" y="660" on="0"/>
        <pt x="131" y="621" on="0"/>
        <pt x="131" y="599" on="1"/>
        <pt x="131" y="560" on="0"/>
        <pt x="177" y="511" on="0"/>
        <pt x="213" y="511" on="1"/>
        <pt x="233" y="511" on="0"/>
        <pt x="269" y="527" on="0"/>
        <pt x="295" y="556" on="0"/>
        <pt x="310" y="594" on="0"/>
      </contour>
    </TTGlyph>
    <TTGlyph name="degree.lin" xMin="103" yMin="487" xMax="338" yMax="729">
      <contour>
        <pt x="338" y="619" on="1"/>
        <pt x="338" y="590" on="0"/>
        <pt x="317" y="542" on="0"/>
        <pt x="283" y="507" on="0"/>
        <pt x="237" y="487" on="0"/>
        <pt x="212" y="487" on="1"/>
        <pt x="165" y="487" on="0"/>
        <pt x="103" y="548" on="0"/>
        <pt x="103" y="597" on="1"/>
        <pt x="103" y="625" on="0"/>
        <pt x="124" y="674" on="0"/>
        <pt x="158" y="709" on="0"/>
        <pt x="204" y="729" on="0"/>
        <pt x="229" y="729" on="1"/>
        <pt x="276" y="729" on="0"/>
        <pt x="338" y="668" on="0"/>
      </contour>
      <contour>
        <pt x="310" y="617" on="1"/>
        <pt x="310" y="656" on="0"/>
        <pt x="264" y="705" on="0"/>
        <pt x="228" y="705" on="1"/>
        <pt x="208" y="705" on="0"/>
        <pt x="172" y="689" on="0"/>
        <pt x="146" y="660" on="0"/>
        <pt x="131" y="621" on="0"/>
        <pt x="131" y="599" on="1"/>
        <pt x="131" y="560" on="0"/>
        <pt x="177" y="511" on="0"/>
        <pt x="213" y="511" on="1"/>
        <pt x="233" y="511" on="0"/>
        <pt x="269" y="527" on="0"/>
        <pt x="295" y="556" on="0"/>
        <pt x="310" y="594" on="0"/>
      </contour>
    </TTGlyph>
    <TTGlyph name="dieresis" xMin="176" yMin="488" xMax="327" yMax="540">
      <contour>
        <pt x="227" y="516" on="1"/>
        <pt x="227" y="504" on="0"/>
        <pt x="211" y="488" on="0"/>
        <pt x="200" y="488" on="1"/>
        <pt x="190" y="488" on="0"/>
        <pt x="176" y="501" on="0"/>
        <pt x="176" y="512" on="1"/>
        <pt x="176" y="524" on="0"/>
        <pt x="192" y="540" on="0"/>
        <pt x="203" y="540" on="1"/>
        <pt x="213" y="540" on="0"/>
        <pt x="227" y="527" on="0"/>
      </contour>
      <contour>
        <pt x="327" y="516" on="1"/>
        <pt x="327" y="504" on="0"/>
        <pt x="311" y="488" on="0"/>
        <pt x="300" y="488" on="1"/>
        <pt x="290" y="488" on="0"/>
        <pt x="276" y="501" on="0"/>
        <pt x="276" y="512" on="1"/>
        <pt x="276" y="524" on="0"/>
        <pt x="292" y="540" on="0"/>
        <pt x="303" y="540" on="1"/>
        <pt x="313" y="540" on="0"/>
        <pt x="327" y="527" on="0"/>
      </contour>
    </TTGlyph>
    <TTGlyph name="divide" xMin="50" yMin="233" xMax="315" yMax="509">
      <contour>
        <pt x="189" y="261" on="1"/>
        <pt x="189" y="248" on="0"/>
        <pt x="172" y="233" on="0"/>
        <pt x="162" y="233" on="1"/>
        <pt x="151" y="233" on="0"/>
        <pt x="138" y="246" on="0"/>
        <pt x="138" y="257" on="1"/>
        <pt x="138" y="270" on="0"/>
        <pt x="155" y="285" on="0"/>
        <pt x="165" y="285" on="1"/>
        <pt x="176" y="285" on="0"/>
        <pt x="189" y="272" on="0"/>
      </contour>
      <contour>
        <pt x="55" y="385" on="1"/>
        <pt x="315" y="385" on="1"/>
        <pt x="310" y="357" on="1"/>
        <pt x="50" y="357" on="1"/>
      </contour>
      <contour>
        <pt x="228" y="485" on="1"/>
        <pt x="228" y="472" on="0"/>
        <pt x="211" y="457" on="0"/>
        <pt x="201" y="457" on="1"/>
        <pt x="190" y="457" on="0"/>
        <pt x="177" y="470" on="0"/>
        <pt x="177" y="481" on="1"/>
        <pt x="177" y="494" on="0"/>
        <pt x="194" y="509" on="0"/>
        <pt x="204" y="509" on="1"/>
        <pt x="215" y="509" on="0"/>
        <pt x="228" y="496" on="0"/>
      </contour>
    </TTGlyph>
    <TTGlyph name="divide.lin" xMin="50" yMin="233" xMax="315" yMax="509">
      <component glyphName="divide" x="0" y="0" flags="0x204"/>
    </TTGlyph>
    <TTGlyph name="dollar" xMin="-26" yMin="-71" xMax="354" yMax="777">
      <contour>
        <pt x="300" y="713" on="1"/>
        <pt x="331" y="697" on="0"/>
        <pt x="354" y="668" on="1"/>
        <pt x="336" y="644" on="1"/>
        <pt x="320" y="669" on="0"/>
        <pt x="292" y="686" on="1"/>
        <pt x="193" y="384" on="1"/>
        <pt x="225" y="337" on="0"/>
        <pt x="276" y="233" on="0"/>
        <pt x="276" y="175" on="1"/>
        <pt x="276" y="134" on="0"/>
        <pt x="252" y="67" on="0"/>
        <pt x="209" y="19" on="0"/>
        <pt x="150" y="-8" on="0"/>
        <pt x="116" y="-8" on="1"/>
        <pt x="91" y="-8" on="0"/>
        <pt x="67" y="0" on="1"/>
        <pt x="45" y="-71" on="1"/>
        <pt x="20" y="-67" on="1"/>
        <pt x="44" y="9" on="1"/>
        <pt x="21" y="21" on="0"/>
        <pt x="-14" y="58" on="0"/>
        <pt x="-26" y="79" on="1"/>
        <pt x="-7" y="103" on="1"/>
        <pt x="18" y="57" on="0"/>
        <pt x="53" y="36" on="1"/>
        <pt x="163" y="376" on="1"/>
        <pt x="161" y="380" on="1"/>
        <pt x="130" y="425" on="0"/>
        <pt x="88" y="518" on="0"/>
        <pt x="88" y="566" on="1"/>
        <pt x="88" y="602" on="0"/>
        <pt x="109" y="661" on="0"/>
        <pt x="147" y="705" on="0"/>
        <pt x="200" y="729" on="0"/>
        <pt x="232" y="729" on="1"/>
        <pt x="244" y="729" on="0"/>
        <pt x="266" y="725" on="0"/>
        <pt x="277" y="722" on="1"/>
        <pt x="295" y="777" on="1"/>
        <pt x="320" y="773" on="1"/>
      </contour>
      <contour>
        <pt x="245" y="176" on="1"/>
        <pt x="245" y="229" on="0"/>
        <pt x="206" y="312" on="0"/>
        <pt x="180" y="351" on="1"/>
        <pt x="76" y="26" on="1"/>
        <pt x="94" y="19" on="0"/>
        <pt x="117" y="19" on="1"/>
        <pt x="176" y="19" on="0"/>
        <pt x="245" y="106" on="0"/>
      </contour>
      <contour>
        <pt x="118" y="570" on="1"/>
        <pt x="118" y="527" on="0"/>
        <pt x="149" y="450" on="0"/>
        <pt x="176" y="409" on="1"/>
        <pt x="268" y="696" on="1"/>
        <pt x="250" y="702" on="0"/>
        <pt x="230" y="702" on="1"/>
        <pt x="180" y="702" on="0"/>
        <pt x="118" y="629" on="0"/>
      </contour>
    </TTGlyph>
    <TTGlyph name="dollar.lin" xMin="-26" yMin="-71" xMax="354" yMax="777">
      <contour>
        <pt x="300" y="713" on="1"/>
        <pt x="331" y="697" on="0"/>
        <pt x="354" y="668" on="1"/>
        <pt x="336" y="644" on="1"/>
        <pt x="320" y="669" on="0"/>
        <pt x="292" y="686" on="1"/>
        <pt x="193" y="384" on="1"/>
        <pt x="225" y="337" on="0"/>
        <pt x="276" y="233" on="0"/>
        <pt x="276" y="175" on="1"/>
        <pt x="276" y="134" on="0"/>
        <pt x="252" y="67" on="0"/>
        <pt x="209" y="19" on="0"/>
        <pt x="150" y="-8" on="0"/>
        <pt x="116" y="-8" on="1"/>
        <pt x="91" y="-8" on="0"/>
        <pt x="67" y="0" on="1"/>
        <pt x="45" y="-71" on="1"/>
        <pt x="20" y="-67" on="1"/>
        <pt x="44" y="9" on="1"/>
        <pt x="21" y="21" on="0"/>
        <pt x="-14" y="58" on="0"/>
        <pt x="-26" y="79" on="1"/>
        <pt x="-7" y="103" on="1"/>
        <pt x="18" y="57" on="0"/>
        <pt x="53" y="36" on="1"/>
        <pt x="163" y="376" on="1"/>
        <pt x="161" y="380" on="1"/>
        <pt x="130" y="425" on="0"/>
        <pt x="88" y="518" on="0"/>
        <pt x="88" y="566" on="1"/>
        <pt x="88" y="602" on="0"/>
        <pt x="109" y="661" on="0"/>
        <pt x="147" y="705" on="0"/>
        <pt x="200" y="729" on="0"/>
        <pt x="232" y="729" on="1"/>
        <pt x="244" y="729" on="0"/>
        <pt x="266" y="725" on="0"/>
        <pt x="277" y="722" on="1"/>
        <pt x="295" y="777" on="1"/>
        <pt x="320" y="773" on="1"/>
      </contour>
      <contour>
        <pt x="245" y="176" on="1"/>
        <pt x="245" y="229" on="0"/>
        <pt x="206" y="312" on="0"/>
        <pt x="180" y="351" on="1"/>
        <pt x="76" y="26" on="1"/>
        <pt x="94" y="19" on="0"/>
        <pt x="117" y="19" on="1"/>
        <pt x="176" y="19" on="0"/>
        <pt x="245" y="106" on="0"/>
      </contour>
      <contour>
        <pt x="118" y="570" on="1"/>
        <pt x="118" y="527" on="0"/>
        <pt x="149" y="450" on="0"/>
        <pt x="176" y="409" on="1"/>
        <pt x="268" y="696" on="1"/>
        <pt x="250" y="702" on="0"/>
        <pt x="230" y="702" on="1"/>
        <pt x="180" y="702" on="0"/>
        <pt x="118" y="629" on="0"/>
      </contour>
    </TTGlyph>
    <TTGlyph name="dotaccent" xMin="226" yMin="488" xMax="277" yMax="540">
      <contour>
        <pt x="277" y="516" on="1"/>
        <pt x="277" y="503" on="0"/>
        <pt x="260" y="488" on="0"/>
        <pt x="250" y="488" on="1"/>
        <pt x="239" y="488" on="0"/>
        <pt x="226" y="501" on="0"/>
        <pt x="226" y="512" on="1"/>
        <pt x="226" y="525" on="0"/>
        <pt x="243" y="540" on="0"/>
        <pt x="253" y="540" on="1"/>
        <pt x="264" y="540" on="0"/>
        <pt x="277" y="527" on="0"/>
      </contour>
    </TTGlyph>
    <TTGlyph name="dotlessi" xMin="11" yMin="0" xMax="118" yMax="441">
      <contour>
        <pt x="41" y="0" on="1"/>
        <pt x="11" y="0" on="1"/>
        <pt x="88" y="441" on="1"/>
        <pt x="118" y="441" on="1"/>
      </contour>
    </TTGlyph>
    <TTGlyph name="e" xMin="16" yMin="-10" xMax="251" yMax="451">
      <contour>
        <pt x="115" y="-10" on="1"/>
        <pt x="72" y="-10" on="0"/>
        <pt x="16" y="57" on="0"/>
        <pt x="16" y="133" on="1"/>
        <pt x="16" y="184" on="0"/>
        <pt x="39" y="296" on="0"/>
        <pt x="81" y="390" on="0"/>
        <pt x="141" y="451" on="0"/>
        <pt x="177" y="451" on="1"/>
        <pt x="214" y="451" on="0"/>
        <pt x="251" y="383" on="0"/>
        <pt x="251" y="324" on="1"/>
        <pt x="251" y="313" on="0"/>
        <pt x="249" y="285" on="0"/>
        <pt x="244" y="253" on="0"/>
        <pt x="238" y="222" on="0"/>
        <pt x="235" y="210" on="1"/>
        <pt x="53" y="210" on="1"/>
        <pt x="49" y="187" on="0"/>
        <pt x="47" y="147" on="0"/>
        <pt x="47" y="130" on="1"/>
        <pt x="47" y="76" on="0"/>
        <pt x="82" y="18" on="0"/>
        <pt x="117" y="18" on="1"/>
        <pt x="137" y="18" on="0"/>
        <pt x="171" y="35" on="0"/>
        <pt x="185" y="46" on="1"/>
        <pt x="198" y="23" on="1"/>
        <pt x="181" y="9" on="0"/>
        <pt x="141" y="-10" on="0"/>
      </contour>
      <contour>
        <pt x="211" y="236" on="1"/>
        <pt x="215" y="254" on="0"/>
        <pt x="221" y="304" on="0"/>
        <pt x="221" y="325" on="1"/>
        <pt x="221" y="370" on="0"/>
        <pt x="199" y="424" on="0"/>
        <pt x="174" y="424" on="1"/>
        <pt x="155" y="424" on="0"/>
        <pt x="119" y="393" on="0"/>
        <pt x="89" y="341" on="0"/>
        <pt x="65" y="273" on="0"/>
        <pt x="58" y="236" on="1"/>
      </contour>
    </TTGlyph>
    <TTGlyph name="eacute" xMin="16" yMin="-10" xMax="296" yMax="590">
      <component glyphName="e" x="0" y="0" flags="0x204"/>
      <component glyphName="acute" x="-17" y="0" flags="0x4"/>
    </TTGlyph>
    <TTGlyph name="ebreve" xMin="16" yMin="-10" xMax="286" yMax="578">
      <component glyphName="e" x="0" y="0" flags="0x204"/>
      <component glyphName="breve" x="-59" y="0" flags="0x4"/>
    </TTGlyph>
    <TTGlyph name="ecaron" xMin="16" yMin="-10" xMax="284" yMax="574">
      <component glyphName="e" x="0" y="0" flags="0x204"/>
      <component glyphName="caron" x="-63" y="0" flags="0x4"/>
    </TTGlyph>
    <TTGlyph name="ecircumflex" xMin="16" yMin="-10" xMax="271" yMax="574">
      <component glyphName="e" x="0" y="0" flags="0x204"/>
      <component glyphName="circumflex" x="-61" y="0" flags="0x4"/>
    </TTGlyph>
    <TTGlyph name="edieresis" xMin="16" yMin="-10" xMax="266" yMax="540">
      <component glyphName="e" x="0" y="0" flags="0x204"/>
      <component glyphName="dieresis" x="-61" y="0" flags="0x4"/>
    </TTGlyph>
    <TTGlyph name="edotaccent" xMin="16" yMin="-10" xMax="251" yMax="540">
      <component glyphName="e" x="0" y="0" flags="0x204"/>
      <component glyphName="dotaccent" x="-60" y="0" flags="0x4"/>
    </TTGlyph>
    <TTGlyph name="egrave" xMin="16" yMin="-10" xMax="251" yMax="595">
      <component glyphName="e" x="0" y="0" flags="0x204"/>
      <component glyphName="grave" x="-90" y="0" flags="0x4"/>
    </TTGlyph>
    <TTGlyph name="eight" xMin="13" yMin="-8" xMax="328" yMax="729">
      <contour>
        <pt x="328" y="591" on="1"/>
        <pt x="328" y="557" on="0"/>
        <pt x="315" y="488" on="0"/>
        <pt x="288" y="426" on="0"/>
        <pt x="247" y="376" on="0"/>
        <pt x="219" y="363" on="1"/>
        <pt x="248" y="342" on="0"/>
        <pt x="276" y="270" on="0"/>
        <pt x="276" y="227" on="1"/>
        <pt x="276" y="180" on="0"/>
        <pt x="254" y="94" on="0"/>
        <pt x="214" y="30" on="0"/>
        <pt x="159" y="-8" on="0"/>
        <pt x="125" y="-8" on="1"/>
        <pt x="76" y="-8" on="0"/>
        <pt x="13" y="67" on="0"/>
        <pt x="13" y="145" on="1"/>
        <pt x="13" y="170" on="0"/>
        <pt x="25" y="236" on="0"/>
        <pt x="52" y="301" on="0"/>
        <pt x="97" y="356" on="0"/>
        <pt x="130" y="371" on="1"/>
        <pt x="106" y="391" on="0"/>
        <pt x="82" y="454" on="0"/>
        <pt x="82" y="493" on="1"/>
        <pt x="82" y="539" on="0"/>
        <pt x="104" y="624" on="0"/>
        <pt x="143" y="690" on="0"/>
        <pt x="197" y="729" on="0"/>
        <pt x="229" y="729" on="1"/>
        <pt x="276" y="729" on="0"/>
        <pt x="328" y="656" on="0"/>
      </contour>
      <contour>
        <pt x="298" y="593" on="1"/>
        <pt x="298" y="647" on="0"/>
        <pt x="260" y="702" on="0"/>
        <pt x="228" y="702" on="1"/>
        <pt x="203" y="702" on="0"/>
        <pt x="160" y="666" on="0"/>
        <pt x="129" y="607" on="0"/>
        <pt x="112" y="532" on="0"/>
        <pt x="112" y="492" on="1"/>
        <pt x="112" y="441" on="0"/>
        <pt x="151" y="380" on="0"/>
        <pt x="183" y="380" on="1"/>
        <pt x="206" y="380" on="0"/>
        <pt x="248" y="413" on="0"/>
        <pt x="279" y="470" on="0"/>
        <pt x="298" y="548" on="0"/>
      </contour>
      <contour>
        <pt x="246" y="226" on="1"/>
        <pt x="246" y="288" on="0"/>
        <pt x="202" y="353" on="0"/>
        <pt x="167" y="353" on="1"/>
        <pt x="142" y="353" on="0"/>
        <pt x="97" y="319" on="0"/>
        <pt x="63" y="261" on="0"/>
        <pt x="43" y="185" on="0"/>
        <pt x="43" y="142" on="1"/>
        <pt x="43" y="82" on="0"/>
        <pt x="88" y="19" on="0"/>
        <pt x="126" y="19" on="1"/>
        <pt x="152" y="19" on="0"/>
        <pt x="196" y="52" on="0"/>
        <pt x="228" y="109" on="0"/>
        <pt x="246" y="184" on="0"/>
      </contour>
    </TTGlyph>
    <TTGlyph name="eight.lin" xMin="13" yMin="-8" xMax="328" yMax="729">
      <contour>
        <pt x="125" y="-8" on="1"/>
        <pt x="76" y="-8" on="0"/>
        <pt x="13" y="67" on="0"/>
        <pt x="13" y="145" on="1"/>
        <pt x="13" y="170" on="0"/>
        <pt x="25" y="236" on="0"/>
        <pt x="52" y="301" on="0"/>
        <pt x="97" y="356" on="0"/>
        <pt x="130" y="371" on="1"/>
        <pt x="106" y="391" on="0"/>
        <pt x="82" y="454" on="0"/>
        <pt x="82" y="493" on="1"/>
        <pt x="82" y="539" on="0"/>
        <pt x="104" y="624" on="0"/>
        <pt x="143" y="690" on="0"/>
        <pt x="197" y="729" on="0"/>
        <pt x="229" y="729" on="1"/>
        <pt x="276" y="729" on="0"/>
        <pt x="328" y="656" on="0"/>
        <pt x="328" y="591" on="1"/>
        <pt x="328" y="557" on="0"/>
        <pt x="315" y="488" on="0"/>
        <pt x="288" y="426" on="0"/>
        <pt x="247" y="376" on="0"/>
        <pt x="219" y="363" on="1"/>
        <pt x="248" y="342" on="0"/>
        <pt x="276" y="270" on="0"/>
        <pt x="276" y="227" on="1"/>
        <pt x="276" y="180" on="0"/>
        <pt x="254" y="94" on="0"/>
        <pt x="214" y="30" on="0"/>
        <pt x="159" y="-8" on="0"/>
      </contour>
      <contour>
        <pt x="246" y="226" on="1"/>
        <pt x="246" y="288" on="0"/>
        <pt x="202" y="353" on="0"/>
        <pt x="167" y="353" on="1"/>
        <pt x="142" y="353" on="0"/>
        <pt x="97" y="319" on="0"/>
        <pt x="63" y="261" on="0"/>
        <pt x="43" y="185" on="0"/>
        <pt x="43" y="142" on="1"/>
        <pt x="43" y="82" on="0"/>
        <pt x="88" y="19" on="0"/>
        <pt x="126" y="19" on="1"/>
        <pt x="152" y="19" on="0"/>
        <pt x="196" y="52" on="0"/>
        <pt x="228" y="109" on="0"/>
        <pt x="246" y="184" on="0"/>
      </contour>
      <contour>
        <pt x="298" y="593" on="1"/>
        <pt x="298" y="647" on="0"/>
        <pt x="260" y="702" on="0"/>
        <pt x="228" y="702" on="1"/>
        <pt x="203" y="702" on="0"/>
        <pt x="160" y="666" on="0"/>
        <pt x="129" y="607" on="0"/>
        <pt x="112" y="532" on="0"/>
        <pt x="112" y="492" on="1"/>
        <pt x="112" y="441" on="0"/>
        <pt x="151" y="380" on="0"/>
        <pt x="183" y="380" on="1"/>
        <pt x="206" y="380" on="0"/>
        <pt x="248" y="413" on="0"/>
        <pt x="279" y="470" on="0"/>
        <pt x="298" y="548" on="0"/>
      </contour>
    </TTGlyph>
    <TTGlyph name="ellipsis" xMin="1" yMin="-8" xMax="322" yMax="50">
      <contour>
        <pt x="58" y="23" on="1"/>
        <pt x="58" y="9" on="0"/>
        <pt x="39" y="-8" on="0"/>
        <pt x="28" y="-8" on="1"/>
        <pt x="17" y="-8" on="0"/>
        <pt x="1" y="7" on="0"/>
        <pt x="1" y="19" on="1"/>
        <pt x="1" y="33" on="0"/>
        <pt x="20" y="50" on="0"/>
        <pt x="31" y="50" on="1"/>
        <pt x="42" y="50" on="0"/>
        <pt x="58" y="35" on="0"/>
      </contour>
      <contour>
        <pt x="190" y="23" on="1"/>
        <pt x="190" y="9" on="0"/>
        <pt x="171" y="-8" on="0"/>
        <pt x="160" y="-8" on="1"/>
        <pt x="149" y="-8" on="0"/>
        <pt x="133" y="7" on="0"/>
        <pt x="133" y="19" on="1"/>
        <pt x="133" y="33" on="0"/>
        <pt x="152" y="50" on="0"/>
        <pt x="163" y="50" on="1"/>
        <pt x="174" y="50" on="0"/>
        <pt x="190" y="35" on="0"/>
      </contour>
      <contour>
        <pt x="322" y="23" on="1"/>
        <pt x="322" y="9" on="0"/>
        <pt x="303" y="-8" on="0"/>
        <pt x="292" y="-8" on="1"/>
        <pt x="281" y="-8" on="0"/>
        <pt x="265" y="7" on="0"/>
        <pt x="265" y="19" on="1"/>
        <pt x="265" y="33" on="0"/>
        <pt x="284" y="50" on="0"/>
        <pt x="295" y="50" on="1"/>
        <pt x="306" y="50" on="0"/>
        <pt x="322" y="35" on="0"/>
      </contour>
    </TTGlyph>
    <TTGlyph name="emacron" xMin="16" yMin="-10" xMax="293" yMax="520">
      <component glyphName="e" x="0" y="0" flags="0x204"/>
      <component glyphName="macron" x="-61" y="0" flags="0x4"/>
    </TTGlyph>
    <TTGlyph name="emdash" xMin="41" yMin="254" xMax="397" yMax="282">
      <contour>
        <pt x="392" y="254" on="1"/>
        <pt x="41" y="254" on="1"/>
        <pt x="46" y="282" on="1"/>
        <pt x="397" y="282" on="1"/>
      </contour>
    </TTGlyph>
    <TTGlyph name="emdash.cap" xMin="59" yMin="357" xMax="415" yMax="385">
      <component glyphName="emdash" x="18" y="103" flags="0x204"/>
    </TTGlyph>
    <TTGlyph name="endash" xMin="41" yMin="254" xMax="262" yMax="282">
      <contour>
        <pt x="257" y="254" on="1"/>
        <pt x="41" y="254" on="1"/>
        <pt x="46" y="282" on="1"/>
        <pt x="262" y="282" on="1"/>
      </contour>
    </TTGlyph>
    <TTGlyph name="endash.cap" xMin="59" yMin="357" xMax="280" yMax="385">
      <component glyphName="endash" x="18" y="103" flags="0x204"/>
    </TTGlyph>
    <TTGlyph name="eogonek" xMin="16" yMin="-187" xMax="251" yMax="451">
      <contour>
        <pt x="115" y="-10" on="1"/>
        <pt x="72" y="-10" on="0"/>
        <pt x="16" y="57" on="0"/>
        <pt x="16" y="133" on="1"/>
        <pt x="16" y="184" on="0"/>
        <pt x="39" y="296" on="0"/>
        <pt x="81" y="390" on="0"/>
        <pt x="141" y="451" on="0"/>
        <pt x="177" y="451" on="1"/>
        <pt x="214" y="451" on="0"/>
        <pt x="251" y="383" on="0"/>
        <pt x="251" y="324" on="1"/>
        <pt x="251" y="313" on="0"/>
        <pt x="249" y="285" on="0"/>
        <pt x="244" y="253" on="0"/>
        <pt x="238" y="222" on="0"/>
        <pt x="235" y="210" on="1"/>
        <pt x="53" y="210" on="1"/>
        <pt x="49" y="187" on="0"/>
        <pt x="47" y="147" on="0"/>
        <pt x="47" y="130" on="1"/>
        <pt x="47" y="76" on="0"/>
        <pt x="82" y="18" on="0"/>
        <pt x="117" y="18" on="1"/>
        <pt x="137" y="18" on="0"/>
        <pt x="171" y="35" on="0"/>
        <pt x="185" y="46" on="1"/>
        <pt x="187" y="42" on="1"/>
        <pt x="198" y="23" on="1"/>
        <pt x="195" y="20" on="0"/>
        <pt x="188" y="15" on="0"/>
        <pt x="185" y="13" on="1"/>
        <pt x="169" y="1" on="0"/>
        <pt x="137" y="-31" on="0"/>
        <pt x="110" y="-67" on="0"/>
        <pt x="93" y="-107" on="0"/>
        <pt x="93" y="-128" on="1"/>
        <pt x="93" y="-143" on="0"/>
        <pt x="105" y="-161" on="0"/>
        <pt x="118" y="-161" on="1"/>
        <pt x="133" y="-161" on="0"/>
        <pt x="147" y="-149" on="1"/>
        <pt x="156" y="-171" on="1"/>
        <pt x="136" y="-187" on="0"/>
        <pt x="111" y="-187" on="1"/>
        <pt x="88" y="-187" on="0"/>
        <pt x="65" y="-156" on="0"/>
        <pt x="65" y="-134" on="1"/>
        <pt x="65" y="-99" on="0"/>
        <pt x="101" y="-37" on="0"/>
        <pt x="128" y="-9" on="1"/>
        <pt x="125" y="-10" on="0"/>
        <pt x="118" y="-10" on="0"/>
      </contour>
      <contour>
        <pt x="211" y="236" on="1"/>
        <pt x="215" y="254" on="0"/>
        <pt x="221" y="304" on="0"/>
        <pt x="221" y="325" on="1"/>
        <pt x="221" y="370" on="0"/>
        <pt x="199" y="424" on="0"/>
        <pt x="174" y="424" on="1"/>
        <pt x="155" y="424" on="0"/>
        <pt x="119" y="393" on="0"/>
        <pt x="89" y="341" on="0"/>
        <pt x="65" y="273" on="0"/>
        <pt x="58" y="236" on="1"/>
      </contour>
    </TTGlyph>
    <TTGlyph name="equal" xMin="48" yMin="306" xMax="238" yMax="436">
      <contour>
        <pt x="215" y="306" on="1"/>
        <pt x="48" y="306" on="1"/>
        <pt x="53" y="334" on="1"/>
        <pt x="220" y="334" on="1"/>
      </contour>
      <contour>
        <pt x="233" y="408" on="1"/>
        <pt x="66" y="408" on="1"/>
        <pt x="71" y="436" on="1"/>
        <pt x="238" y="436" on="1"/>
      </contour>
    </TTGlyph>
    <TTGlyph name="equal.lin" xMin="48" yMin="306" xMax="238" yMax="436">
      <component glyphName="equal" x="0" y="0" flags="0x204"/>
    </TTGlyph>
    <TTGlyph name="eth" xMin="17" yMin="-10" xMax="290" yMax="733">
      <contour>
        <pt x="224" y="653" on="1"/>
        <pt x="286" y="544" on="0"/>
        <pt x="286" y="396" on="1"/>
        <pt x="286" y="312" on="0"/>
        <pt x="259" y="164" on="0"/>
        <pt x="212" y="54" on="0"/>
        <pt x="148" y="-10" on="0"/>
        <pt x="110" y="-10" on="1"/>
        <pt x="65" y="-10" on="0"/>
        <pt x="17" y="65" on="0"/>
        <pt x="17" y="137" on="1"/>
        <pt x="17" y="185" on="0"/>
        <pt x="39" y="294" on="0"/>
        <pt x="81" y="388" on="0"/>
        <pt x="140" y="450" on="0"/>
        <pt x="176" y="450" on="1"/>
        <pt x="210" y="450" on="0"/>
        <pt x="252" y="399" on="0"/>
        <pt x="260" y="354" on="1"/>
        <pt x="262" y="438" on="0"/>
        <pt x="235" y="576" on="0"/>
        <pt x="201" y="636" on="1"/>
        <pt x="133" y="586" on="1"/>
        <pt x="118" y="606" on="1"/>
        <pt x="188" y="657" on="1"/>
        <pt x="169" y="687" on="0"/>
        <pt x="146" y="713" on="1"/>
        <pt x="168" y="733" on="1"/>
        <pt x="180" y="719" on="0"/>
        <pt x="202" y="690" on="0"/>
        <pt x="211" y="675" on="1"/>
        <pt x="276" y="722" on="1"/>
        <pt x="290" y="701" on="1"/>
      </contour>
      <contour>
        <pt x="245" y="287" on="1"/>
        <pt x="245" y="315" on="0"/>
        <pt x="236" y="365" on="0"/>
        <pt x="219" y="402" on="0"/>
        <pt x="193" y="423" on="0"/>
        <pt x="176" y="423" on="1"/>
        <pt x="148" y="423" on="0"/>
        <pt x="101" y="367" on="0"/>
        <pt x="66" y="282" on="0"/>
        <pt x="46" y="182" on="0"/>
        <pt x="46" y="138" on="1"/>
        <pt x="46" y="84" on="0"/>
        <pt x="79" y="17" on="0"/>
        <pt x="111" y="17" on="1"/>
        <pt x="138" y="17" on="0"/>
        <pt x="187" y="68" on="0"/>
        <pt x="224" y="148" on="0"/>
        <pt x="245" y="243" on="0"/>
      </contour>
    </TTGlyph>
    <TTGlyph name="exclam" xMin="0" yMin="-8" xMax="170" yMax="733">
      <contour>
        <pt x="69" y="182" on="1"/>
        <pt x="45" y="182" on="1"/>
        <pt x="138" y="733" on="1"/>
        <pt x="170" y="733" on="1"/>
      </contour>
      <contour>
        <pt x="57" y="23" on="1"/>
        <pt x="57" y="9" on="0"/>
        <pt x="38" y="-8" on="0"/>
        <pt x="27" y="-8" on="1"/>
        <pt x="16" y="-8" on="0"/>
        <pt x="0" y="7" on="0"/>
        <pt x="0" y="19" on="1"/>
        <pt x="0" y="33" on="0"/>
        <pt x="19" y="50" on="0"/>
        <pt x="30" y="50" on="1"/>
        <pt x="41" y="50" on="0"/>
        <pt x="57" y="35" on="0"/>
      </contour>
    </TTGlyph>
    <TTGlyph name="exclamdown" xMin="8" yMin="-8" xMax="178" yMax="733">
      <contour>
        <pt x="178" y="706" on="1"/>
        <pt x="178" y="692" on="0"/>
        <pt x="159" y="675" on="0"/>
        <pt x="148" y="675" on="1"/>
        <pt x="137" y="675" on="0"/>
        <pt x="121" y="690" on="0"/>
        <pt x="121" y="702" on="1"/>
        <pt x="121" y="716" on="0"/>
        <pt x="140" y="733" on="0"/>
        <pt x="151" y="733" on="1"/>
        <pt x="162" y="733" on="0"/>
        <pt x="178" y="718" on="0"/>
      </contour>
      <contour>
        <pt x="40" y="-8" on="1"/>
        <pt x="8" y="-8" on="1"/>
        <pt x="109" y="543" on="1"/>
        <pt x="133" y="543" on="1"/>
      </contour>
    </TTGlyph>
    <TTGlyph name="f" xMin="-11" yMin="-187" xMax="290" yMax="740">
      <contour>
        <pt x="282" y="701" on="1"/>
        <pt x="274" y="705" on="0"/>
        <pt x="247" y="712" on="0"/>
        <pt x="233" y="712" on="1"/>
        <pt x="201" y="712" on="0"/>
        <pt x="169" y="669" on="0"/>
        <pt x="161" y="618" on="1"/>
        <pt x="130" y="441" on="1"/>
        <pt x="205" y="441" on="1"/>
        <pt x="200" y="413" on="1"/>
        <pt x="125" y="413" on="1"/>
        <pt x="19" y="-187" on="1"/>
        <pt x="-11" y="-187" on="1"/>
        <pt x="95" y="412" on="1"/>
        <pt x="41" y="412" on="1"/>
        <pt x="43" y="427" on="1"/>
        <pt x="100" y="441" on="1"/>
        <pt x="132" y="625" on="1"/>
        <pt x="135" y="641" on="0"/>
        <pt x="145" y="681" on="0"/>
        <pt x="167" y="716" on="0"/>
        <pt x="204" y="740" on="0"/>
        <pt x="234" y="740" on="1"/>
        <pt x="251" y="740" on="0"/>
        <pt x="283" y="731" on="0"/>
        <pt x="290" y="728" on="1"/>
      </contour>
    </TTGlyph>
    <TTGlyph name="f_f" xMin="-11" yMin="-187" xMax="464" yMax="740">
      <contour>
        <pt x="456" y="701" on="1"/>
        <pt x="448" y="705" on="0"/>
        <pt x="421" y="712" on="0"/>
        <pt x="407" y="712" on="1"/>
        <pt x="375" y="712" on="0"/>
        <pt x="343" y="669" on="0"/>
        <pt x="335" y="618" on="1"/>
        <pt x="304" y="441" on="1"/>
        <pt x="379" y="441" on="1"/>
        <pt x="374" y="413" on="1"/>
        <pt x="299" y="413" on="1"/>
        <pt x="193" y="-187" on="1"/>
        <pt x="163" y="-187" on="1"/>
        <pt x="269" y="412" on="1"/>
        <pt x="215" y="412" on="1"/>
        <pt x="217" y="427" on="1"/>
        <pt x="274" y="441" on="1"/>
        <pt x="306" y="625" on="1"/>
        <pt x="309" y="641" on="0"/>
        <pt x="319" y="681" on="0"/>
        <pt x="341" y="716" on="0"/>
        <pt x="378" y="740" on="0"/>
        <pt x="408" y="740" on="1"/>
        <pt x="425" y="740" on="0"/>
        <pt x="457" y="731" on="0"/>
        <pt x="464" y="728" on="1"/>
      </contour>
      <contour>
        <pt x="282" y="701" on="1"/>
        <pt x="274" y="705" on="0"/>
        <pt x="247" y="712" on="0"/>
        <pt x="233" y="712" on="1"/>
        <pt x="201" y="712" on="0"/>
        <pt x="169" y="669" on="0"/>
        <pt x="161" y="618" on="1"/>
        <pt x="130" y="441" on="1"/>
        <pt x="205" y="441" on="1"/>
        <pt x="200" y="413" on="1"/>
        <pt x="125" y="413" on="1"/>
        <pt x="19" y="-187" on="1"/>
        <pt x="-11" y="-187" on="1"/>
        <pt x="95" y="412" on="1"/>
        <pt x="41" y="412" on="1"/>
        <pt x="43" y="427" on="1"/>
        <pt x="100" y="441" on="1"/>
        <pt x="132" y="625" on="1"/>
        <pt x="135" y="641" on="0"/>
        <pt x="145" y="681" on="0"/>
        <pt x="167" y="716" on="0"/>
        <pt x="204" y="740" on="0"/>
        <pt x="234" y="740" on="1"/>
        <pt x="251" y="740" on="0"/>
        <pt x="283" y="731" on="0"/>
        <pt x="290" y="728" on="1"/>
      </contour>
    </TTGlyph>
    <TTGlyph name="f_f_i" xMin="-11" yMin="-187" xMax="503" yMax="740">
      <contour>
        <pt x="282" y="701" on="1"/>
        <pt x="274" y="705" on="0"/>
        <pt x="247" y="712" on="0"/>
        <pt x="233" y="712" on="1"/>
        <pt x="201" y="712" on="0"/>
        <pt x="169" y="669" on="0"/>
        <pt x="161" y="618" on="1"/>
        <pt x="130" y="441" on="1"/>
        <pt x="205" y="441" on="1"/>
        <pt x="200" y="413" on="1"/>
        <pt x="125" y="413" on="1"/>
        <pt x="19" y="-187" on="1"/>
        <pt x="-11" y="-187" on="1"/>
        <pt x="95" y="412" on="1"/>
        <pt x="41" y="412" on="1"/>
        <pt x="43" y="427" on="1"/>
        <pt x="100" y="441" on="1"/>
        <pt x="132" y="625" on="1"/>
        <pt x="135" y="641" on="0"/>
        <pt x="145" y="681" on="0"/>
        <pt x="167" y="716" on="0"/>
        <pt x="204" y="740" on="0"/>
        <pt x="234" y="740" on="1"/>
        <pt x="251" y="740" on="0"/>
        <pt x="283" y="731" on="0"/>
        <pt x="290" y="728" on="1"/>
      </contour>
      <contour>
        <pt x="456" y="701" on="1"/>
        <pt x="448" y="705" on="0"/>
        <pt x="421" y="712" on="0"/>
        <pt x="407" y="712" on="1"/>
        <pt x="375" y="712" on="0"/>
        <pt x="343" y="669" on="0"/>
        <pt x="335" y="618" on="1"/>
        <pt x="304" y="441" on="1"/>
        <pt x="379" y="441" on="1"/>
        <pt x="374" y="413" on="1"/>
        <pt x="299" y="413" on="1"/>
        <pt x="193" y="-187" on="1"/>
        <pt x="163" y="-187" on="1"/>
        <pt x="269" y="412" on="1"/>
        <pt x="215" y="412" on="1"/>
        <pt x="217" y="427" on="1"/>
        <pt x="274" y="441" on="1"/>
        <pt x="306" y="625" on="1"/>
        <pt x="309" y="641" on="0"/>
        <pt x="319" y="681" on="0"/>
        <pt x="341" y="716" on="0"/>
        <pt x="378" y="740" on="0"/>
        <pt x="408" y="740" on="1"/>
        <pt x="425" y="740" on="0"/>
        <pt x="457" y="731" on="0"/>
        <pt x="464" y="728" on="1"/>
      </contour>
      <contour>
        <pt x="390" y="0" on="1"/>
        <pt x="360" y="0" on="1"/>
        <pt x="437" y="441" on="1"/>
        <pt x="467" y="441" on="1"/>
      </contour>
      <contour>
        <pt x="503" y="586" on="1"/>
        <pt x="503" y="573" on="0"/>
        <pt x="486" y="558" on="0"/>
        <pt x="476" y="558" on="1"/>
        <pt x="465" y="558" on="0"/>
        <pt x="452" y="571" on="0"/>
        <pt x="452" y="582" on="1"/>
        <pt x="452" y="595" on="0"/>
        <pt x="469" y="610" on="0"/>
        <pt x="479" y="610" on="1"/>
        <pt x="490" y="610" on="0"/>
        <pt x="503" y="597" on="0"/>
      </contour>
    </TTGlyph>
    <TTGlyph name="f_f_l" xMin="-11" yMin="-187" xMax="518" yMax="740">
      <contour>
        <pt x="282" y="701" on="1"/>
        <pt x="274" y="705" on="0"/>
        <pt x="247" y="712" on="0"/>
        <pt x="233" y="712" on="1"/>
        <pt x="201" y="712" on="0"/>
        <pt x="169" y="669" on="0"/>
        <pt x="161" y="618" on="1"/>
        <pt x="130" y="441" on="1"/>
        <pt x="205" y="441" on="1"/>
        <pt x="200" y="413" on="1"/>
        <pt x="125" y="413" on="1"/>
        <pt x="19" y="-187" on="1"/>
        <pt x="-11" y="-187" on="1"/>
        <pt x="95" y="412" on="1"/>
        <pt x="41" y="412" on="1"/>
        <pt x="43" y="427" on="1"/>
        <pt x="100" y="441" on="1"/>
        <pt x="132" y="625" on="1"/>
        <pt x="135" y="641" on="0"/>
        <pt x="145" y="681" on="0"/>
        <pt x="167" y="716" on="0"/>
        <pt x="204" y="740" on="0"/>
        <pt x="234" y="740" on="1"/>
        <pt x="251" y="740" on="0"/>
        <pt x="283" y="731" on="0"/>
        <pt x="290" y="728" on="1"/>
      </contour>
      <contour>
        <pt x="456" y="701" on="1"/>
        <pt x="448" y="705" on="0"/>
        <pt x="421" y="712" on="0"/>
        <pt x="407" y="712" on="1"/>
        <pt x="375" y="712" on="0"/>
        <pt x="343" y="669" on="0"/>
        <pt x="335" y="618" on="1"/>
        <pt x="304" y="441" on="1"/>
        <pt x="379" y="441" on="1"/>
        <pt x="374" y="413" on="1"/>
        <pt x="299" y="413" on="1"/>
        <pt x="193" y="-187" on="1"/>
        <pt x="163" y="-187" on="1"/>
        <pt x="269" y="412" on="1"/>
        <pt x="215" y="412" on="1"/>
        <pt x="217" y="427" on="1"/>
        <pt x="274" y="441" on="1"/>
        <pt x="306" y="625" on="1"/>
        <pt x="309" y="641" on="0"/>
        <pt x="319" y="681" on="0"/>
        <pt x="341" y="716" on="0"/>
        <pt x="378" y="740" on="0"/>
        <pt x="408" y="740" on="1"/>
        <pt x="425" y="740" on="0"/>
        <pt x="457" y="731" on="0"/>
        <pt x="464" y="728" on="1"/>
      </contour>
      <contour>
        <pt x="389" y="0" on="1"/>
        <pt x="359" y="0" on="1"/>
        <pt x="488" y="733" on="1"/>
        <pt x="518" y="733" on="1"/>
      </contour>
    </TTGlyph>
    <TTGlyph name="fi" xMin="-11" yMin="-187" xMax="329" yMax="740">
      <contour>
        <pt x="282" y="701" on="1"/>
        <pt x="274" y="705" on="0"/>
        <pt x="247" y="712" on="0"/>
        <pt x="233" y="712" on="1"/>
        <pt x="201" y="712" on="0"/>
        <pt x="169" y="669" on="0"/>
        <pt x="161" y="618" on="1"/>
        <pt x="130" y="441" on="1"/>
        <pt x="205" y="441" on="1"/>
        <pt x="200" y="413" on="1"/>
        <pt x="125" y="413" on="1"/>
        <pt x="19" y="-187" on="1"/>
        <pt x="-11" y="-187" on="1"/>
        <pt x="95" y="412" on="1"/>
        <pt x="41" y="412" on="1"/>
        <pt x="43" y="427" on="1"/>
        <pt x="100" y="441" on="1"/>
        <pt x="132" y="625" on="1"/>
        <pt x="135" y="641" on="0"/>
        <pt x="145" y="681" on="0"/>
        <pt x="167" y="716" on="0"/>
        <pt x="204" y="740" on="0"/>
        <pt x="234" y="740" on="1"/>
        <pt x="251" y="740" on="0"/>
        <pt x="283" y="731" on="0"/>
        <pt x="290" y="728" on="1"/>
      </contour>
      <contour>
        <pt x="216" y="0" on="1"/>
        <pt x="186" y="0" on="1"/>
        <pt x="263" y="441" on="1"/>
        <pt x="293" y="441" on="1"/>
      </contour>
      <contour>
        <pt x="329" y="586" on="1"/>
        <pt x="329" y="573" on="0"/>
        <pt x="312" y="558" on="0"/>
        <pt x="302" y="558" on="1"/>
        <pt x="291" y="558" on="0"/>
        <pt x="278" y="571" on="0"/>
        <pt x="278" y="582" on="1"/>
        <pt x="278" y="595" on="0"/>
        <pt x="295" y="610" on="0"/>
        <pt x="305" y="610" on="1"/>
        <pt x="316" y="610" on="0"/>
        <pt x="329" y="597" on="0"/>
      </contour>
    </TTGlyph>
    <TTGlyph name="five" xMin="-9" yMin="-8" xMax="318" yMax="723">
      <contour>
        <pt x="313" y="695" on="1"/>
        <pt x="152" y="695" on="1"/>
        <pt x="100" y="416" on="1"/>
        <pt x="114" y="420" on="0"/>
        <pt x="136" y="422" on="0"/>
        <pt x="141" y="422" on="1"/>
        <pt x="189" y="422" on="0"/>
        <pt x="257" y="349" on="0"/>
        <pt x="257" y="268" on="1"/>
        <pt x="257" y="229" on="0"/>
        <pt x="237" y="133" on="0"/>
        <pt x="194" y="49" on="0"/>
        <pt x="128" y="-8" on="0"/>
        <pt x="82" y="-8" on="1"/>
        <pt x="56" y="-8" on="0"/>
        <pt x="8" y="10" on="0"/>
        <pt x="-9" y="22" on="1"/>
        <pt x="1" y="49" on="1"/>
        <pt x="18" y="36" on="0"/>
        <pt x="62" y="20" on="0"/>
        <pt x="86" y="20" on="1"/>
        <pt x="117" y="20" on="0"/>
        <pt x="169" y="64" on="0"/>
        <pt x="206" y="135" on="0"/>
        <pt x="226" y="225" on="0"/>
        <pt x="226" y="272" on="1"/>
        <pt x="226" y="306" on="0"/>
        <pt x="211" y="353" on="0"/>
        <pt x="186" y="382" on="0"/>
        <pt x="153" y="394" on="0"/>
        <pt x="135" y="394" on="1"/>
        <pt x="115" y="394" on="0"/>
        <pt x="83" y="385" on="0"/>
        <pt x="69" y="380" on="1"/>
        <pt x="65" y="383" on="1"/>
        <pt x="128" y="723" on="1"/>
        <pt x="318" y="723" on="1"/>
      </contour>
    </TTGlyph>
    <TTGlyph name="five.lin" xMin="-9" yMin="-8" xMax="318" yMax="723">
      <contour>
        <pt x="313" y="695" on="1"/>
        <pt x="152" y="695" on="1"/>
        <pt x="100" y="416" on="1"/>
        <pt x="114" y="420" on="0"/>
        <pt x="136" y="422" on="0"/>
        <pt x="141" y="422" on="1"/>
        <pt x="189" y="422" on="0"/>
        <pt x="257" y="349" on="0"/>
        <pt x="257" y="268" on="1"/>
        <pt x="257" y="229" on="0"/>
        <pt x="237" y="133" on="0"/>
        <pt x="194" y="49" on="0"/>
        <pt x="128" y="-8" on="0"/>
        <pt x="82" y="-8" on="1"/>
        <pt x="56" y="-8" on="0"/>
        <pt x="8" y="10" on="0"/>
        <pt x="-9" y="22" on="1"/>
        <pt x="1" y="49" on="1"/>
        <pt x="18" y="36" on="0"/>
        <pt x="62" y="20" on="0"/>
        <pt x="86" y="20" on="1"/>
        <pt x="117" y="20" on="0"/>
        <pt x="169" y="64" on="0"/>
        <pt x="206" y="135" on="0"/>
        <pt x="226" y="225" on="0"/>
        <pt x="226" y="272" on="1"/>
        <pt x="226" y="306" on="0"/>
        <pt x="211" y="353" on="0"/>
        <pt x="186" y="382" on="0"/>
        <pt x="153" y="394" on="0"/>
        <pt x="135" y="394" on="1"/>
        <pt x="115" y="394" on="0"/>
        <pt x="83" y="385" on="0"/>
        <pt x="69" y="380" on="1"/>
        <pt x="65" y="383" on="1"/>
        <pt x="128" y="723" on="1"/>
        <pt x="318" y="723" on="1"/>
      </contour>
    </TTGlyph>
    <TTGlyph name="fl" xMin="-11" yMin="-187" xMax="344" yMax="740">
      <contour>
        <pt x="215" y="0" on="1"/>
        <pt x="185" y="0" on="1"/>
        <pt x="314" y="733" on="1"/>
        <pt x="344" y="733" on="1"/>
      </contour>
      <contour>
        <pt x="282" y="701" on="1"/>
        <pt x="274" y="705" on="0"/>
        <pt x="247" y="712" on="0"/>
        <pt x="233" y="712" on="1"/>
        <pt x="201" y="712" on="0"/>
        <pt x="169" y="669" on="0"/>
        <pt x="161" y="618" on="1"/>
        <pt x="130" y="441" on="1"/>
        <pt x="205" y="441" on="1"/>
        <pt x="200" y="413" on="1"/>
        <pt x="125" y="413" on="1"/>
        <pt x="19" y="-187" on="1"/>
        <pt x="-11" y="-187" on="1"/>
        <pt x="95" y="412" on="1"/>
        <pt x="41" y="412" on="1"/>
        <pt x="43" y="427" on="1"/>
        <pt x="100" y="441" on="1"/>
        <pt x="132" y="625" on="1"/>
        <pt x="135" y="641" on="0"/>
        <pt x="145" y="681" on="0"/>
        <pt x="167" y="716" on="0"/>
        <pt x="204" y="740" on="0"/>
        <pt x="234" y="740" on="1"/>
        <pt x="251" y="740" on="0"/>
        <pt x="283" y="731" on="0"/>
        <pt x="290" y="728" on="1"/>
      </contour>
    </TTGlyph>
    <TTGlyph name="florin" xMin="0" yMin="0" xMax="328" yMax="729">
      <contour>
        <pt x="320" y="688" on="1"/>
        <pt x="310" y="693" on="0"/>
        <pt x="284" y="701" on="0"/>
        <pt x="271" y="701" on="1"/>
        <pt x="240" y="701" on="0"/>
        <pt x="208" y="661" on="0"/>
        <pt x="196" y="617" on="1"/>
        <pt x="145" y="432" on="1"/>
        <pt x="220" y="432" on="1"/>
        <pt x="216" y="404" on="1"/>
        <pt x="139" y="404" on="1"/>
        <pt x="29" y="0" on="1"/>
        <pt x="0" y="0" on="1"/>
        <pt x="108" y="403" on="1"/>
        <pt x="51" y="403" on="1"/>
        <pt x="55" y="418" on="1"/>
        <pt x="115" y="432" on="1"/>
        <pt x="168" y="624" on="1"/>
        <pt x="172" y="640" on="0"/>
        <pt x="186" y="676" on="0"/>
        <pt x="209" y="708" on="0"/>
        <pt x="244" y="729" on="0"/>
        <pt x="270" y="729" on="1"/>
        <pt x="288" y="729" on="0"/>
        <pt x="320" y="719" on="0"/>
        <pt x="328" y="715" on="1"/>
      </contour>
    </TTGlyph>
    <TTGlyph name="florin.lin" xMin="0" yMin="0" xMax="328" yMax="729">
      <contour>
        <pt x="320" y="688" on="1"/>
        <pt x="310" y="693" on="0"/>
        <pt x="284" y="701" on="0"/>
        <pt x="271" y="701" on="1"/>
        <pt x="240" y="701" on="0"/>
        <pt x="208" y="661" on="0"/>
        <pt x="196" y="617" on="1"/>
        <pt x="145" y="432" on="1"/>
        <pt x="220" y="432" on="1"/>
        <pt x="216" y="404" on="1"/>
        <pt x="139" y="404" on="1"/>
        <pt x="29" y="0" on="1"/>
        <pt x="0" y="0" on="1"/>
        <pt x="108" y="403" on="1"/>
        <pt x="51" y="403" on="1"/>
        <pt x="55" y="418" on="1"/>
        <pt x="115" y="432" on="1"/>
        <pt x="168" y="624" on="1"/>
        <pt x="172" y="640" on="0"/>
        <pt x="186" y="676" on="0"/>
        <pt x="209" y="708" on="0"/>
        <pt x="244" y="729" on="0"/>
        <pt x="270" y="729" on="1"/>
        <pt x="288" y="729" on="0"/>
        <pt x="320" y="719" on="0"/>
        <pt x="328" y="715" on="1"/>
      </contour>
    </TTGlyph>
    <TTGlyph name="four" xMin="13" yMin="0" xMax="329" yMax="730">
      <contour>
        <pt x="302" y="218" on="1"/>
        <pt x="239" y="218" on="1"/>
        <pt x="200" y="0" on="1"/>
        <pt x="171" y="0" on="1"/>
        <pt x="210" y="218" on="1"/>
        <pt x="13" y="218" on="1"/>
        <pt x="15" y="230" on="1"/>
        <pt x="308" y="730" on="1"/>
        <pt x="329" y="730" on="1"/>
        <pt x="243" y="245" on="1"/>
        <pt x="306" y="245" on="1"/>
      </contour>
      <contour>
        <pt x="284" y="640" on="1"/>
        <pt x="54" y="245" on="1"/>
        <pt x="214" y="245" on="1"/>
      </contour>
    </TTGlyph>
    <TTGlyph name="four.lin" xMin="13" yMin="0" xMax="329" yMax="730">
      <contour>
        <pt x="302" y="218" on="1"/>
        <pt x="239" y="218" on="1"/>
        <pt x="200" y="0" on="1"/>
        <pt x="171" y="0" on="1"/>
        <pt x="210" y="218" on="1"/>
        <pt x="13" y="218" on="1"/>
        <pt x="15" y="230" on="1"/>
        <pt x="308" y="730" on="1"/>
        <pt x="329" y="730" on="1"/>
        <pt x="243" y="245" on="1"/>
        <pt x="306" y="245" on="1"/>
      </contour>
      <contour>
        <pt x="284" y="640" on="1"/>
        <pt x="54" y="245" on="1"/>
        <pt x="214" y="245" on="1"/>
      </contour>
    </TTGlyph>
    <TTGlyph name="fraction" xMin="-29" yMin="-8" xMax="490" yMax="750">
      <contour>
        <pt x="-7" y="-8" on="1"/>
        <pt x="-29" y="5" on="1"/>
        <pt x="468" y="750" on="1"/>
        <pt x="490" y="737" on="1"/>
      </contour>
    </TTGlyph>
    <TTGlyph name="fraction.lin" xMin="-29" yMin="-8" xMax="490" yMax="750">
      <contour>
        <pt x="-7" y="-8" on="1"/>
        <pt x="-29" y="5" on="1"/>
        <pt x="468" y="750" on="1"/>
        <pt x="490" y="737" on="1"/>
      </contour>
    </TTGlyph>
    <TTGlyph name="g" xMin="-12" yMin="-192" xMax="287" yMax="448">
      <contour>
        <pt x="194" y="-84" on="1"/>
        <pt x="184" y="-139" on="0"/>
        <pt x="139" y="-192" on="0"/>
        <pt x="90" y="-192" on="1"/>
        <pt x="64" y="-192" on="0"/>
        <pt x="6" y="-176" on="0"/>
        <pt x="-12" y="-165" on="1"/>
        <pt x="-2" y="-139" on="1"/>
        <pt x="18" y="-150" on="0"/>
        <pt x="66" y="-164" on="0"/>
        <pt x="92" y="-164" on="1"/>
        <pt x="121" y="-164" on="0"/>
        <pt x="156" y="-131" on="0"/>
        <pt x="164" y="-85" on="1"/>
        <pt x="186" y="42" on="1"/>
        <pt x="165" y="19" on="0"/>
        <pt x="124" y="-7" on="0"/>
        <pt x="100" y="-7" on="1"/>
        <pt x="85" y="-7" on="0"/>
        <pt x="56" y="6" on="0"/>
        <pt x="32" y="37" on="0"/>
        <pt x="17" y="88" on="0"/>
        <pt x="17" y="126" on="1"/>
        <pt x="17" y="175" on="0"/>
        <pt x="37" y="288" on="0"/>
        <pt x="77" y="384" on="0"/>
        <pt x="134" y="448" on="0"/>
        <pt x="172" y="448" on="1"/>
        <pt x="201" y="448" on="0"/>
        <pt x="236" y="416" on="0"/>
        <pt x="250" y="396" on="1"/>
        <pt x="258" y="441" on="1"/>
        <pt x="287" y="441" on="1"/>
      </contour>
      <contour>
        <pt x="243" y="363" on="1"/>
        <pt x="231" y="386" on="0"/>
        <pt x="197" y="420" on="0"/>
        <pt x="175" y="420" on="1"/>
        <pt x="145" y="420" on="0"/>
        <pt x="97" y="360" on="0"/>
        <pt x="64" y="272" on="0"/>
        <pt x="46" y="172" on="0"/>
        <pt x="46" y="131" on="1"/>
        <pt x="46" y="71" on="0"/>
        <pt x="81" y="21" on="0"/>
        <pt x="105" y="21" on="1"/>
        <pt x="131" y="21" on="0"/>
        <pt x="173" y="54" on="0"/>
        <pt x="192" y="75" on="1"/>
      </contour>
    </TTGlyph>
    <TTGlyph name="gbreve" xMin="-12" yMin="-192" xMax="304" yMax="578">
      <component glyphName="g" x="0" y="0" flags="0x204"/>
      <component glyphName="breve" x="-41" y="0" flags="0x4"/>
    </TTGlyph>
    <TTGlyph name="gcommaaccent" xMin="-12" yMin="-192" xMax="287" yMax="628">
      <contour>
        <pt x="194" y="-84" on="1"/>
        <pt x="184" y="-139" on="0"/>
        <pt x="139" y="-192" on="0"/>
        <pt x="90" y="-192" on="1"/>
        <pt x="64" y="-192" on="0"/>
        <pt x="6" y="-176" on="0"/>
        <pt x="-12" y="-165" on="1"/>
        <pt x="-2" y="-139" on="1"/>
        <pt x="18" y="-150" on="0"/>
        <pt x="66" y="-164" on="0"/>
        <pt x="92" y="-164" on="1"/>
        <pt x="121" y="-164" on="0"/>
        <pt x="156" y="-131" on="0"/>
        <pt x="164" y="-85" on="1"/>
        <pt x="186" y="42" on="1"/>
        <pt x="165" y="19" on="0"/>
        <pt x="124" y="-7" on="0"/>
        <pt x="100" y="-7" on="1"/>
        <pt x="85" y="-7" on="0"/>
        <pt x="56" y="6" on="0"/>
        <pt x="32" y="37" on="0"/>
        <pt x="17" y="88" on="0"/>
        <pt x="17" y="126" on="1"/>
        <pt x="17" y="175" on="0"/>
        <pt x="37" y="288" on="0"/>
        <pt x="77" y="384" on="0"/>
        <pt x="134" y="448" on="0"/>
        <pt x="172" y="448" on="1"/>
        <pt x="201" y="448" on="0"/>
        <pt x="236" y="416" on="0"/>
        <pt x="250" y="396" on="1"/>
        <pt x="258" y="441" on="1"/>
        <pt x="287" y="441" on="1"/>
      </contour>
      <contour>
        <pt x="243" y="363" on="1"/>
        <pt x="231" y="386" on="0"/>
        <pt x="197" y="420" on="0"/>
        <pt x="175" y="420" on="1"/>
        <pt x="145" y="420" on="0"/>
        <pt x="97" y="360" on="0"/>
        <pt x="64" y="272" on="0"/>
        <pt x="46" y="172" on="0"/>
        <pt x="46" y="131" on="1"/>
        <pt x="46" y="71" on="0"/>
        <pt x="81" y="21" on="0"/>
        <pt x="105" y="21" on="1"/>
        <pt x="131" y="21" on="0"/>
        <pt x="173" y="54" on="0"/>
        <pt x="192" y="75" on="1"/>
      </contour>
      <contour>
        <pt x="179" y="528" on="1"/>
        <pt x="179" y="544" on="0"/>
        <pt x="194" y="575" on="0"/>
        <pt x="218" y="601" on="0"/>
        <pt x="246" y="622" on="0"/>
        <pt x="258" y="628" on="1"/>
        <pt x="265" y="617" on="1"/>
        <pt x="245" y="604" on="0"/>
        <pt x="213" y="571" on="0"/>
        <pt x="208" y="551" on="1"/>
        <pt x="224" y="547" on="0"/>
        <pt x="236" y="530" on="0"/>
        <pt x="236" y="521" on="1"/>
        <pt x="236" y="509" on="0"/>
        <pt x="220" y="492" on="0"/>
        <pt x="209" y="492" on="1"/>
        <pt x="196" y="492" on="0"/>
        <pt x="179" y="511" on="0"/>
      </contour>
    </TTGlyph>
    <TTGlyph name="gdotaccent" xMin="-12" yMin="-192" xMax="287" yMax="540">
      <component glyphName="g" x="0" y="0" flags="0x204"/>
      <component glyphName="dotaccent" x="-42" y="0" flags="0x4"/>
    </TTGlyph>
    <TTGlyph name="germandbls" xMin="12" yMin="-94" xMax="298" yMax="740">
      <contour>
        <pt x="168" y="196" on="1"/>
        <pt x="197" y="185" on="0"/>
        <pt x="241" y="127" on="0"/>
        <pt x="241" y="73" on="1"/>
        <pt x="241" y="40" on="0"/>
        <pt x="221" y="-20" on="0"/>
        <pt x="183" y="-66" on="0"/>
        <pt x="129" y="-94" on="0"/>
        <pt x="95" y="-94" on="1"/>
        <pt x="86" y="-94" on="0"/>
        <pt x="67" y="-92" on="0"/>
        <pt x="62" y="-90" on="1"/>
        <pt x="68" y="-64" on="1"/>
        <pt x="74" y="-66" on="0"/>
        <pt x="89" y="-67" on="0"/>
        <pt x="94" y="-67" on="1"/>
        <pt x="121" y="-67" on="0"/>
        <pt x="165" y="-45" on="0"/>
        <pt x="196" y="-8" on="0"/>
        <pt x="212" y="43" on="0"/>
        <pt x="212" y="72" on="1"/>
        <pt x="212" y="99" on="0"/>
        <pt x="198" y="139" on="0"/>
        <pt x="175" y="164" on="0"/>
        <pt x="146" y="177" on="0"/>
        <pt x="131" y="177" on="1"/>
        <pt x="131" y="178" on="1"/>
        <pt x="129" y="181" on="1"/>
        <pt x="255" y="413" on="1"/>
        <pt x="113" y="413" on="1"/>
        <pt x="41" y="0" on="1"/>
        <pt x="12" y="0" on="1"/>
        <pt x="120" y="625" on="1"/>
        <pt x="123" y="641" on="0"/>
        <pt x="133" y="681" on="0"/>
        <pt x="155" y="716" on="0"/>
        <pt x="192" y="740" on="0"/>
        <pt x="222" y="740" on="1"/>
        <pt x="239" y="740" on="0"/>
        <pt x="271" y="731" on="0"/>
        <pt x="278" y="728" on="1"/>
        <pt x="270" y="701" on="1"/>
        <pt x="262" y="705" on="0"/>
        <pt x="235" y="712" on="0"/>
        <pt x="221" y="712" on="1"/>
        <pt x="189" y="712" on="0"/>
        <pt x="158" y="669" on="0"/>
        <pt x="149" y="618" on="1"/>
        <pt x="118" y="441" on="1"/>
        <pt x="297" y="441" on="1"/>
        <pt x="298" y="436" on="1"/>
      </contour>
    </TTGlyph>
    <TTGlyph name="grave" xMin="187" yMin="481" xMax="314" yMax="595">
      <contour>
        <pt x="300" y="481" on="1"/>
        <pt x="187" y="571" on="1"/>
        <pt x="209" y="595" on="1"/>
        <pt x="314" y="497" on="1"/>
      </contour>
    </TTGlyph>
    <TTGlyph name="greater" xMin="4" yMin="134" xMax="203" yMax="611">
      <contour>
        <pt x="25" y="134" on="1"/>
        <pt x="4" y="150" on="1"/>
        <pt x="172" y="375" on="1"/>
        <pt x="84" y="597" on="1"/>
        <pt x="109" y="611" on="1"/>
        <pt x="203" y="373" on="1"/>
      </contour>
    </TTGlyph>
    <TTGlyph name="greater.lin" xMin="4" yMin="134" xMax="203" yMax="611">
      <component glyphName="greater" x="0" y="0" flags="0x204"/>
    </TTGlyph>
    <TTGlyph name="guillemotleft" xMin="18" yMin="60" xMax="215" yMax="387">
      <contour>
        <pt x="120" y="220" on="1"/>
        <pt x="156" y="60" on="1"/>
        <pt x="128" y="60" on="1"/>
        <pt x="92" y="225" on="1"/>
        <pt x="185" y="387" on="1"/>
        <pt x="215" y="387" on="1"/>
      </contour>
      <contour>
        <pt x="46" y="222" on="1"/>
        <pt x="81" y="60" on="1"/>
        <pt x="54" y="60" on="1"/>
        <pt x="18" y="227" on="1"/>
        <pt x="111" y="387" on="1"/>
        <pt x="140" y="387" on="1"/>
      </contour>
    </TTGlyph>
    <TTGlyph name="guillemotleft.cap" xMin="44" yMin="207" xMax="241" yMax="534">
      <component glyphName="guillemotleft" x="26" y="147" flags="0x204"/>
    </TTGlyph>
    <TTGlyph name="guillemotright" xMin="-10" yMin="60" xMax="187" yMax="387">
      <contour>
        <pt x="94" y="60" on="1"/>
        <pt x="65" y="60" on="1"/>
        <pt x="159" y="225" on="1"/>
        <pt x="124" y="387" on="1"/>
        <pt x="151" y="387" on="1"/>
        <pt x="187" y="220" on="1"/>
      </contour>
      <contour>
        <pt x="20" y="60" on="1"/>
        <pt x="-10" y="60" on="1"/>
        <pt x="85" y="227" on="1"/>
        <pt x="49" y="387" on="1"/>
        <pt x="77" y="387" on="1"/>
        <pt x="113" y="222" on="1"/>
      </contour>
    </TTGlyph>
    <TTGlyph name="guillemotright.cap" xMin="16" yMin="207" xMax="213" yMax="534">
      <component glyphName="guillemotright" x="26" y="147" flags="0x204"/>
    </TTGlyph>
    <TTGlyph name="guilsinglleft" xMin="13" yMin="60" xMax="136" yMax="387">
      <contour>
        <pt x="41" y="220" on="1"/>
        <pt x="77" y="60" on="1"/>
        <pt x="49" y="60" on="1"/>
        <pt x="13" y="225" on="1"/>
        <pt x="106" y="387" on="1"/>
        <pt x="136" y="387" on="1"/>
      </contour>
    </TTGlyph>
    <TTGlyph name="guilsinglleft.cap" xMin="39" yMin="207" xMax="162" yMax="534">
      <component glyphName="guilsinglleft" x="26" y="147" flags="0x204"/>
    </TTGlyph>
    <TTGlyph name="guilsinglright" xMin="-10" yMin="60" xMax="113" yMax="387">
      <contour>
        <pt x="20" y="60" on="1"/>
        <pt x="-10" y="60" on="1"/>
        <pt x="85" y="227" on="1"/>
        <pt x="49" y="387" on="1"/>
        <pt x="77" y="387" on="1"/>
        <pt x="113" y="222" on="1"/>
      </contour>
    </TTGlyph>
    <TTGlyph name="guilsinglright.cap" xMin="16" yMin="207" xMax="139" yMax="534">
      <component glyphName="guilsinglright" x="26" y="147" flags="0x204"/>
    </TTGlyph>
    <TTGlyph name="h" xMin="7" yMin="0" xMax="278" yMax="733">
      <contour>
        <pt x="278" y="378" on="1"/>
        <pt x="278" y="370" on="0"/>
        <pt x="275" y="343" on="0"/>
        <pt x="273" y="329" on="1"/>
        <pt x="215" y="0" on="1"/>
        <pt x="185" y="0" on="1"/>
        <pt x="242" y="324" on="1"/>
        <pt x="244" y="335" on="0"/>
        <pt x="248" y="365" on="0"/>
        <pt x="248" y="375" on="1"/>
        <pt x="248" y="398" on="0"/>
        <pt x="224" y="422" on="0"/>
        <pt x="204" y="422" on="1"/>
        <pt x="189" y="422" on="0"/>
        <pt x="160" y="408" on="0"/>
        <pt x="133" y="387" on="0"/>
        <pt x="109" y="362" on="0"/>
        <pt x="99" y="350" on="1"/>
        <pt x="37" y="0" on="1"/>
        <pt x="7" y="0" on="1"/>
        <pt x="136" y="733" on="1"/>
        <pt x="166" y="733" on="1"/>
        <pt x="104" y="382" on="1"/>
        <pt x="136" y="420" on="0"/>
        <pt x="189" y="449" on="0"/>
        <pt x="211" y="449" on="1"/>
        <pt x="239" y="449" on="0"/>
        <pt x="278" y="413" on="0"/>
      </contour>
    </TTGlyph>
    <TTGlyph name="hbar" xMin="7" yMin="0" xMax="278" yMax="733">
      <contour>
        <pt x="278" y="378" on="1"/>
        <pt x="278" y="370" on="0"/>
        <pt x="275" y="343" on="0"/>
        <pt x="273" y="329" on="1"/>
        <pt x="215" y="0" on="1"/>
        <pt x="185" y="0" on="1"/>
        <pt x="242" y="324" on="1"/>
        <pt x="244" y="335" on="0"/>
        <pt x="248" y="365" on="0"/>
        <pt x="248" y="375" on="1"/>
        <pt x="248" y="398" on="0"/>
        <pt x="224" y="422" on="0"/>
        <pt x="204" y="422" on="1"/>
        <pt x="189" y="422" on="0"/>
        <pt x="160" y="408" on="0"/>
        <pt x="133" y="387" on="0"/>
        <pt x="109" y="362" on="0"/>
        <pt x="99" y="350" on="1"/>
        <pt x="37" y="0" on="1"/>
        <pt x="7" y="0" on="1"/>
        <pt x="109" y="580" on="1"/>
        <pt x="65" y="580" on="1"/>
        <pt x="70" y="608" on="1"/>
        <pt x="114" y="608" on="1"/>
        <pt x="136" y="733" on="1"/>
        <pt x="166" y="733" on="1"/>
        <pt x="144" y="608" on="1"/>
        <pt x="239" y="608" on="1"/>
        <pt x="234" y="580" on="1"/>
        <pt x="139" y="580" on="1"/>
        <pt x="104" y="382" on="1"/>
        <pt x="136" y="420" on="0"/>
        <pt x="189" y="449" on="0"/>
        <pt x="211" y="449" on="1"/>
        <pt x="239" y="449" on="0"/>
        <pt x="278" y="413" on="0"/>
      </contour>
    </TTGlyph>
</ttFont>
